{"glyphs":{"0":{"ha":954,"x_min":142,"x_max":1061,"o":"m 853 432 q 856 519 863 476 q 826 594 849 561 l 531 186 l 549 186 q 650 206 600 186 q 742 260 700 226 q 813 339 783 294 q 853 432 842 383 m 350 432 q 348 344 340 386 q 379 267 356 301 l 678 681 q 667 682 672 682 q 656 682 661 682 q 553 661 604 682 q 461 606 503 640 q 390 527 419 572 q 350 432 360 482 m 872 432 q 829 330 861 378 q 753 246 797 282 q 655 189 708 210 q 546 168 601 168 q 524 168 535 168 q 501 169 513 168 l 829 626 q 872 538 861 588 q 872 432 883 488 m 331 432 q 374 535 342 486 q 451 620 406 583 q 550 678 496 657 q 660 700 604 700 q 707 696 686 700 l 375 235 q 331 324 343 274 q 331 432 318 374 m 906 432 q 901 570 921 506 q 828 676 881 635 l 444 146 q 538 133 488 133 q 659 158 599 133 q 770 223 719 182 q 857 318 821 264 q 906 432 893 372 m 299 432 q 303 290 283 357 q 378 183 324 224 l 763 715 q 667 735 722 735 q 544 710 604 735 q 433 643 483 685 q 347 547 383 601 q 299 432 311 492 m 214 433 q 276 584 231 514 q 385 706 321 654 q 525 789 449 758 q 683 819 601 819 q 828 789 764 819 q 934 706 893 758 q 990 584 975 654 q 989 433 1006 514 q 927 284 972 354 q 818 162 882 214 q 677 79 754 110 q 519 49 600 49 q 374 79 438 49 q 269 162 310 110 q 213 284 228 214 q 214 433 197 354 m 181 433 q 179 272 163 347 q 240 139 196 196 q 355 49 285 82 q 513 15 425 15 q 684 49 600 15 q 838 139 768 82 q 956 272 907 196 q 1024 433 1006 347 q 1025 596 1042 519 q 963 729 1008 672 q 849 819 918 786 q 692 853 779 853 q 520 819 604 853 q 367 729 436 786 q 248 596 297 672 q 181 433 199 519 m 161 433 q 232 603 181 524 q 355 742 283 683 q 515 836 426 801 q 694 871 603 871 q 859 836 786 871 q 979 742 932 801 q 1044 603 1026 683 q 1042 433 1061 524 q 972 263 1022 343 q 848 124 921 183 q 688 31 775 65 q 508 -4 600 -4 q 344 31 417 -4 q 224 124 271 65 q 159 263 176 183 q 161 433 142 343 z "},"1":{"ha":365,"x_min":151,"x_max":526,"o":"m 279 814 l 464 814 l 301 53 l 213 53 l 357 735 l 261 735 l 279 814 m 174 18 l 325 18 l 501 849 l 260 849 l 228 700 l 318 700 l 174 18 m 250 867 l 526 867 l 342 0 l 151 0 l 296 682 l 210 682 l 250 867 z "},"2":{"ha":853,"x_min":81,"x_max":983,"o":"m 869 185 l 311 185 l 328 264 q 362 316 335 294 q 442 347 389 338 l 481 526 q 364 506 421 526 q 260 449 307 485 q 181 365 214 413 q 136 264 147 317 l 81 0 l 831 0 l 869 185 m 238 682 l 718 682 q 770 660 756 682 q 778 603 785 638 q 744 550 771 572 q 665 518 718 528 l 628 340 q 743 361 686 340 q 847 418 800 382 q 927 502 894 454 q 971 603 960 550 q 974 711 983 663 q 940 794 965 760 q 876 848 915 829 q 790 867 838 867 l 278 867 l 238 682 m 154 264 q 193 356 164 313 q 264 433 222 400 q 355 487 306 467 q 457 507 404 507 l 426 364 q 345 327 374 353 q 308 264 317 301 l 289 167 l 849 167 l 817 18 l 103 18 l 154 264 m 786 849 q 865 831 829 849 q 925 781 901 813 q 957 703 949 749 q 953 603 965 657 q 913 510 942 554 q 842 432 883 465 q 750 379 800 399 q 649 360 700 360 l 679 501 q 760 538 732 513 q 797 603 789 564 q 789 673 807 646 q 722 700 771 700 l 260 700 l 292 849 l 786 849 m 807 132 l 247 132 l 275 264 q 317 347 286 314 q 400 390 347 379 l 417 474 q 342 457 379 474 q 273 412 304 440 q 219 345 242 383 q 188 264 197 307 l 143 53 l 790 53 l 807 132 m 300 735 l 729 735 q 818 697 793 735 q 831 603 843 660 q 790 519 819 553 q 707 475 760 486 l 689 393 q 764 410 726 393 q 833 455 801 426 q 888 522 865 483 q 919 603 911 560 q 923 690 929 650 q 897 756 917 729 q 847 799 878 783 q 779 814 817 814 l 318 814 l 300 735 z "},"3":{"ha":763,"x_min":79,"x_max":889,"o":"m 496 474 l 643 474 q 702 528 675 494 q 736 590 729 561 q 740 641 742 615 q 728 688 738 667 q 701 722 718 708 q 660 735 685 735 l 285 735 l 303 814 l 692 814 q 758 797 729 814 q 806 749 788 779 q 829 677 824 718 q 825 589 835 636 q 783 496 814 536 q 722 431 751 456 q 755 366 740 406 q 760 278 769 326 q 726 190 749 231 q 672 118 703 149 q 603 70 640 88 q 529 53 567 53 l 140 53 l 157 132 l 532 132 q 580 145 557 132 q 621 179 603 158 q 651 226 639 200 q 669 276 664 251 q 663 340 676 307 q 625 394 649 372 l 479 394 l 496 474 m 472 507 l 440 360 l 608 360 q 633 320 625 343 q 636 276 642 297 q 624 238 632 257 q 603 203 615 218 q 574 177 590 188 q 540 167 558 167 l 133 167 l 101 18 l 522 18 q 608 38 565 18 q 689 94 651 58 q 753 176 726 129 q 793 278 781 224 q 792 361 803 322 q 764 429 781 400 q 820 500 793 460 q 858 589 847 540 q 863 690 869 643 q 833 773 856 738 q 776 828 811 808 q 699 849 742 849 l 278 849 l 246 700 l 653 700 q 683 690 671 700 q 701 664 694 679 q 708 628 707 649 q 704 590 708 608 q 682 547 700 569 q 642 507 664 524 l 472 507 m 458 526 l 638 526 q 669 558 656 542 q 686 590 683 575 q 684 652 693 622 q 649 682 675 682 l 224 682 l 264 867 l 703 867 q 788 845 750 867 q 849 786 825 824 q 881 698 874 749 q 876 589 889 647 q 840 501 865 540 q 788 431 815 461 q 812 363 803 401 q 811 278 821 325 q 769 169 799 219 q 699 81 739 118 q 613 22 660 43 q 518 0 565 0 l 79 0 l 118 185 l 543 185 q 591 215 571 185 q 618 276 611 244 q 615 309 621 292 q 597 342 608 326 l 418 342 l 458 526 z "},"4":{"ha":906,"x_min":153,"x_max":1071,"o":"m 269 867 l 153 319 l 753 319 l 792 504 l 382 504 l 460 867 l 269 867 m 886 0 l 1071 867 l 879 867 l 694 0 l 886 0 m 283 849 l 436 849 l 358 486 l 769 486 l 739 339 l 175 339 l 283 849 m 893 849 l 1049 849 l 872 18 l 717 18 l 893 849 m 310 814 l 215 372 l 713 372 l 729 451 l 318 451 l 396 814 l 310 814 m 844 53 l 1007 814 l 921 814 l 758 53 l 844 53 z "},"5":{"ha":857,"x_min":96,"x_max":1019,"o":"m 175 132 l 606 132 q 710 169 669 132 q 761 264 750 207 q 757 347 772 314 q 693 390 742 379 l 710 474 q 778 457 747 474 q 827 412 808 440 q 853 345 846 383 q 850 264 860 307 q 817 176 840 215 q 763 110 794 138 q 694 68 732 83 q 619 53 657 53 l 158 53 l 175 132 m 939 735 l 379 735 l 325 475 l 421 475 l 403 393 l 219 393 l 310 814 l 957 814 l 939 735 m 150 167 l 118 18 l 613 18 q 701 36 657 18 q 781 86 744 54 q 845 164 818 118 q 883 264 872 210 q 883 356 893 313 q 845 433 872 400 q 776 487 818 467 q 685 507 735 507 l 654 364 q 719 327 703 353 q 728 264 736 301 q 691 194 719 221 q 614 167 663 167 l 150 167 m 406 700 l 965 700 l 997 849 l 283 849 l 179 360 l 429 360 l 461 508 l 365 508 l 406 700 m 135 185 l 617 185 q 678 207 654 185 q 710 264 703 229 q 699 316 717 294 q 633 347 681 338 l 672 526 q 778 506 731 526 q 858 449 826 485 q 901 365 889 413 q 903 264 914 317 q 861 156 890 204 q 792 72 832 107 q 704 19 751 38 q 608 0 657 0 l 96 0 l 135 185 m 979 682 l 419 682 l 388 528 l 483 528 l 443 340 l 157 340 l 269 867 l 1019 867 l 979 682 z "},"6":{"ha":954,"x_min":142,"x_max":1057,"o":"m 1042 433 l 1057 506 l 933 506 l 1051 572 q 1000 692 1033 638 q 921 787 967 747 q 818 849 875 826 q 694 871 761 871 q 515 836 603 871 q 355 742 426 801 q 232 603 283 683 q 161 433 181 524 q 159 263 142 343 q 224 124 176 183 q 344 31 271 65 q 508 -4 417 -4 q 669 30 583 -4 q 831 124 754 64 q 965 263 907 183 q 1042 433 1022 342 m 1024 433 q 951 270 1006 346 q 822 138 896 194 q 667 48 749 81 q 513 15 585 15 q 355 49 425 15 q 240 139 285 82 q 179 272 196 196 q 181 433 163 347 q 248 596 199 519 q 367 729 297 672 q 520 819 436 786 q 692 853 604 853 q 808 833 754 853 q 906 776 863 813 q 981 689 950 739 q 1028 581 1011 639 l 882 499 q 801 644 860 586 q 660 701 743 701 q 564 685 611 701 q 475 639 517 668 q 401 571 433 610 q 349 488 368 532 l 1036 488 l 1024 433 m 989 433 l 994 454 l 303 454 q 354 560 318 510 q 440 650 390 611 q 549 712 490 689 q 667 735 607 735 q 825 681 761 735 q 908 546 889 628 l 989 592 q 949 683 976 642 q 881 755 921 725 q 792 802 842 785 q 683 819 742 819 q 525 789 601 819 q 385 706 449 758 q 276 584 321 654 q 214 433 231 514 q 213 284 197 354 q 269 162 228 214 q 374 79 310 110 q 519 49 438 49 q 661 78 586 49 q 803 160 736 108 q 922 283 871 213 q 989 433 972 353 m 538 132 q 438 151 483 132 q 360 202 392 169 q 310 279 328 235 q 292 374 292 324 l 888 374 q 819 275 858 319 q 733 199 779 231 q 636 149 686 167 q 538 132 586 132 m 546 167 q 697 213 621 167 q 829 340 774 260 l 329 340 q 401 215 343 264 q 546 167 458 167 m 657 683 q 778 633 726 683 q 856 506 829 582 l 375 506 q 427 575 396 543 q 495 631 458 607 q 574 669 532 656 q 657 683 615 683 m 549 185 q 423 222 475 185 q 351 321 371 260 l 796 321 q 678 221 743 257 q 549 185 613 185 z "},"7":{"ha":832,"x_min":28,"x_max":1083,"o":"m 142 53 l 788 735 l 288 735 l 306 814 l 969 814 l 247 53 l 142 53 m 68 18 l 256 18 l 1042 849 l 279 849 l 247 700 l 715 700 l 68 18 m 28 0 l 672 682 l 225 682 l 265 867 l 1083 867 l 261 0 l 28 0 z "},"8":{"ha":846,"x_min":122,"x_max":974,"o":"m 535 526 l 717 526 q 750 558 736 542 q 767 590 764 575 q 770 623 771 607 q 765 652 769 639 q 750 674 760 665 q 726 682 740 682 l 471 682 q 444 674 457 682 q 420 652 431 665 q 403 623 410 639 q 392 590 396 607 q 405 548 389 574 q 446 500 421 522 l 417 367 q 357 319 383 346 q 326 276 331 293 q 324 243 324 260 q 328 215 324 228 q 341 193 332 201 q 363 185 350 185 l 624 185 q 672 215 651 185 q 699 276 692 244 q 695 309 701 292 q 676 342 689 326 l 494 342 l 535 526 m 549 507 l 517 360 l 689 360 q 715 320 706 343 q 718 276 724 297 q 706 238 714 257 q 684 203 697 218 q 655 177 671 188 q 621 167 639 167 l 360 167 q 330 177 342 167 q 312 203 318 188 q 305 238 306 218 q 308 276 304 257 q 341 328 314 300 q 401 379 368 357 l 425 489 q 385 539 400 511 q 374 590 369 567 q 388 628 378 608 q 410 664 397 649 q 440 690 424 679 q 475 700 457 700 l 731 700 q 761 690 749 700 q 781 664 774 679 q 788 628 788 649 q 785 590 789 608 q 763 547 781 569 q 722 507 746 524 l 549 507 m 574 474 l 724 474 q 784 528 757 494 q 818 590 811 561 q 822 641 824 615 q 809 688 819 667 q 781 722 799 708 q 738 735 764 735 l 482 735 q 432 722 456 735 q 390 688 408 708 q 358 641 371 667 q 340 590 346 615 q 349 528 333 561 q 388 474 364 494 l 371 394 q 310 340 338 374 q 275 276 282 306 q 271 226 269 251 q 282 179 272 200 q 308 145 292 158 q 351 132 325 132 l 613 132 q 662 145 639 132 q 702 179 685 158 q 732 226 719 200 q 750 276 744 251 q 744 340 757 307 q 706 394 731 372 l 557 394 l 574 474 m 251 589 q 284 677 261 636 q 339 749 307 718 q 408 797 371 779 q 485 814 446 814 l 771 814 q 838 797 808 814 q 887 749 868 779 q 912 677 906 718 q 908 589 918 636 q 865 496 897 536 q 804 431 833 456 q 838 366 822 406 q 843 278 853 326 q 808 190 832 231 q 753 118 785 149 q 683 70 721 88 q 608 53 646 53 l 322 53 q 253 70 283 53 q 205 118 224 88 q 181 190 186 149 q 186 278 175 231 q 228 366 197 326 q 288 431 260 406 q 255 496 269 456 q 251 589 240 536 m 218 589 q 218 500 207 540 q 247 429 229 460 q 190 362 217 400 q 153 278 163 324 q 147 176 140 224 q 176 94 154 129 q 234 38 199 58 q 315 18 269 18 l 601 18 q 690 38 646 18 q 771 94 733 58 q 836 176 808 129 q 876 278 864 224 q 874 362 886 324 q 846 429 863 400 q 903 500 876 460 q 942 589 931 540 q 945 690 953 643 q 915 773 938 738 q 858 828 893 808 q 778 849 822 849 l 492 849 q 402 828 446 849 q 321 773 358 808 q 256 690 283 738 q 218 589 229 643 m 200 589 q 242 698 213 647 q 311 786 271 749 q 399 845 351 824 q 496 867 447 867 l 782 867 q 869 845 831 867 q 933 786 908 824 q 965 698 957 749 q 961 589 974 647 q 924 501 950 540 q 871 431 899 461 q 896 363 886 401 q 896 278 906 325 q 853 169 883 219 q 783 81 824 118 q 694 22 742 43 q 597 0 646 0 l 311 0 q 224 22 263 0 q 161 81 185 43 q 130 169 138 118 q 135 278 122 219 q 169 363 144 325 q 221 431 193 401 q 197 501 206 461 q 200 589 189 540 z "},"9":{"ha":954,"x_min":146,"x_max":1061,"o":"m 161 433 l 146 361 l 272 361 l 153 294 q 202 174 169 229 q 281 80 235 119 q 384 18 326 40 q 508 -4 442 -4 q 688 31 600 -4 q 848 124 775 65 q 972 263 921 183 q 1042 433 1022 343 q 1044 603 1061 524 q 979 742 1026 683 q 859 836 932 801 q 694 871 786 871 q 534 837 619 871 q 372 743 449 803 q 238 604 296 683 q 161 433 181 525 m 181 433 q 253 597 199 521 q 381 731 308 674 q 536 820 454 788 q 692 853 618 853 q 849 819 779 853 q 963 729 918 786 q 1025 596 1008 672 q 1024 433 1042 519 q 956 272 1006 347 q 838 139 907 196 q 684 49 768 82 q 513 15 600 15 q 394 35 449 15 q 296 92 339 56 q 222 177 253 128 q 175 286 190 226 l 319 368 q 400 224 340 281 q 544 168 460 168 q 639 185 592 168 q 728 230 686 201 q 802 297 769 258 q 854 381 835 336 l 169 381 l 181 433 m 214 433 l 210 414 l 901 414 q 848 306 885 357 q 761 217 811 256 q 653 156 711 179 q 536 133 594 133 q 449 148 489 133 q 378 188 410 163 q 326 247 347 213 q 294 321 304 281 l 217 275 q 256 184 229 225 q 322 113 283 143 q 411 65 361 82 q 519 49 461 49 q 677 79 600 49 q 818 162 754 110 q 927 284 882 214 q 989 433 972 354 q 990 584 1006 514 q 934 706 975 654 q 828 789 893 758 q 683 819 764 819 q 542 790 617 819 q 399 708 467 760 q 281 585 332 656 q 214 433 231 514 m 665 735 q 765 716 719 735 q 844 665 811 697 q 894 588 876 632 q 914 494 913 544 l 317 494 q 385 592 344 549 q 472 668 425 636 q 568 717 518 700 q 665 735 618 735 m 658 700 q 582 688 621 700 q 505 653 543 676 q 433 599 467 631 q 372 528 399 567 l 875 528 q 802 651 860 603 q 658 700 744 700 m 547 186 q 424 235 476 186 q 343 361 371 283 l 825 361 q 775 292 806 324 q 708 236 744 260 q 630 199 671 213 q 547 186 589 186 m 654 682 q 778 644 726 682 q 849 546 829 606 l 404 546 q 522 645 453 608 q 654 682 590 682 z "}," ":{"ha":492,"x_min":0,"x_max":0,"o":""},"!":{"ha":278,"x_min":65,"x_max":446,"o":"m 128 119 q 157 167 135 149 q 207 186 179 186 q 252 167 236 186 q 261 119 268 149 q 231 70 254 89 q 179 51 208 51 q 136 70 151 51 q 128 119 121 89 m 94 119 q 108 47 85 75 q 172 18 131 18 q 250 47 215 18 q 294 119 285 75 q 281 190 304 163 q 214 218 257 218 q 138 190 172 218 q 94 119 104 163 m 76 119 q 128 205 88 172 q 218 238 169 238 q 297 205 269 238 q 313 119 324 172 q 260 33 301 67 q 168 -1 219 -1 q 92 33 119 -1 q 76 119 65 67 m 185 294 l 296 814 l 382 814 l 271 294 l 185 294 m 144 260 l 297 260 l 422 849 l 269 849 l 144 260 m 122 242 l 256 867 l 446 867 l 313 242 l 122 242 z "},"\"":{"ha":465,"x_min":157,"x_max":626,"o":"m 411 704 q 418 712 415 708 q 424 718 421 715 l 422 722 q 419 718 419 719 q 417 715 418 717 l 411 704 m 440 675 q 468 706 458 690 q 483 733 478 721 q 459 753 468 740 q 454 782 450 765 q 478 818 458 804 q 522 832 497 832 q 564 817 549 832 q 574 779 579 801 q 551 721 567 747 q 515 675 536 694 l 440 675 m 263 675 q 292 706 282 690 q 307 733 303 721 q 282 753 292 740 q 276 782 272 765 q 301 818 281 804 q 346 832 321 832 q 388 817 372 832 q 397 779 403 801 q 340 675 385 715 l 263 675 m 447 724 q 419 691 436 710 q 375 650 401 672 l 524 650 q 574 712 554 678 q 601 779 594 746 q 586 834 608 811 q 528 857 564 857 q 469 839 497 857 q 428 793 440 821 q 403 839 425 821 q 351 857 382 857 q 285 835 315 857 q 249 782 256 814 q 251 749 244 764 q 272 722 258 733 q 245 693 261 711 q 200 650 229 675 l 347 650 q 393 703 374 674 q 421 760 413 732 l 424 760 q 447 724 428 739 m 157 636 q 215 686 193 667 q 249 718 236 706 q 232 782 224 743 q 275 847 240 822 q 354 871 310 871 q 403 860 382 871 q 435 831 424 850 q 531 871 472 871 q 601 844 575 871 q 618 779 626 817 q 529 636 603 701 l 157 636 z "},"#":{"ha":1043,"x_min":124,"x_max":1174,"o":"m 192 494 l 761 494 l 735 369 l 165 369 l 124 176 l 300 176 l 263 0 l 457 0 l 494 176 l 693 176 l 656 0 l 849 0 l 886 176 l 1065 176 l 1107 369 l 928 369 l 954 494 l 1133 494 l 1174 689 l 994 689 l 1033 867 l 840 867 l 801 689 l 603 689 l 642 867 l 447 867 l 408 689 l 232 689 l 192 494 m 422 669 l 461 849 l 619 849 l 581 669 l 817 669 l 856 849 l 1011 849 l 972 669 l 1151 669 l 1118 513 l 939 513 l 906 351 l 1085 351 l 1051 194 l 872 194 l 835 18 l 679 18 l 717 194 l 481 194 l 443 18 l 285 18 l 322 194 l 147 194 l 181 351 l 750 351 l 783 513 l 214 513 l 247 669 l 422 669 m 256 547 l 824 547 l 775 318 l 207 318 l 188 226 l 364 226 l 326 53 l 415 53 l 453 226 l 756 226 l 718 53 l 807 53 l 844 226 l 1024 226 l 1043 318 l 864 318 l 913 547 l 1092 547 l 1111 638 l 932 638 l 969 814 l 881 814 l 843 638 l 540 638 l 578 814 l 489 814 l 451 638 l 275 638 l 256 547 z "},"$":{"ha":847,"x_min":86,"x_max":1017,"o":"m 1017 900 l 742 900 l 774 1054 l 583 1054 l 551 900 l 503 900 q 407 881 454 900 q 320 825 360 861 q 251 738 281 789 q 208 625 221 688 q 208 520 196 569 q 251 433 219 471 q 329 374 282 396 q 435 353 376 353 l 400 192 l 126 192 l 86 0 l 360 0 l 325 -162 l 515 -162 l 550 0 l 599 0 q 694 19 647 0 q 783 75 742 39 q 853 162 824 111 q 896 275 883 213 q 894 378 907 329 q 851 465 882 428 q 772 524 819 501 q 667 546 725 546 l 700 708 l 975 708 l 1017 900 m 568 172 l 606 172 q 682 201 653 172 q 721 275 711 229 q 712 338 729 311 q 649 376 694 365 l 681 526 q 772 506 731 526 q 839 450 813 485 q 876 370 865 415 q 876 275 886 325 q 837 171 864 218 q 772 90 810 124 q 691 38 735 57 q 603 19 647 19 l 536 19 l 501 -143 l 347 -143 l 382 19 l 108 19 l 140 172 l 414 172 l 532 728 l 496 728 q 419 699 447 728 q 381 625 390 671 q 388 558 372 586 q 453 519 404 531 l 422 372 q 330 392 371 372 q 262 447 289 413 q 225 528 235 482 q 226 625 215 574 q 266 729 239 682 q 329 810 293 776 q 409 862 365 843 q 499 881 453 881 l 565 881 l 599 1036 l 753 1036 l 719 881 l 994 881 l 961 728 l 686 728 l 568 172 m 953 844 l 678 844 l 711 1000 l 624 1000 l 590 844 l 490 844 q 415 829 451 844 q 347 785 378 814 q 292 715 315 756 q 260 625 269 675 q 256 541 250 581 q 281 472 263 501 q 328 424 299 442 q 396 407 358 407 l 414 492 q 351 538 365 503 q 347 625 336 572 q 400 724 360 685 q 504 763 440 763 l 574 763 l 440 138 l 167 138 l 149 54 l 422 54 l 389 -107 l 476 -107 l 510 54 l 610 54 q 685 70 647 54 q 754 115 722 86 q 809 184 786 143 q 843 275 832 225 q 847 357 853 318 q 822 426 840 396 q 772 473 803 456 q 704 490 742 490 l 686 404 q 750 360 735 393 q 754 275 765 326 q 701 176 742 214 q 599 138 661 138 l 528 138 l 661 763 l 936 763 l 953 844 m 703 275 q 671 215 696 239 q 610 192 646 192 l 590 192 l 626 360 q 692 327 674 349 q 703 275 710 306 m 399 625 q 430 685 406 661 q 492 708 454 708 l 510 708 l 474 536 q 408 570 425 547 q 399 625 392 593 z "},"%":{"ha":1081,"x_min":199,"x_max":1133,"o":"m 393 624 q 404 581 389 600 q 447 563 419 563 q 498 581 474 563 q 526 624 522 600 q 517 668 533 649 q 474 688 501 688 q 423 668 446 688 q 393 624 400 649 m 807 242 q 817 199 801 218 q 860 181 832 181 q 910 199 886 181 q 939 242 933 218 q 929 288 944 268 q 886 307 914 307 q 835 288 858 307 q 807 242 813 268 m 376 624 q 413 681 383 657 q 478 706 442 706 q 533 681 514 706 q 544 624 551 657 q 508 567 538 590 q 443 543 478 543 q 388 567 407 543 q 376 624 369 590 m 789 242 q 825 301 796 276 q 890 325 854 325 q 946 301 926 325 q 958 242 965 276 q 921 185 951 208 q 856 163 890 163 q 801 185 819 163 q 789 242 782 208 m 754 242 q 772 163 744 196 q 849 129 800 129 q 896 138 872 129 q 939 163 919 147 q 973 198 958 178 q 992 242 988 218 q 975 324 1003 289 q 897 358 947 358 q 850 349 874 358 q 807 323 826 339 q 774 286 788 307 q 754 242 760 265 m 342 624 q 359 544 332 578 q 436 510 386 510 q 483 519 460 510 q 526 544 507 528 q 560 580 546 560 q 579 624 575 600 q 562 705 589 669 q 485 740 535 740 q 437 731 460 740 q 394 705 414 721 q 361 667 375 689 q 342 624 347 646 m 343 53 l 897 815 l 992 815 l 439 53 l 343 53 m 675 243 q 706 317 683 282 q 762 379 729 353 q 834 421 794 406 q 914 436 874 436 q 988 421 956 436 q 1042 379 1021 406 q 1070 317 1063 353 q 1069 243 1078 282 q 1038 168 1061 203 q 983 107 1015 133 q 913 65 951 81 q 832 50 874 50 q 759 65 792 50 q 705 107 726 81 q 675 168 683 133 q 675 243 667 203 m 264 625 q 295 699 272 664 q 350 760 318 733 q 422 801 382 786 q 501 817 461 817 q 576 801 543 817 q 629 760 608 786 q 658 699 650 733 q 658 625 667 664 q 626 549 650 585 q 571 488 603 514 q 500 446 539 461 q 419 431 461 431 q 347 446 379 431 q 292 488 314 461 q 263 549 271 514 q 264 625 256 585 m 279 18 l 453 18 l 658 299 l 661 299 q 640 243 646 271 q 640 156 631 197 q 676 83 650 114 q 740 35 701 53 q 825 17 778 17 q 919 35 874 17 q 1003 83 965 53 q 1067 156 1040 114 q 1104 243 1094 197 q 1105 330 1114 289 q 1071 402 1096 371 q 1008 452 1046 433 q 921 471 969 471 q 813 445 865 471 q 719 379 760 419 l 717 381 l 1054 849 l 882 849 l 667 551 l 664 551 q 681 587 674 568 q 693 625 689 606 q 693 712 703 671 q 658 784 683 753 q 594 833 633 815 q 508 851 556 851 q 415 833 461 851 q 331 784 369 815 q 266 712 293 753 q 229 625 239 671 q 229 537 219 578 q 264 465 239 496 q 327 415 289 433 q 413 397 365 397 q 528 424 472 397 q 624 496 583 451 l 626 494 l 279 18 m 247 0 l 546 414 q 479 388 514 396 q 408 379 444 379 q 315 399 357 379 q 247 451 274 418 q 209 529 219 485 q 210 625 199 574 q 249 719 219 675 q 320 797 279 764 q 411 850 361 831 q 513 869 461 869 q 602 851 563 869 q 669 803 642 833 q 708 731 696 772 q 714 644 719 690 l 876 867 l 1089 867 l 788 453 q 854 479 819 469 q 925 489 889 489 q 1019 469 978 489 q 1088 416 1061 450 q 1124 338 1114 382 q 1122 243 1133 293 q 1083 147 1111 192 q 1013 69 1054 103 q 923 17 972 36 q 821 -3 874 -3 q 733 14 772 -3 q 666 60 693 31 q 626 130 639 90 q 617 215 613 169 l 460 0 l 247 0 z "},"&":{"ha":900,"x_min":122,"x_max":997,"o":"m 521 526 l 481 342 l 675 342 q 692 309 686 326 q 696 276 699 292 q 685 244 693 260 q 668 215 678 228 q 646 193 658 201 q 621 185 633 185 l 365 185 q 343 193 351 185 q 330 215 335 201 q 325 243 325 228 q 328 276 325 260 q 359 319 332 293 q 419 367 386 346 l 449 500 q 408 548 424 522 q 394 590 392 574 q 406 623 399 607 q 423 652 413 639 q 447 674 433 665 q 474 682 460 682 l 690 682 q 714 662 703 682 q 733 614 725 642 l 938 614 q 914 717 931 671 q 872 797 897 764 q 815 849 847 831 q 746 867 783 867 l 499 867 q 401 845 449 867 q 313 786 353 824 q 242 698 272 749 q 200 589 213 647 q 197 501 189 540 q 222 431 206 461 q 169 363 194 401 q 135 278 144 325 q 130 169 122 219 q 162 81 138 118 q 225 22 186 43 q 314 0 264 0 l 596 0 q 691 22 643 0 q 780 81 739 43 q 851 169 821 118 q 893 278 881 219 q 897 310 896 294 q 896 342 897 326 l 957 342 l 997 526 l 521 526 m 875 278 q 835 176 863 224 q 769 94 807 129 q 688 38 732 58 q 600 18 643 18 l 318 18 q 237 38 272 18 q 178 94 201 58 q 148 176 156 129 q 153 278 140 224 q 190 363 163 324 q 249 429 218 401 q 219 500 231 460 q 218 589 207 540 q 257 690 229 643 q 322 773 285 738 q 404 828 360 808 q 494 849 449 849 l 742 849 q 857 788 810 849 q 917 632 904 728 l 747 632 q 726 681 739 661 q 694 700 714 700 l 478 700 q 442 690 458 700 q 412 664 425 679 q 389 628 399 649 q 375 590 379 608 q 387 539 371 567 q 428 489 403 511 l 404 379 q 343 328 371 357 q 310 276 315 300 q 306 238 306 257 q 313 203 307 218 q 331 177 319 188 q 363 167 343 167 l 618 167 q 652 177 636 167 q 681 203 668 188 q 701 238 693 218 q 714 276 710 257 q 711 320 719 297 q 685 360 703 343 l 504 360 l 536 507 l 975 507 l 943 360 l 874 360 q 875 278 883 321 m 561 474 l 544 394 l 703 394 q 741 340 728 372 q 747 276 754 307 q 729 226 742 251 q 699 179 717 200 q 659 145 682 158 q 610 132 636 132 l 354 132 q 310 145 328 132 q 284 179 293 158 q 273 226 275 200 q 276 276 271 251 q 312 340 283 306 q 372 394 340 374 l 389 474 q 350 528 365 494 q 342 590 335 561 q 360 641 347 615 q 392 688 374 667 q 435 722 411 708 q 485 735 458 735 l 701 735 q 750 715 733 735 q 775 665 767 694 l 878 665 q 832 773 871 732 q 735 814 793 814 l 488 814 q 410 797 449 814 q 341 749 372 779 q 286 677 310 718 q 253 589 263 636 q 257 496 242 536 q 292 431 272 456 q 231 366 263 406 q 188 278 199 326 q 182 190 176 231 q 206 118 188 149 q 256 70 225 88 q 325 53 286 53 l 607 53 q 682 70 644 53 q 751 118 719 88 q 807 190 783 149 q 842 278 831 231 q 842 341 849 313 q 822 394 835 369 l 917 394 l 933 474 l 561 474 z "},"'":{"ha":269,"x_min":154,"x_max":422,"o":"m 250 671 q 276 701 265 686 q 290 729 286 717 q 267 748 276 736 q 261 778 257 760 q 285 814 265 800 q 329 828 306 828 q 365 813 351 828 q 374 775 378 797 q 352 717 367 743 q 319 671 338 690 l 250 671 m 257 719 q 230 688 246 706 q 190 646 214 669 l 326 646 q 374 708 354 674 q 400 775 393 742 q 387 830 407 807 q 335 853 367 853 q 272 831 300 853 q 238 778 244 810 q 240 745 233 760 q 257 719 246 731 m 154 632 q 204 683 185 663 q 232 714 224 703 q 222 778 214 740 q 263 842 231 818 q 338 867 294 867 q 400 840 378 867 q 415 775 422 813 q 385 700 407 738 q 331 632 364 663 l 154 632 z "},"(":{"ha":464,"x_min":132,"x_max":642,"o":"m 151 433 q 144 258 132 342 q 195 109 157 175 q 294 -1 233 43 q 432 -61 354 -46 l 474 136 q 396 176 429 147 q 342 244 363 204 q 315 332 321 283 q 319 432 308 381 q 357 531 331 482 q 421 619 383 579 q 504 689 458 660 q 600 729 550 718 l 642 926 q 478 867 558 911 q 333 756 399 822 q 219 608 267 690 q 151 433 171 525 m 168 433 q 231 600 186 521 q 336 742 275 679 q 470 848 397 806 q 621 904 543 890 l 588 744 q 491 703 538 733 q 406 631 444 674 q 341 536 368 588 q 303 432 314 485 q 297 325 292 376 q 322 232 303 274 q 376 161 342 190 q 454 119 410 132 l 421 -39 q 294 18 350 -25 q 205 124 239 61 q 160 267 171 188 q 168 433 150 346 m 196 433 q 186 278 179 351 q 221 147 193 206 q 294 51 249 89 q 400 1 340 13 l 419 93 q 342 135 375 104 q 290 213 310 167 q 265 315 269 258 q 274 432 261 371 q 315 547 286 490 q 383 649 343 603 q 469 728 422 696 q 564 771 515 760 l 583 864 q 457 815 519 853 q 342 719 394 776 q 251 588 290 661 q 196 433 213 514 z "},")":{"ha":464,"x_min":58,"x_max":567,"o":"m 501 433 q 447 278 485 351 q 356 147 408 206 q 242 51 304 89 q 115 1 181 13 l 135 93 q 230 135 183 104 q 315 213 276 167 q 383 315 354 258 q 425 432 413 371 q 433 547 438 490 q 408 649 428 603 q 356 728 389 696 q 279 771 324 760 l 299 864 q 404 815 358 853 q 477 719 450 776 q 511 588 504 661 q 501 433 518 514 m 531 433 q 539 600 549 521 q 495 742 529 679 q 406 848 461 806 q 279 904 350 890 l 246 744 q 322 703 289 733 q 376 630 356 672 q 401 536 396 588 q 396 432 407 485 q 357 325 385 376 q 291 232 329 274 q 207 161 253 190 q 113 119 161 132 l 79 -39 q 229 18 156 -25 q 364 124 303 61 q 469 267 425 188 q 531 433 513 346 m 547 433 q 481 259 528 342 q 368 110 433 176 q 223 -1 303 44 q 58 -61 143 -46 l 100 136 q 194 176 149 147 q 278 244 240 204 q 342 332 315 283 q 381 432 369 381 q 385 531 392 482 q 357 619 378 579 q 303 689 336 660 q 226 729 269 718 l 268 926 q 407 867 346 911 q 506 756 468 822 q 555 608 543 690 q 547 433 567 525 z "},"*":{"ha":276,"x_min":196,"x_max":443,"o":"m 299 690 l 300 690 l 303 686 l 308 696 l 308 694 l 439 765 l 443 765 l 417 892 l 421 901 l 268 901 l 267 885 l 204 776 l 204 778 l 196 772 l 199 768 l 196 765 l 203 765 l 297 692 l 299 690 m 307 718 l 301 710 l 221 774 l 226 776 l 219 778 l 281 879 l 283 875 l 283 888 l 400 888 l 393 872 l 406 879 l 425 779 l 413 778 l 419 771 l 310 710 l 307 718 m 329 742 l 382 774 l 357 799 l 394 800 l 386 847 l 353 828 l 368 864 l 310 864 l 311 828 l 286 847 l 257 800 l 292 799 l 258 775 l 299 742 l 321 775 l 329 742 z "},"+":{"ha":600,"x_min":146,"x_max":689,"o":"m 146 332 l 314 332 l 278 163 l 447 163 l 483 332 l 653 332 l 689 501 l 519 501 l 554 669 l 385 669 l 350 501 l 182 501 l 146 332 m 363 483 l 399 653 l 533 653 l 497 483 l 668 483 l 639 349 l 468 349 l 433 181 l 299 181 l 333 349 l 167 349 l 196 483 l 363 483 m 204 379 l 371 379 l 335 211 l 410 211 l 446 379 l 614 379 l 629 453 l 461 453 l 497 622 l 422 622 l 386 453 l 219 453 l 204 379 z "},",":{"ha":375,"x_min":42,"x_max":393,"o":"m 168 -8 q 201 30 188 10 q 219 65 215 50 q 189 88 201 72 q 181 126 176 104 q 213 172 188 154 q 269 190 238 190 q 317 171 299 190 q 329 124 335 151 q 301 49 321 83 q 258 -8 282 15 l 168 -8 m 176 53 q 142 12 163 35 q 90 -40 121 -11 l 268 -40 q 329 38 304 -4 q 364 124 354 81 q 363 161 368 143 q 344 192 357 179 q 315 214 332 206 q 276 222 297 222 q 195 194 232 222 q 150 126 158 167 q 153 85 146 104 q 176 53 161 67 m 42 -58 q 108 6 82 -19 q 144 46 133 31 q 129 126 119 78 q 182 208 140 176 q 281 239 224 239 q 363 205 333 239 q 383 124 393 171 q 345 28 372 75 q 274 -58 318 -19 l 42 -58 z "},"-":{"ha":600,"x_min":146,"x_max":689,"o":"m 146 332 l 653 332 l 689 501 l 182 501 l 146 332 m 668 483 l 639 349 l 167 349 l 196 483 l 668 483 m 204 379 l 614 379 l 629 453 l 219 453 l 204 379 z "},".":{"ha":332,"x_min":94,"x_max":353,"o":"m 157 118 q 186 166 164 147 q 236 185 208 185 q 281 166 265 185 q 290 118 297 147 q 260 69 283 88 q 208 50 238 50 q 165 69 181 50 q 157 118 150 88 m 124 118 q 137 45 114 74 q 201 17 160 17 q 279 45 244 17 q 324 118 314 74 q 310 189 333 161 q 243 217 286 217 q 167 189 201 217 q 124 118 133 161 m 106 118 q 158 203 117 171 q 247 236 199 236 q 326 203 299 236 q 342 118 353 171 q 290 31 331 65 q 197 -3 249 -3 q 122 31 149 -3 q 106 118 94 65 z "},"/":{"ha":576,"x_min":18,"x_max":803,"o":"m 213 0 l 803 867 l 607 867 l 18 0 l 213 0 m 47 18 l 614 849 l 771 849 l 206 18 l 47 18 m 194 53 l 713 814 l 625 814 l 108 53 l 194 53 z "},":":{"ha":328,"x_min":88,"x_max":435,"o":"m 150 118 q 179 166 157 147 q 229 185 201 185 q 274 166 258 185 q 283 118 290 147 q 253 69 276 88 q 201 50 231 50 q 158 69 174 50 q 150 118 143 88 m 117 118 q 130 45 107 74 q 194 17 153 17 q 272 45 238 17 q 317 118 307 74 q 303 189 326 161 q 236 217 279 217 q 160 189 194 217 q 117 118 126 161 m 99 118 q 151 203 110 171 q 240 236 192 236 q 319 203 292 236 q 335 118 346 171 q 283 31 324 65 q 190 -3 242 -3 q 115 31 142 -3 q 99 118 88 65 m 239 535 q 268 583 246 564 q 318 601 290 601 q 363 583 347 601 q 372 535 379 564 q 342 485 365 504 q 289 467 318 467 q 247 485 261 467 q 239 535 232 504 m 206 535 q 218 462 196 490 q 282 433 240 433 q 360 462 325 433 q 406 535 396 490 q 392 606 415 578 q 325 633 368 633 q 249 606 283 633 q 206 535 215 578 m 188 535 q 206 583 193 561 q 239 619 219 604 q 281 644 258 635 q 329 653 304 653 q 408 620 381 653 q 424 535 435 588 q 404 486 418 508 q 371 448 390 464 q 327 423 351 432 q 278 414 303 414 q 203 448 229 414 q 188 535 176 482 z "},";":{"ha":372,"x_min":42,"x_max":481,"o":"m 285 535 q 314 583 292 564 q 364 601 336 601 q 409 583 393 601 q 418 535 425 564 q 388 485 411 504 q 335 467 364 467 q 292 485 307 467 q 285 535 278 504 m 251 535 q 264 462 242 490 q 328 433 286 433 q 406 462 371 433 q 451 535 442 490 q 438 606 461 578 q 371 633 414 633 q 295 606 329 633 q 251 535 261 578 m 233 535 q 252 583 239 561 q 285 619 265 604 q 327 644 304 635 q 375 653 350 653 q 453 620 426 653 q 469 535 481 588 q 450 486 464 508 q 417 448 436 464 q 373 423 397 432 q 324 414 349 414 q 249 448 275 414 q 233 535 222 482 m 168 -8 q 201 30 188 10 q 219 65 215 50 q 189 88 201 72 q 181 126 176 104 q 213 172 188 154 q 269 190 238 190 q 317 171 299 190 q 329 124 335 151 q 301 49 321 83 q 258 -8 282 15 l 168 -8 m 176 53 q 142 12 163 35 q 90 -40 121 -11 l 268 -40 q 329 38 304 -4 q 364 124 354 81 q 363 161 368 143 q 344 192 357 179 q 315 214 332 206 q 276 222 297 222 q 195 194 232 222 q 150 126 158 167 q 153 85 146 104 q 176 53 161 67 m 42 -58 q 108 6 82 -19 q 144 46 133 31 q 129 126 119 78 q 182 208 140 176 q 281 239 224 239 q 363 205 333 239 q 383 124 393 171 q 345 28 372 75 q 274 -58 318 -19 l 42 -58 z "},"<":{"ha":368,"x_min":135,"x_max":579,"o":"m 421 814 l 499 814 l 263 429 l 336 53 l 258 53 l 182 429 l 421 814 m 233 18 l 374 18 l 293 429 l 550 849 l 410 849 l 153 429 l 233 18 m 404 867 l 579 867 l 311 429 l 396 0 l 221 0 l 135 431 l 404 867 z "},"=":{"ha":600,"x_min":117,"x_max":689,"o":"m 117 199 l 624 199 l 657 350 l 150 350 l 117 199 m 150 353 l 657 353 l 689 503 l 182 503 l 150 353 m 164 335 l 636 335 l 611 215 l 139 215 l 164 335 m 197 488 l 669 488 l 644 369 l 172 369 l 197 488 m 175 240 l 585 240 l 599 307 l 189 307 l 175 240 m 207 394 l 617 394 l 631 460 l 221 460 l 207 394 z "},">":{"ha":368,"x_min":21,"x_max":465,"o":"m 264 814 l 343 814 l 417 429 l 181 53 l 101 53 l 336 429 l 264 814 m 50 18 l 189 18 l 447 429 l 367 849 l 226 849 l 304 429 l 50 18 m 21 0 l 286 429 l 206 867 l 382 867 l 465 431 l 196 0 l 21 0 z "},"?":{"ha":839,"x_min":147,"x_max":969,"o":"m 210 118 q 239 166 217 147 q 289 185 261 185 q 334 166 318 185 q 343 118 350 147 q 313 69 336 88 q 261 50 290 50 q 218 69 233 50 q 210 118 203 88 m 267 294 l 274 329 q 362 433 306 392 q 481 474 418 474 l 464 390 q 404 368 428 383 q 364 329 381 353 l 357 294 l 267 294 m 176 118 q 190 45 167 74 q 254 17 213 17 q 332 45 297 17 q 376 118 367 74 q 363 189 386 161 q 296 217 339 217 q 220 189 254 217 q 176 118 186 161 m 228 260 l 383 260 l 396 319 q 432 346 410 335 q 490 364 454 357 l 521 508 q 433 494 475 508 q 355 458 392 481 q 290 403 318 435 q 243 335 261 371 l 228 260 m 158 118 q 210 203 169 171 q 300 236 251 236 q 378 203 351 236 q 394 118 406 171 q 342 31 383 65 q 250 -3 301 -3 q 174 31 201 -3 q 158 118 147 65 m 206 242 l 225 335 q 278 412 246 376 q 353 472 311 447 q 443 512 394 497 q 544 526 492 526 l 506 347 q 447 332 469 340 q 413 313 424 324 l 397 242 l 206 242 m 288 735 l 306 814 l 765 814 q 833 799 803 814 q 883 756 864 783 q 909 690 903 729 q 906 603 915 650 q 874 522 897 560 q 820 455 851 483 q 751 410 789 426 q 676 393 714 393 l 694 475 q 776 519 747 486 q 817 603 806 553 q 805 698 829 661 q 717 735 781 735 l 288 735 m 279 849 l 247 701 l 710 701 q 775 674 757 701 q 783 603 793 647 q 748 539 776 565 q 668 501 719 513 l 638 360 q 738 379 688 360 q 828 432 788 399 q 899 510 869 465 q 939 603 928 554 q 943 703 951 658 q 911 781 935 749 q 851 831 888 813 q 772 849 815 849 l 279 849 m 225 682 l 265 867 l 776 867 q 863 848 824 867 q 928 794 903 829 q 961 711 953 760 q 957 603 969 663 q 913 502 946 550 q 833 418 881 454 q 730 361 786 382 q 615 340 674 340 l 653 518 q 765 603 751 539 q 758 660 772 639 q 706 682 743 682 l 225 682 z "},"@":{"ha":1032,"x_min":149,"x_max":1132,"o":"m 1082 307 l 1111 444 q 1111 627 1132 543 q 1038 772 1090 711 q 906 868 985 833 q 735 903 828 903 q 543 867 636 903 q 374 767 450 831 q 244 619 297 704 q 169 439 190 535 q 167 258 149 343 q 235 111 185 174 q 362 12 285 49 q 538 -25 439 -25 q 769 35 653 -25 q 985 194 885 94 l 853 307 l 1082 307 m 394 439 q 434 533 406 489 q 503 610 463 576 q 591 662 543 643 q 689 681 639 681 q 814 626 761 681 q 890 489 867 572 l 728 489 q 695 517 713 507 q 657 528 678 528 q 586 502 618 528 q 546 440 554 476 q 560 376 539 404 q 618 349 581 349 q 690 376 657 349 q 731 440 724 404 l 740 481 l 942 481 q 926 577 943 532 q 876 656 908 622 q 797 708 843 689 q 697 728 751 728 q 578 705 636 728 q 473 642 521 682 q 391 551 425 603 q 344 440 357 499 q 344 330 332 382 q 388 238 357 278 q 467 175 419 199 q 576 151 515 151 q 714 186 643 151 q 847 283 785 221 l 954 190 q 756 47 863 100 q 542 -6 649 -6 q 373 29 447 -6 q 251 124 299 64 q 187 266 204 185 q 189 439 169 347 q 260 612 208 531 q 385 753 313 693 q 547 849 458 814 q 731 885 636 885 q 895 851 819 885 q 1021 759 971 818 q 1091 619 1071 700 q 1092 444 1111 539 l 1067 326 l 826 326 q 722 234 783 268 q 588 200 660 200 q 497 219 538 200 q 431 270 457 238 q 394 347 404 303 q 394 439 383 390 m 428 439 q 428 359 419 397 q 459 293 436 321 q 516 249 482 265 q 593 232 550 232 q 718 267 660 232 q 810 360 776 301 l 1040 360 l 1058 444 q 1058 606 1076 532 q 993 735 1040 681 q 876 819 946 789 q 724 850 807 850 q 553 817 636 850 q 403 729 471 785 q 288 599 336 674 q 222 439 240 524 q 220 279 204 354 q 280 149 236 204 q 392 60 324 93 q 549 28 461 28 q 742 71 650 28 q 906 185 833 114 l 843 238 q 715 150 786 183 q 569 117 644 117 q 449 143 503 117 q 360 215 394 169 q 311 318 325 260 q 311 440 297 376 q 363 563 325 504 q 455 665 401 621 q 573 735 508 708 q 704 761 638 761 q 824 736 769 761 q 915 668 878 711 q 969 568 953 625 q 972 447 985 511 l 765 447 l 764 440 q 744 392 758 415 q 710 353 731 369 q 663 326 689 336 q 611 315 638 315 q 565 326 586 315 q 531 353 544 336 q 513 392 518 369 q 513 440 507 415 q 533 488 518 465 q 567 526 547 510 q 613 553 588 543 q 664 563 638 563 q 712 551 690 563 q 747 522 733 540 l 843 522 q 788 611 829 576 q 682 646 746 646 q 597 630 639 646 q 522 585 556 614 q 463 519 488 557 q 428 439 438 482 m 375 439 q 375 339 364 386 q 415 256 386 292 q 486 201 443 221 q 583 181 529 181 q 723 215 658 181 q 833 307 788 250 l 847 307 q 711 206 781 243 q 581 169 642 169 q 478 192 524 169 q 404 251 433 214 q 363 338 375 289 q 363 440 351 388 q 406 543 374 494 q 483 628 438 592 q 582 687 528 665 q 693 708 636 708 q 781 692 740 708 q 853 648 822 676 q 902 581 883 619 q 924 500 921 543 l 908 500 q 821 642 876 588 q 693 697 765 697 q 587 677 639 697 q 492 622 535 657 q 417 540 449 588 q 375 439 386 493 m 622 368 q 576 390 593 368 q 565 440 560 413 q 597 489 572 468 q 653 510 622 510 q 684 499 668 510 q 715 469 700 488 l 718 469 l 711 440 q 680 390 706 413 q 622 368 654 368 z "},"A":{"ha":949,"x_min":19,"x_max":997,"o":"m 997 0 l 714 978 l 19 0 l 756 0 l 669 186 l 364 186 l 624 553 l 779 0 l 997 0 m 333 167 l 656 167 l 724 18 l 53 18 l 704 938 l 971 18 l 794 18 l 632 594 l 333 167 m 924 53 l 689 861 l 115 53 l 667 53 l 629 133 l 269 133 l 649 672 l 824 53 l 924 53 z "},"B":{"ha":857,"x_min":85,"x_max":985,"o":"m 546 526 l 726 526 q 760 559 746 542 q 776 590 774 576 q 774 652 783 622 q 738 682 765 682 l 417 682 l 311 185 l 635 185 q 660 193 647 185 q 682 215 672 201 q 699 244 692 228 q 710 276 707 260 q 706 309 713 292 q 688 342 700 326 l 506 342 l 546 526 m 560 507 l 528 360 l 700 360 q 725 320 717 343 q 728 276 733 297 q 715 238 724 257 q 694 203 707 218 q 666 177 682 188 q 632 167 650 167 l 290 167 l 403 700 l 742 700 q 772 690 760 700 q 791 664 785 679 q 798 628 797 649 q 794 590 799 608 q 774 547 790 569 q 733 507 757 524 l 560 507 m 585 474 l 735 474 q 794 528 768 494 q 828 590 821 561 q 831 641 833 615 q 819 688 829 667 q 792 722 810 708 q 749 735 774 735 l 376 735 l 249 132 l 624 132 q 673 145 650 132 q 713 179 696 158 q 743 226 731 200 q 761 276 756 251 q 755 340 768 307 q 717 394 742 372 l 568 394 l 585 474 m 147 53 l 310 814 l 782 814 q 849 797 819 814 q 898 749 879 779 q 923 677 917 718 q 919 589 929 636 q 876 496 908 536 q 815 431 844 456 q 849 366 833 406 q 854 278 864 326 q 819 190 843 231 q 764 118 796 149 q 694 70 732 88 q 619 53 657 53 l 147 53 m 283 849 l 107 18 l 613 18 q 701 38 657 18 q 782 94 744 58 q 847 176 819 129 q 888 278 875 224 q 885 362 897 324 q 857 429 874 400 q 915 500 888 460 q 953 589 942 540 q 956 690 964 643 q 926 773 949 738 q 869 828 904 808 q 789 849 833 849 l 283 849 m 85 0 l 269 867 l 793 867 q 881 845 842 867 q 944 786 919 824 q 976 698 968 749 q 972 589 985 647 q 935 501 961 540 q 882 431 910 461 q 907 363 897 401 q 907 278 917 325 q 865 169 894 219 q 794 81 835 118 q 705 22 753 43 q 608 0 657 0 l 85 0 z "},"C":{"ha":919,"x_min":142,"x_max":1046,"o":"m 214 433 q 276 584 231 514 q 384 706 321 654 q 524 789 447 758 q 681 819 600 819 q 788 802 739 819 q 877 755 838 785 q 944 683 917 725 q 983 592 971 642 l 904 546 q 821 681 885 628 q 664 735 757 735 q 542 710 601 735 q 432 643 482 685 q 346 547 382 601 q 297 432 310 492 q 297 318 285 372 q 342 223 310 264 q 424 158 374 182 q 535 133 474 133 q 701 177 619 133 q 838 292 782 221 l 885 229 q 720 98 815 147 q 517 49 625 49 q 372 79 436 49 q 268 162 308 110 q 213 284 228 214 q 214 433 197 354 m 179 433 q 178 272 161 347 q 239 139 194 196 q 353 49 283 82 q 510 15 422 15 q 733 75 624 15 q 926 233 842 135 l 839 346 q 697 216 776 264 q 543 168 618 168 q 443 189 488 168 q 369 246 399 210 q 329 330 340 282 q 329 432 318 378 q 372 535 340 486 q 449 620 404 583 q 547 678 493 657 q 657 700 601 700 q 734 685 699 700 q 798 642 769 669 q 847 578 826 615 q 878 499 867 542 l 1024 579 q 976 689 1007 639 q 902 775 944 739 q 806 832 860 811 q 689 853 751 853 q 517 819 601 853 q 365 729 433 786 q 247 596 296 672 q 179 433 197 519 m 161 433 q 231 603 181 524 q 354 742 282 683 q 513 836 426 801 q 692 871 600 871 q 815 849 757 871 q 918 787 872 826 q 997 692 964 747 q 1046 572 1029 638 l 865 469 q 834 554 854 515 q 786 622 814 593 q 724 666 758 650 q 653 682 690 682 q 551 661 601 682 q 460 606 501 640 q 388 527 418 572 q 349 432 358 482 q 348 339 338 383 q 385 260 358 294 q 453 206 413 226 q 546 186 494 186 q 697 239 617 186 q 843 379 776 292 l 951 236 q 744 62 860 128 q 506 -4 628 -4 q 342 31 414 -4 q 223 124 269 65 q 159 263 176 183 q 161 433 142 343 z "},"D":{"ha":890,"x_min":85,"x_max":997,"o":"m 419 679 l 314 186 l 490 186 q 585 206 536 186 q 677 258 635 225 q 750 336 719 292 q 792 429 781 381 q 792 524 801 479 q 756 603 782 569 q 688 658 729 638 q 596 679 647 679 l 419 679 m 600 699 q 699 676 656 699 q 772 617 743 654 q 810 532 800 581 q 810 429 821 483 q 765 328 799 375 q 686 244 732 281 q 588 188 640 208 q 488 167 536 167 l 292 167 l 404 699 l 600 699 m 378 732 l 250 133 l 479 133 q 594 157 535 133 q 704 222 653 181 q 793 316 756 263 q 843 429 831 369 q 843 544 856 489 q 799 640 831 599 q 717 707 767 682 q 607 732 668 732 l 378 732 m 147 53 l 310 814 l 625 814 q 767 784 704 814 q 872 702 831 754 q 927 580 913 650 q 925 431 942 510 q 861 282 908 351 q 750 162 814 213 q 611 82 686 111 q 464 53 536 53 l 147 53 m 283 849 l 107 18 l 457 18 q 617 50 535 18 q 769 138 699 82 q 890 269 839 194 q 960 431 942 344 q 961 592 978 517 q 900 725 944 668 q 787 815 856 782 q 632 849 718 849 l 283 849 m 85 0 l 269 867 l 636 867 q 799 833 726 867 q 917 739 871 799 q 980 600 963 679 q 978 431 997 521 q 905 262 958 340 q 778 125 851 183 q 620 33 706 67 q 453 0 535 0 l 85 0 z "},"E":{"ha":763,"x_min":82,"x_max":926,"o":"m 82 0 l 742 0 l 781 185 l 306 185 l 411 682 l 886 682 l 926 867 l 267 867 l 82 0 m 285 167 l 760 167 l 728 18 l 104 18 l 281 849 l 904 849 l 872 700 l 397 700 l 285 167 m 144 53 l 703 53 l 719 132 l 244 132 l 372 735 l 847 735 l 865 814 l 307 814 l 144 53 m 839 504 l 386 504 l 347 319 l 800 319 l 839 504 m 400 486 l 817 486 l 786 339 l 369 339 l 400 486 m 778 451 l 425 451 l 408 372 l 761 372 l 778 451 z "},"F":{"ha":763,"x_min":82,"x_max":926,"o":"m 82 0 l 267 0 l 411 682 l 886 682 l 926 867 l 267 867 l 82 0 m 253 18 l 104 18 l 281 849 l 904 849 l 872 700 l 397 700 l 253 18 m 144 53 l 228 53 l 372 735 l 847 735 l 865 814 l 307 814 l 144 53 m 839 504 l 383 504 l 344 319 l 800 319 l 839 504 m 397 486 l 817 486 l 786 339 l 367 339 l 397 486 m 778 451 l 422 451 l 406 372 l 761 372 l 778 451 z "},"G":{"ha":919,"x_min":142,"x_max":1046,"o":"m 990 506 l 926 506 l 1046 572 q 997 692 1029 638 q 918 787 964 747 q 815 849 872 826 q 692 871 757 871 q 513 836 600 871 q 354 742 426 801 q 231 603 282 683 q 161 433 181 524 q 159 263 142 343 q 223 124 176 183 q 342 31 269 65 q 506 -4 414 -4 q 744 62 628 -4 q 951 236 860 128 l 888 319 l 951 319 l 990 506 m 510 15 q 353 49 422 15 q 239 139 283 82 q 178 272 194 196 q 179 433 161 347 q 247 596 197 519 q 365 729 296 672 q 517 819 433 786 q 689 853 601 853 q 806 832 751 853 q 902 775 860 811 q 976 689 944 739 q 1024 579 1007 639 l 878 499 q 847 578 867 542 q 798 642 826 615 q 734 685 769 669 q 657 700 699 700 q 547 678 601 700 q 449 620 493 657 q 372 535 404 583 q 329 432 340 486 q 329 330 318 378 q 369 246 340 282 q 443 189 399 210 q 543 168 488 168 q 694 215 617 168 q 835 339 772 261 l 504 339 l 535 486 l 967 486 l 936 339 l 844 339 l 926 233 q 733 75 842 135 q 510 15 624 15 m 214 433 q 213 284 197 354 q 268 162 228 214 q 372 79 308 110 q 517 49 436 49 q 720 98 625 49 q 885 229 815 147 l 838 292 q 701 177 782 221 q 535 133 619 133 q 424 158 474 133 q 342 223 374 182 q 297 318 310 264 q 297 432 285 372 q 346 547 310 492 q 432 643 382 601 q 542 710 482 685 q 664 735 601 735 q 821 681 757 735 q 904 546 885 628 l 983 592 q 944 683 971 642 q 877 755 917 725 q 788 802 838 785 q 681 819 739 819 q 524 789 600 819 q 384 706 447 758 q 276 584 321 654 q 214 433 231 514 m 546 186 q 453 206 494 186 q 385 260 413 226 q 348 339 358 294 q 349 432 338 383 q 388 527 358 482 q 460 606 418 572 q 551 661 501 640 q 653 682 601 682 q 774 632 721 682 q 853 506 826 582 l 521 506 l 482 319 l 790 319 q 667 222 732 257 q 546 186 603 186 m 926 453 l 561 453 l 544 372 l 910 372 l 926 453 z "},"H":{"ha":906,"x_min":85,"x_max":1071,"o":"m 275 0 l 343 319 l 758 319 l 797 504 l 382 504 l 460 867 l 269 867 l 85 0 l 275 0 m 260 18 l 107 18 l 283 849 l 436 849 l 358 486 l 775 486 l 744 339 l 328 339 l 260 18 m 886 0 l 1071 867 l 879 867 l 694 0 l 886 0 m 893 849 l 1049 849 l 872 18 l 717 18 l 893 849 m 233 53 l 301 372 l 718 372 l 735 451 l 318 451 l 396 814 l 310 814 l 147 53 l 233 53 m 844 53 l 1007 814 l 921 814 l 758 53 l 844 53 z "},"I":{"ha":839,"x_min":81,"x_max":1008,"o":"m 306 814 l 946 814 l 928 735 l 650 735 l 522 132 l 800 132 l 783 53 l 143 53 l 160 132 l 436 132 l 564 735 l 288 735 l 306 814 m 676 700 l 954 700 l 986 849 l 279 849 l 247 700 l 524 700 l 411 167 l 135 167 l 103 18 l 810 18 l 842 167 l 564 167 l 676 700 m 265 867 l 1008 867 l 968 682 l 690 682 l 585 185 l 863 185 l 824 0 l 81 0 l 119 185 l 396 185 l 501 682 l 225 682 l 265 867 z "},"J":{"ha":976,"x_min":153,"x_max":1142,"o":"m 299 394 q 310 292 294 340 q 360 209 326 244 q 440 153 393 174 q 544 133 488 133 q 657 153 601 133 q 760 209 713 174 q 843 292 807 244 q 899 393 879 339 l 989 815 l 1078 815 l 996 431 q 933 281 979 351 q 824 160 888 211 q 684 78 761 108 q 526 49 607 49 q 388 75 450 49 q 285 148 326 101 q 223 258 243 194 q 211 394 203 321 l 299 394 m 553 167 q 460 187 501 167 q 389 242 418 207 q 346 326 360 278 q 336 429 332 374 l 182 429 q 193 266 172 342 q 259 135 214 190 q 371 47 304 79 q 519 15 438 15 q 691 48 607 15 q 844 137 775 81 q 962 269 913 193 q 1029 431 1011 344 l 1118 849 l 963 849 l 867 399 q 817 308 850 350 q 743 234 785 265 q 653 185 701 203 q 553 167 604 167 m 356 447 q 365 344 351 392 q 405 262 378 297 q 470 206 432 226 q 556 186 508 186 q 649 203 603 186 q 733 249 694 219 q 802 317 772 278 q 847 400 832 356 l 947 867 l 1142 867 l 1049 431 q 978 261 1029 340 q 854 123 926 182 q 694 30 782 64 q 515 -4 607 -4 q 360 31 429 -4 q 243 126 290 65 q 174 269 196 186 q 164 447 153 351 l 356 447 z "},"K":{"ha":917,"x_min":85,"x_max":1142,"o":"m 951 814 l 1047 814 l 779 429 l 885 53 l 790 53 l 682 429 l 951 814 m 307 390 l 235 53 l 149 53 l 311 814 l 397 814 l 324 469 l 582 469 l 565 390 l 307 390 m 644 429 l 761 18 l 932 18 l 817 429 l 1108 849 l 936 849 l 644 429 m 592 357 l 622 504 l 364 504 l 438 849 l 285 849 l 108 18 l 261 18 l 333 357 l 592 357 m 349 338 l 276 0 l 85 0 l 269 867 l 461 867 l 388 522 l 644 522 l 625 433 l 929 867 l 1142 867 l 838 429 l 958 0 l 746 0 l 624 428 l 606 338 l 349 338 z "},"L":{"ha":758,"x_min":82,"x_max":781,"o":"m 82 0 l 742 0 l 781 185 l 306 185 l 451 867 l 267 867 l 82 0 m 281 849 l 429 849 l 285 167 l 760 167 l 728 18 l 104 18 l 281 849 m 144 53 l 703 53 l 719 132 l 244 132 l 390 814 l 307 814 l 144 53 z "},"M":{"ha":1246,"x_min":21,"x_max":1296,"o":"m 1074 0 l 1296 0 l 1022 965 l 789 632 l 696 964 l 21 0 l 242 0 l 600 514 l 694 182 l 929 515 l 1074 0 m 938 558 l 703 225 l 608 558 l 233 18 l 56 18 l 686 922 l 779 590 l 1013 922 l 1269 18 l 1090 18 l 938 558 m 1119 53 l 1219 53 l 996 842 l 764 510 l 669 842 l 118 53 l 218 53 l 626 638 l 721 304 l 956 638 l 1119 53 z "},"N":{"ha":913,"x_min":85,"x_max":1078,"o":"m 379 736 l 233 53 l 147 53 l 310 814 l 453 814 l 782 132 l 928 814 l 1015 814 l 853 53 l 717 53 l 379 736 m 694 18 l 879 18 l 1056 849 l 900 849 l 769 235 l 476 849 l 283 849 l 107 18 l 261 18 l 392 635 l 694 18 m 397 574 l 275 0 l 85 0 l 269 867 l 492 867 l 764 296 l 886 867 l 1078 867 l 893 0 l 679 0 l 397 574 z "},"O":{"ha":954,"x_min":142,"x_max":1061,"o":"m 350 432 q 350 339 339 383 q 388 260 361 294 q 456 206 415 226 q 549 186 497 186 q 650 206 600 186 q 742 260 700 226 q 813 339 783 294 q 853 432 842 383 q 853 527 863 482 q 816 606 843 572 q 748 661 789 640 q 656 682 707 682 q 553 661 604 682 q 461 606 503 640 q 390 527 419 572 q 350 432 360 482 m 331 432 q 374 535 342 486 q 451 620 406 583 q 550 678 496 657 q 660 700 604 700 q 760 678 715 700 q 833 620 804 657 q 873 535 863 583 q 872 432 883 486 q 829 330 861 378 q 753 246 797 282 q 655 189 708 210 q 546 168 601 168 q 446 189 490 168 q 372 246 401 210 q 331 330 342 282 q 331 432 319 378 m 299 432 q 299 318 286 372 q 344 223 311 264 q 426 158 376 182 q 538 133 475 133 q 659 158 599 133 q 770 223 719 182 q 857 318 821 264 q 906 432 893 372 q 906 547 918 492 q 860 643 893 601 q 778 710 828 685 q 667 735 728 735 q 544 710 604 735 q 433 643 483 685 q 347 547 383 601 q 299 432 311 492 m 214 433 q 276 584 231 514 q 385 706 321 654 q 525 789 449 758 q 683 819 601 819 q 828 789 764 819 q 934 706 893 758 q 990 584 975 654 q 989 433 1006 514 q 927 284 972 354 q 818 162 882 214 q 677 79 754 110 q 519 49 600 49 q 374 79 438 49 q 269 162 310 110 q 213 284 228 214 q 214 433 197 354 m 181 433 q 179 272 163 347 q 240 139 196 196 q 355 49 285 82 q 513 15 425 15 q 684 49 600 15 q 838 139 768 82 q 956 272 907 196 q 1024 433 1006 347 q 1025 596 1042 519 q 963 729 1008 672 q 849 819 918 786 q 692 853 779 853 q 520 819 604 853 q 367 729 436 786 q 248 596 297 672 q 181 433 199 519 m 161 433 q 232 603 181 524 q 355 742 283 683 q 515 836 426 801 q 694 871 603 871 q 859 836 786 871 q 979 742 932 801 q 1044 603 1026 683 q 1042 433 1061 524 q 972 263 1022 343 q 848 124 921 183 q 688 31 775 65 q 508 -4 600 -4 q 344 31 417 -4 q 224 124 271 65 q 159 263 176 183 q 161 433 142 343 z "},"P":{"ha":857,"x_min":85,"x_max":985,"o":"m 147 53 l 310 814 l 782 814 q 849 797 819 814 q 898 749 879 779 q 923 677 917 718 q 919 589 929 636 q 888 507 911 546 q 834 438 865 468 q 765 390 803 408 q 690 372 728 372 l 564 372 l 581 451 l 693 451 q 744 465 721 451 q 784 498 767 478 q 813 542 801 518 q 829 589 825 567 q 833 638 835 613 q 820 685 831 664 q 792 721 810 707 q 749 735 775 735 l 376 735 l 232 53 l 147 53 m 283 849 l 107 18 l 258 18 l 403 700 l 742 700 q 772 690 760 700 q 792 663 785 679 q 799 627 799 647 q 796 589 800 607 q 785 556 793 574 q 765 522 776 538 q 736 497 753 507 q 700 486 719 486 l 554 486 l 524 339 l 683 339 q 772 360 728 339 q 852 415 815 381 q 915 495 889 450 q 953 589 942 540 q 956 690 964 643 q 926 773 949 738 q 869 828 904 808 q 789 849 833 849 l 283 849 m 85 0 l 269 867 l 793 867 q 881 845 842 867 q 944 786 919 824 q 976 698 968 749 q 972 589 985 647 q 932 488 961 536 q 863 401 903 439 q 775 342 822 364 q 679 319 728 319 l 501 319 l 540 504 l 704 504 q 731 513 718 504 q 753 533 743 521 q 769 560 763 546 q 778 589 775 575 q 781 621 782 604 q 776 651 781 638 q 761 673 771 664 q 738 682 751 682 l 417 682 l 272 0 l 85 0 z "},"Q":{"ha":954,"x_min":142,"x_max":1061,"o":"m 350 432 q 350 338 339 382 q 388 260 361 293 q 456 206 415 226 q 549 186 497 186 q 650 206 600 186 q 742 260 700 226 q 813 338 783 293 q 853 432 842 382 q 853 526 863 482 q 816 606 843 571 q 748 660 789 640 q 656 681 707 681 q 553 660 604 681 q 461 606 503 640 q 390 526 419 571 q 350 432 360 482 m 331 432 q 374 535 342 486 q 451 620 406 583 q 550 678 496 657 q 660 700 604 700 q 760 678 715 700 q 833 620 804 657 q 873 535 863 583 q 872 432 883 486 q 829 330 861 378 q 753 246 797 282 q 655 189 708 210 q 546 168 601 168 q 446 189 490 168 q 372 246 401 210 q 331 330 342 282 q 331 432 319 378 m 299 432 q 299 318 286 372 q 344 223 311 264 q 426 158 376 182 q 538 133 475 133 q 659 158 599 133 q 770 223 719 182 q 857 318 821 264 q 906 432 893 372 q 906 547 918 492 q 860 643 893 601 q 778 709 828 685 q 667 733 728 733 q 544 709 604 733 q 433 643 483 685 q 347 547 383 601 q 299 432 311 492 m 214 433 q 276 583 231 513 q 385 705 321 653 q 525 788 449 757 q 683 818 601 818 q 828 788 764 818 q 934 705 893 757 q 990 583 975 653 q 989 433 1006 513 q 935 297 974 358 q 844 183 897 235 l 911 99 l 821 39 l 756 117 q 642 67 703 85 q 519 49 582 49 q 374 79 438 49 q 269 162 310 110 q 213 284 228 214 q 214 433 197 354 m 181 433 q 179 271 163 347 q 240 138 196 194 q 355 48 285 81 q 513 15 425 15 q 631 31 572 15 q 742 75 689 47 l 807 -4 l 961 96 l 888 186 q 973 301 938 239 q 1024 433 1008 363 q 1025 596 1042 519 q 963 729 1008 672 q 849 819 918 786 q 692 853 779 853 q 520 819 604 853 q 367 729 436 786 q 248 596 297 672 q 181 433 199 519 m 161 433 q 232 603 181 524 q 355 742 283 683 q 515 836 426 801 q 694 871 603 871 q 859 836 786 871 q 979 742 932 801 q 1044 603 1026 683 q 1042 433 1061 524 q 993 299 1026 360 q 915 188 960 239 l 989 93 l 800 -31 l 733 51 q 508 -4 625 -4 q 343 30 417 -4 q 223 124 269 64 q 159 263 176 183 q 161 433 142 343 z "},"R":{"ha":857,"x_min":85,"x_max":985,"o":"m 693 53 l 576 451 l 693 451 q 744 465 721 451 q 784 498 767 478 q 813 542 801 518 q 829 589 825 567 q 833 638 835 613 q 820 685 831 664 q 792 721 810 707 q 749 735 775 735 l 376 735 l 232 53 l 147 53 l 310 814 l 782 814 q 849 797 819 814 q 898 749 879 779 q 923 677 917 718 q 919 589 929 636 q 889 507 911 546 q 835 438 867 468 q 767 390 804 408 q 693 372 731 372 l 785 53 l 693 53 m 526 486 l 664 18 l 832 18 l 739 347 q 811 382 776 358 q 874 438 846 406 q 924 508 903 469 q 953 589 944 547 q 956 690 964 643 q 926 773 949 738 q 869 828 904 808 q 789 849 833 849 l 283 849 l 107 18 l 258 18 l 403 700 l 742 700 q 772 690 760 700 q 792 663 785 679 q 799 627 799 647 q 796 589 800 607 q 785 556 793 574 q 765 522 776 538 q 736 497 753 507 q 700 486 719 486 l 526 486 m 650 0 l 503 504 l 704 504 q 731 513 718 504 q 753 533 743 521 q 769 560 763 546 q 778 589 775 575 q 781 621 782 604 q 776 651 781 638 q 761 673 771 664 q 738 682 751 682 l 417 682 l 272 0 l 85 0 l 269 867 l 793 867 q 881 845 842 867 q 944 786 919 824 q 976 698 968 749 q 972 589 985 647 q 943 508 964 547 q 894 435 922 468 q 832 375 867 401 q 760 335 797 349 l 856 0 l 650 0 z "},"S":{"ha":847,"x_min":86,"x_max":1010,"o":"m 165 132 l 597 132 q 700 169 660 132 q 751 264 740 207 q 747 347 763 314 q 683 390 732 379 l 700 474 q 768 457 738 474 q 817 412 799 440 q 843 345 836 383 q 840 264 850 307 q 808 176 831 215 q 753 110 785 138 q 685 68 722 83 q 610 53 647 53 l 149 53 l 165 132 m 929 735 l 497 735 q 394 697 433 735 q 342 603 354 660 q 347 519 331 553 q 411 475 363 486 l 393 393 q 326 410 356 393 q 277 455 296 426 q 252 522 258 483 q 254 603 246 560 q 287 690 264 650 q 341 756 310 729 q 409 799 372 783 q 485 814 446 814 l 947 814 l 929 735 m 140 167 l 108 18 l 603 18 q 691 36 647 18 q 772 86 735 54 q 835 164 808 118 q 874 264 863 210 q 873 356 883 313 q 835 433 863 400 q 767 487 808 467 q 676 507 726 507 l 646 364 q 710 327 693 353 q 718 264 726 301 q 681 194 710 221 q 606 167 653 167 l 140 167 m 375 603 q 413 673 385 646 q 490 700 442 700 l 956 700 l 988 849 l 492 849 q 403 831 446 849 q 323 781 360 813 q 260 703 286 749 q 221 603 233 657 q 220 510 210 554 q 258 432 231 465 q 326 379 285 399 q 419 360 368 360 l 450 501 q 385 539 401 513 q 375 603 368 565 m 969 682 l 486 682 q 424 660 449 682 q 393 603 400 638 q 404 550 386 572 q 471 518 422 528 l 433 340 q 327 361 375 340 q 248 418 279 382 q 204 502 217 454 q 203 603 192 550 q 244 711 215 663 q 313 794 274 760 q 400 848 353 829 q 496 867 447 867 l 1010 867 l 969 682 m 125 185 l 608 185 q 669 207 644 185 q 700 264 693 229 q 689 316 707 294 q 624 347 671 338 l 663 526 q 769 506 721 526 q 848 449 817 485 q 892 365 879 413 q 893 264 904 317 q 851 156 881 204 q 782 72 822 107 q 694 19 742 38 q 599 0 647 0 l 86 0 l 125 185 z "},"T":{"ha":853,"x_min":225,"x_max":1022,"o":"m 306 814 l 960 814 l 942 735 l 657 735 l 513 53 l 426 53 l 571 735 l 288 735 l 306 814 m 683 700 l 968 700 l 1000 849 l 279 849 l 247 700 l 531 700 l 386 18 l 539 18 l 683 700 m 265 867 l 1022 867 l 982 682 l 697 682 l 553 0 l 364 0 l 508 682 l 225 682 l 265 867 z "},"U":{"ha":988,"x_min":158,"x_max":1153,"o":"m 313 815 l 399 815 l 308 393 q 321 292 304 339 q 371 209 338 244 q 451 153 404 174 q 556 133 499 133 q 668 153 613 133 q 771 209 724 174 q 854 292 818 244 q 910 393 890 339 l 1000 815 l 1089 815 l 1007 431 q 944 281 990 351 q 835 160 899 211 q 695 78 772 108 q 538 49 618 49 q 392 78 456 49 q 286 160 328 108 q 229 281 244 211 q 231 431 214 351 l 313 815 m 564 167 q 470 185 513 167 q 399 234 428 203 q 355 308 369 265 q 344 399 340 350 l 440 849 l 285 849 l 196 431 q 194 269 178 344 q 257 137 211 193 q 373 48 303 81 q 531 15 443 15 q 702 48 618 15 q 855 137 786 81 q 973 269 924 193 q 1040 431 1022 344 l 1129 849 l 974 849 l 878 399 q 828 308 861 350 q 754 234 796 265 q 663 185 713 203 q 564 167 614 167 m 271 867 l 463 867 l 363 400 q 372 317 358 356 q 414 249 386 278 q 481 203 442 219 q 567 186 519 186 q 660 203 614 186 q 744 249 706 219 q 813 317 783 278 q 858 400 843 356 l 958 867 l 1153 867 l 1060 431 q 989 261 1040 340 q 865 123 938 182 q 706 30 793 64 q 526 -4 618 -4 q 360 30 433 -4 q 240 123 288 64 q 176 261 193 182 q 178 431 158 340 l 271 867 z "},"V":{"ha":949,"x_min":203,"x_max":1181,"o":"m 1085 813 l 507 4 l 276 813 l 378 813 l 547 193 l 982 813 l 1085 813 m 406 846 l 228 846 l 490 -72 l 1146 846 l 968 846 l 563 271 l 406 846 m 1181 865 l 482 -112 l 203 865 l 422 865 l 572 313 l 961 865 l 1181 865 z "},"W":{"ha":1138,"x_min":88,"x_max":1304,"o":"m 468 872 l 272 872 l 88 0 l 325 0 l 718 554 l 879 0 l 1119 0 l 1304 872 l 1107 872 l 996 343 l 808 978 l 358 350 l 468 872 m 324 279 l 326 279 l 799 938 l 996 271 l 999 271 l 1124 853 l 1282 853 l 1104 18 l 893 18 l 728 599 l 317 18 l 110 18 l 288 853 l 446 853 l 324 279 m 404 819 l 314 819 l 151 53 l 303 53 l 744 676 l 924 53 l 1076 53 l 1239 819 l 1149 819 l 1001 124 l 783 861 l 258 129 l 404 819 z "},"X":{"ha":897,"x_min":25,"x_max":1122,"o":"m 283 814 l 379 814 l 485 429 l 215 53 l 121 53 l 386 429 l 283 814 m 932 814 l 1028 814 l 760 429 l 865 53 l 771 53 l 661 429 l 932 814 m 740 18 l 913 18 l 796 429 l 1089 849 l 917 849 l 621 428 l 740 18 m 58 18 l 229 18 l 522 428 l 406 849 l 235 849 l 347 429 l 58 18 m 910 867 l 1122 867 l 817 429 l 939 0 l 728 0 l 603 431 l 910 867 m 25 0 l 326 429 l 210 867 l 421 867 l 543 431 l 233 0 l 25 0 z "},"Y":{"ha":885,"x_min":189,"x_max":1133,"o":"m 442 53 l 499 319 l 276 814 l 382 814 l 563 425 l 915 814 l 1022 814 l 589 326 l 531 53 l 442 53 m 401 18 l 557 18 l 619 317 l 1092 849 l 906 849 l 575 485 l 406 849 l 219 849 l 463 310 l 401 18 m 379 0 l 443 303 l 189 867 l 419 867 l 582 518 l 900 867 l 1133 867 l 636 308 l 571 0 l 379 0 z "},"Z":{"ha":863,"x_min":29,"x_max":1083,"o":"m 142 53 l 786 735 l 288 735 l 306 814 l 969 814 l 324 132 l 821 132 l 804 53 l 142 53 m 68 18 l 831 18 l 863 167 l 397 167 l 1042 849 l 279 849 l 247 700 l 714 700 l 68 18 m 29 0 l 671 682 l 225 682 l 265 867 l 1083 867 l 438 185 l 883 185 l 844 0 l 29 0 z "},"[":{"ha":467,"x_min":64,"x_max":643,"o":"m 64 -46 l 438 -46 l 478 142 l 269 142 l 396 736 l 604 736 l 643 924 l 269 924 l 64 -46 m 249 122 l 457 122 l 425 -26 l 85 -26 l 282 904 l 622 904 l 592 756 l 383 756 l 249 122 m 119 7 l 403 7 l 419 88 l 213 88 l 363 790 l 569 790 l 586 871 l 303 871 l 119 7 z "},"\\":{"ha":589,"x_min":208,"x_max":624,"o":"m 468 53 l 276 814 l 363 814 l 556 53 l 468 53 m 231 849 l 443 18 l 600 18 l 388 849 l 231 849 m 429 0 l 208 867 l 403 867 l 624 0 l 429 0 z "},"]":{"ha":467,"x_min":61,"x_max":640,"o":"m 400 7 l 115 7 l 132 88 l 340 88 l 490 790 l 282 790 l 299 871 l 583 871 l 400 7 m 114 122 l 82 -26 l 422 -26 l 619 904 l 279 904 l 249 756 l 454 756 l 319 122 l 114 122 m 435 -46 l 61 -46 l 101 142 l 310 142 l 436 736 l 228 736 l 267 924 l 640 924 l 435 -46 z "},"^":{"ha":949,"x_min":19,"x_max":997,"o":"m 997 0 l 714 978 l 19 0 l 236 0 l 624 553 l 779 0 l 997 0 m 228 18 l 53 18 l 704 938 l 971 18 l 794 18 l 632 594 l 228 18 m 924 53 l 689 861 l 115 53 l 214 53 l 649 672 l 824 53 l 924 53 z "},"_":{"ha":794,"x_min":71,"x_max":803,"o":"m 71 -12 l 781 -12 l 803 89 l 93 89 l 71 -12 m 108 78 l 782 78 l 765 -1 l 92 -1 l 108 78 m 128 11 l 735 11 l 746 65 l 139 65 l 128 11 z "},"`":{"ha":196,"x_min":174,"x_max":415,"o":"m 296 953 l 361 875 l 299 832 l 232 907 l 296 953 m 197 908 l 292 807 l 393 874 l 301 981 l 197 908 m 307 1003 l 415 872 l 286 785 l 174 908 l 307 1003 z "},"a":{"ha":949,"x_min":18,"x_max":996,"o":"m 114 53 l 693 861 l 922 53 l 371 53 l 442 133 l 800 133 l 653 672 l 214 53 l 114 53 m 299 18 l 971 18 l 708 938 l 51 18 l 228 18 l 636 594 l 754 167 l 433 167 l 299 18 m 18 0 l 718 978 l 996 0 l 258 0 l 425 186 l 726 186 l 626 553 l 236 0 l 18 0 z "},"b":{"ha":857,"x_min":85,"x_max":985,"o":"m 546 526 l 726 526 q 760 559 746 542 q 776 590 774 576 q 774 652 783 622 q 738 682 765 682 l 417 682 l 311 185 l 635 185 q 660 193 647 185 q 682 215 672 201 q 699 244 692 228 q 710 276 707 260 q 706 309 713 292 q 688 342 700 326 l 506 342 l 546 526 m 560 507 l 528 360 l 700 360 q 725 320 717 343 q 728 276 733 297 q 715 238 724 257 q 694 203 707 218 q 666 177 682 188 q 632 167 650 167 l 290 167 l 403 700 l 742 700 q 772 690 760 700 q 791 664 785 679 q 798 628 797 649 q 794 590 799 608 q 774 547 790 569 q 733 507 757 524 l 560 507 m 585 474 l 735 474 q 794 528 768 494 q 828 590 821 561 q 831 641 833 615 q 819 688 829 667 q 792 722 810 708 q 749 735 774 735 l 376 735 l 249 132 l 624 132 q 673 145 650 132 q 713 179 696 158 q 743 226 731 200 q 761 276 756 251 q 755 340 768 307 q 717 394 742 372 l 568 394 l 585 474 m 147 53 l 310 814 l 782 814 q 849 797 819 814 q 898 749 879 779 q 923 677 917 718 q 919 589 929 636 q 876 496 908 536 q 815 431 844 456 q 849 366 833 406 q 854 278 864 326 q 819 190 843 231 q 764 118 796 149 q 694 70 732 88 q 619 53 657 53 l 147 53 m 283 849 l 107 18 l 613 18 q 701 38 657 18 q 782 94 744 58 q 847 176 819 129 q 888 278 875 224 q 885 362 897 324 q 857 429 874 400 q 915 500 888 460 q 953 589 942 540 q 956 690 964 643 q 926 773 949 738 q 869 828 904 808 q 789 849 833 849 l 283 849 m 85 0 l 269 867 l 793 867 q 881 845 842 867 q 944 786 919 824 q 976 698 968 749 q 972 589 985 647 q 935 501 961 540 q 882 431 910 461 q 907 363 897 401 q 907 278 917 325 q 865 169 894 219 q 794 81 835 118 q 705 22 753 43 q 608 0 657 0 l 85 0 z "},"c":{"ha":919,"x_min":142,"x_max":1046,"o":"m 214 433 q 276 584 231 514 q 384 706 321 654 q 524 789 447 758 q 681 819 600 819 q 788 802 739 819 q 877 755 838 785 q 944 683 917 725 q 983 592 971 642 l 904 546 q 821 681 885 628 q 664 735 757 735 q 542 710 601 735 q 432 643 482 685 q 346 547 382 601 q 297 432 310 492 q 297 318 285 372 q 342 223 310 264 q 424 158 374 182 q 535 133 474 133 q 701 177 619 133 q 838 292 782 221 l 885 229 q 720 98 815 147 q 517 49 625 49 q 372 79 436 49 q 268 162 308 110 q 213 284 228 214 q 214 433 197 354 m 179 433 q 178 272 161 347 q 239 139 194 196 q 353 49 283 82 q 510 15 422 15 q 733 75 624 15 q 926 233 842 135 l 839 346 q 697 216 776 264 q 543 168 618 168 q 443 189 488 168 q 369 246 399 210 q 329 330 340 282 q 329 432 318 378 q 372 535 340 486 q 449 620 404 583 q 547 678 493 657 q 657 700 601 700 q 734 685 699 700 q 798 642 769 669 q 847 578 826 615 q 878 499 867 542 l 1024 579 q 976 689 1007 639 q 902 775 944 739 q 806 832 860 811 q 689 853 751 853 q 517 819 601 853 q 365 729 433 786 q 247 596 296 672 q 179 433 197 519 m 161 433 q 231 603 181 524 q 354 742 282 683 q 513 836 426 801 q 692 871 600 871 q 815 849 757 871 q 918 787 872 826 q 997 692 964 747 q 1046 572 1029 638 l 865 469 q 834 554 854 515 q 786 622 814 593 q 724 666 758 650 q 653 682 690 682 q 551 661 601 682 q 460 606 501 640 q 388 527 418 572 q 349 432 358 482 q 348 339 338 383 q 385 260 358 294 q 453 206 413 226 q 546 186 494 186 q 697 239 617 186 q 843 379 776 292 l 951 236 q 744 62 860 128 q 506 -4 628 -4 q 342 31 414 -4 q 223 124 269 65 q 159 263 176 183 q 161 433 142 343 z "},"d":{"ha":890,"x_min":85,"x_max":997,"o":"m 419 679 l 314 186 l 490 186 q 585 206 536 186 q 677 258 635 225 q 750 336 719 292 q 792 429 781 381 q 792 524 801 479 q 756 603 782 569 q 688 658 729 638 q 596 679 647 679 l 419 679 m 600 699 q 699 676 656 699 q 772 617 743 654 q 810 532 800 581 q 810 429 821 483 q 765 328 799 375 q 686 244 732 281 q 588 188 640 208 q 488 167 536 167 l 292 167 l 404 699 l 600 699 m 378 732 l 250 133 l 479 133 q 594 157 535 133 q 704 222 653 181 q 793 316 756 263 q 843 429 831 369 q 843 544 856 489 q 799 640 831 599 q 717 707 767 682 q 607 732 668 732 l 378 732 m 147 53 l 310 814 l 625 814 q 767 784 704 814 q 872 702 831 754 q 927 580 913 650 q 925 431 942 510 q 861 282 908 351 q 750 162 814 213 q 611 82 686 111 q 464 53 536 53 l 147 53 m 283 849 l 107 18 l 457 18 q 617 50 535 18 q 769 138 699 82 q 890 269 839 194 q 960 431 942 344 q 961 592 978 517 q 900 725 944 668 q 787 815 856 782 q 632 849 718 849 l 283 849 m 85 0 l 269 867 l 636 867 q 799 833 726 867 q 917 739 871 799 q 980 600 963 679 q 978 431 997 521 q 905 262 958 340 q 778 125 851 183 q 620 33 706 67 q 453 0 535 0 l 85 0 z "},"e":{"ha":763,"x_min":82,"x_max":926,"o":"m 82 0 l 742 0 l 781 185 l 306 185 l 411 682 l 886 682 l 926 867 l 267 867 l 82 0 m 285 167 l 760 167 l 728 18 l 104 18 l 281 849 l 904 849 l 872 700 l 397 700 l 285 167 m 144 53 l 703 53 l 719 132 l 244 132 l 372 735 l 847 735 l 865 814 l 307 814 l 144 53 m 839 504 l 386 504 l 347 319 l 800 319 l 839 504 m 400 486 l 817 486 l 786 339 l 369 339 l 400 486 m 778 451 l 425 451 l 408 372 l 761 372 l 778 451 z "},"f":{"ha":763,"x_min":82,"x_max":926,"o":"m 82 0 l 267 0 l 411 682 l 886 682 l 926 867 l 267 867 l 82 0 m 253 18 l 104 18 l 281 849 l 904 849 l 872 700 l 397 700 l 253 18 m 144 53 l 228 53 l 372 735 l 847 735 l 865 814 l 307 814 l 144 53 m 839 504 l 383 504 l 344 319 l 800 319 l 839 504 m 397 486 l 817 486 l 786 339 l 367 339 l 397 486 m 778 451 l 422 451 l 406 372 l 761 372 l 778 451 z "},"g":{"ha":919,"x_min":142,"x_max":1046,"o":"m 990 506 l 926 506 l 1046 572 q 997 692 1029 638 q 918 787 964 747 q 815 849 872 826 q 692 871 757 871 q 513 836 600 871 q 354 742 426 801 q 231 603 282 683 q 161 433 181 524 q 159 263 142 343 q 223 124 176 183 q 342 31 269 65 q 506 -4 414 -4 q 744 62 628 -4 q 951 236 860 128 l 888 319 l 951 319 l 990 506 m 510 15 q 353 49 422 15 q 239 139 283 82 q 178 272 194 196 q 179 433 161 347 q 247 596 197 519 q 365 729 296 672 q 517 819 433 786 q 689 853 601 853 q 806 832 751 853 q 902 775 860 811 q 976 689 944 739 q 1024 579 1007 639 l 878 499 q 847 578 867 542 q 798 642 826 615 q 734 685 769 669 q 657 700 699 700 q 547 678 601 700 q 449 620 493 657 q 372 535 404 583 q 329 432 340 486 q 329 330 318 378 q 369 246 340 282 q 443 189 399 210 q 543 168 488 168 q 694 215 617 168 q 835 339 772 261 l 504 339 l 535 486 l 967 486 l 936 339 l 844 339 l 926 233 q 733 75 842 135 q 510 15 624 15 m 214 433 q 213 284 197 354 q 268 162 228 214 q 372 79 308 110 q 517 49 436 49 q 720 98 625 49 q 885 229 815 147 l 838 292 q 701 177 782 221 q 535 133 619 133 q 424 158 474 133 q 342 223 374 182 q 297 318 310 264 q 297 432 285 372 q 346 547 310 492 q 432 643 382 601 q 542 710 482 685 q 664 735 601 735 q 821 681 757 735 q 904 546 885 628 l 983 592 q 944 683 971 642 q 877 755 917 725 q 788 802 838 785 q 681 819 739 819 q 524 789 600 819 q 384 706 447 758 q 276 584 321 654 q 214 433 231 514 m 546 186 q 453 206 494 186 q 385 260 413 226 q 348 339 358 294 q 349 432 338 383 q 388 527 358 482 q 460 606 418 572 q 551 661 501 640 q 653 682 601 682 q 774 632 721 682 q 853 506 826 582 l 521 506 l 482 319 l 790 319 q 667 222 732 257 q 546 186 603 186 m 926 453 l 561 453 l 544 372 l 910 372 l 926 453 z "},"h":{"ha":906,"x_min":85,"x_max":1071,"o":"m 147 53 l 310 814 l 396 814 l 233 53 l 147 53 m 758 53 l 826 372 l 410 372 l 426 451 l 843 451 l 921 814 l 1007 814 l 844 53 l 758 53 m 107 18 l 260 18 l 436 849 l 283 849 l 107 18 m 85 0 l 269 867 l 460 867 l 275 0 l 85 0 m 717 18 l 872 18 l 1049 849 l 893 849 l 815 486 l 400 486 l 369 339 l 785 339 l 717 18 m 694 0 l 763 319 l 347 319 l 386 504 l 801 504 l 879 867 l 1071 867 l 886 0 l 694 0 z "},"i":{"ha":296,"x_min":85,"x_max":460,"o":"m 147 53 l 310 814 l 396 814 l 233 53 l 147 53 m 107 18 l 260 18 l 436 849 l 283 849 l 107 18 m 85 0 l 269 867 l 460 867 l 275 0 l 85 0 z "},"j":{"ha":910,"x_min":106,"x_max":1075,"o":"m 463 49 q 278 100 354 49 q 169 236 203 151 l 249 297 q 333 178 272 224 q 481 132 393 132 q 592 152 538 132 q 694 208 647 172 q 778 291 742 243 q 833 393 814 339 l 924 815 l 1011 815 l 929 431 q 867 281 913 351 q 759 160 822 211 q 619 78 696 108 q 463 49 543 49 m 456 15 q 626 48 543 15 q 777 137 708 81 q 895 269 846 193 q 963 431 944 344 l 1051 849 l 897 849 l 801 399 q 753 306 785 349 q 679 233 721 264 q 589 184 638 201 q 489 167 540 167 q 353 217 410 167 q 271 350 296 267 l 129 240 q 254 77 169 139 q 456 15 339 15 m 451 -4 q 240 65 329 -4 q 106 246 151 133 l 279 382 q 363 239 307 293 q 492 185 419 185 q 584 201 539 185 q 669 247 629 218 q 738 316 708 276 q 783 400 768 356 l 883 867 l 1075 867 l 982 431 q 911 261 963 340 q 788 123 860 182 q 630 30 717 64 q 451 -4 543 -4 z "},"k":{"ha":929,"x_min":85,"x_max":1142,"o":"m 235 53 l 149 53 l 311 814 l 397 814 l 235 53 m 433 469 l 710 469 l 951 814 l 1047 814 l 779 429 l 885 53 l 789 53 l 693 390 l 417 390 l 433 469 m 108 18 l 261 18 l 438 849 l 285 849 l 108 18 m 276 0 l 85 0 l 269 867 l 461 867 l 276 0 m 407 504 l 376 357 l 664 357 l 761 18 l 932 18 l 817 429 l 1108 849 l 936 849 l 696 504 l 407 504 m 392 522 l 688 522 l 929 867 l 1142 867 l 838 429 l 958 0 l 746 0 l 650 338 l 353 338 l 392 522 z "},"l":{"ha":758,"x_min":82,"x_max":781,"o":"m 82 0 l 742 0 l 781 185 l 306 185 l 451 867 l 267 867 l 82 0 m 281 849 l 429 849 l 285 167 l 760 167 l 728 18 l 104 18 l 281 849 m 144 53 l 703 53 l 719 132 l 244 132 l 390 814 l 307 814 l 144 53 z "},"m":{"ha":1138,"x_min":88,"x_max":1304,"o":"m 389 742 l 242 53 l 151 53 l 314 819 l 465 819 l 642 197 l 1086 819 l 1239 819 l 1076 53 l 986 53 l 1135 749 l 603 11 l 389 742 m 586 -65 l 1067 600 l 1069 600 l 946 18 l 1104 18 l 1282 853 l 1071 853 l 658 274 l 494 853 l 288 853 l 110 18 l 268 18 l 390 592 l 393 592 l 586 -65 m 393 519 l 283 0 l 88 0 l 272 872 l 510 872 l 667 315 l 1064 872 l 1304 872 l 1119 0 l 922 0 l 1035 528 l 578 -106 l 393 519 z "},"n":{"ha":913,"x_min":85,"x_max":1078,"o":"m 379 736 l 233 53 l 147 53 l 310 814 l 453 814 l 782 132 l 928 814 l 1015 814 l 853 53 l 717 53 l 379 736 m 694 18 l 879 18 l 1056 849 l 900 849 l 769 235 l 476 849 l 283 849 l 107 18 l 261 18 l 392 635 l 694 18 m 397 574 l 275 0 l 85 0 l 269 867 l 492 867 l 764 296 l 886 867 l 1078 867 l 893 0 l 679 0 l 397 574 z "},"o":{"ha":954,"x_min":149,"x_max":1060,"o":"m 299 429 q 293 345 289 386 q 313 269 297 304 q 354 204 328 233 q 417 157 381 175 l 347 89 q 276 149 306 114 q 228 229 246 185 q 206 325 210 274 q 214 431 203 376 q 276 579 231 510 q 384 701 321 649 q 524 783 447 753 q 683 814 601 814 q 828 783 764 814 q 933 701 892 753 q 990 579 975 649 q 989 431 1006 510 q 950 324 976 375 q 886 228 924 272 q 801 148 849 183 q 701 89 754 113 l 671 158 q 751 205 713 176 q 822 269 790 233 q 874 345 853 304 q 906 429 896 386 q 906 543 918 489 q 860 639 893 597 q 778 705 828 681 q 667 729 728 729 q 544 705 604 729 q 433 639 483 681 q 347 543 382 597 q 299 429 311 489 m 331 429 q 374 531 342 483 q 450 616 406 579 q 549 674 494 653 q 658 696 603 696 q 758 674 714 696 q 832 616 803 653 q 872 531 861 579 q 872 429 883 483 q 841 354 864 392 q 785 283 818 317 q 711 220 753 249 q 624 172 669 192 l 681 44 q 801 115 744 74 q 903 206 858 156 q 980 313 949 256 q 1024 431 1011 369 q 1025 592 1042 515 q 963 724 1008 668 q 848 814 918 781 q 690 847 778 847 q 519 814 603 847 q 366 724 435 781 q 248 592 297 668 q 181 431 199 515 q 174 315 168 372 q 201 208 179 258 q 258 117 222 158 q 344 46 294 75 l 471 169 q 402 219 432 190 q 353 281 372 247 q 328 353 335 315 q 331 429 322 392 m 350 429 q 349 357 342 393 q 377 288 357 321 q 430 225 397 254 q 504 175 463 196 l 347 22 q 252 99 293 54 q 187 196 211 143 q 156 308 163 249 q 161 431 149 368 q 231 599 179 519 q 353 738 282 678 q 513 831 425 797 q 693 865 601 865 q 858 831 785 865 q 978 738 931 797 q 1042 599 1025 678 q 1042 431 1060 519 q 994 308 1028 368 q 912 194 961 247 q 801 96 863 140 q 668 21 739 51 l 597 179 q 689 228 646 200 q 766 289 732 256 q 822 358 800 322 q 853 429 844 393 q 853 524 863 479 q 816 602 843 568 q 748 656 789 636 q 656 676 707 676 q 553 656 604 676 q 461 602 503 636 q 390 524 419 568 q 350 429 360 479 z "},"p":{"ha":857,"x_min":85,"x_max":985,"o":"m 147 53 l 310 814 l 782 814 q 849 797 819 814 q 898 749 879 779 q 923 677 917 718 q 919 589 929 636 q 888 507 911 546 q 834 438 865 468 q 765 390 803 408 q 690 372 728 372 l 564 372 l 581 451 l 693 451 q 744 465 721 451 q 784 498 767 478 q 813 542 801 518 q 829 589 825 567 q 833 638 835 613 q 820 685 831 664 q 792 721 810 707 q 749 735 775 735 l 376 735 l 232 53 l 147 53 m 283 849 l 107 18 l 258 18 l 403 700 l 742 700 q 772 690 760 700 q 792 663 785 679 q 799 627 799 647 q 796 589 800 607 q 785 556 793 574 q 765 522 776 538 q 736 497 753 507 q 700 486 719 486 l 554 486 l 524 339 l 683 339 q 772 360 728 339 q 852 415 815 381 q 915 495 889 450 q 953 589 942 540 q 956 690 964 643 q 926 773 949 738 q 869 828 904 808 q 789 849 833 849 l 283 849 m 85 0 l 269 867 l 793 867 q 881 845 842 867 q 944 786 919 824 q 976 698 968 749 q 972 589 985 647 q 932 488 961 536 q 863 401 903 439 q 775 342 822 364 q 679 319 728 319 l 501 319 l 540 504 l 704 504 q 731 513 718 504 q 753 533 743 521 q 769 560 763 546 q 778 589 775 575 q 781 621 782 604 q 776 651 781 638 q 761 673 771 664 q 738 682 751 682 l 417 682 l 272 0 l 85 0 z "},"q":{"ha":954,"x_min":142,"x_max":1061,"o":"m 214 433 q 276 583 231 513 q 385 705 321 653 q 525 788 449 757 q 683 818 601 818 q 828 788 764 818 q 934 705 893 757 q 990 583 975 653 q 989 433 1006 513 q 935 297 974 358 q 844 183 897 235 l 911 99 l 821 39 l 704 175 q 834 283 779 215 q 906 432 889 350 q 906 547 918 492 q 860 643 893 601 q 778 709 828 685 q 667 733 728 733 q 544 709 604 733 q 433 643 483 685 q 347 547 383 601 q 299 432 311 492 q 299 318 286 372 q 344 223 311 264 q 426 158 376 182 q 538 133 475 133 l 554 133 q 572 136 568 133 l 631 64 q 573 52 600 56 q 519 49 546 49 q 374 79 438 49 q 269 162 310 110 q 213 284 228 214 q 214 433 197 354 m 181 433 q 179 271 163 347 q 240 138 196 194 q 355 48 285 81 q 513 15 425 15 q 585 22 542 15 q 689 46 628 28 l 582 182 q 567 169 569 171 q 563 168 565 168 l 546 168 q 446 189 490 168 q 372 246 401 210 q 331 330 342 282 q 331 432 319 378 q 374 535 342 486 q 451 620 406 583 q 550 678 496 657 q 660 700 604 700 q 760 678 715 700 q 833 620 804 657 q 873 535 863 583 q 872 432 883 486 q 796 292 857 358 q 651 181 735 226 l 810 -3 l 961 96 l 888 186 q 973 301 938 239 q 1024 433 1008 363 q 1025 596 1042 519 q 963 729 1008 672 q 849 819 918 786 q 692 853 779 853 q 520 819 604 853 q 367 729 436 786 q 248 596 297 672 q 181 433 199 519 m 161 433 q 232 603 181 524 q 355 742 283 683 q 515 836 426 801 q 694 871 603 871 q 859 836 786 871 q 979 742 932 801 q 1044 603 1026 683 q 1042 433 1061 524 q 993 299 1026 360 q 915 188 960 239 l 989 93 l 803 -29 l 618 183 q 703 238 664 208 q 774 299 743 267 q 826 365 806 331 q 853 432 846 399 q 853 526 863 482 q 816 606 843 571 q 748 660 789 640 q 656 681 707 681 q 553 660 604 681 q 461 606 503 640 q 390 526 419 571 q 350 432 360 482 q 350 338 339 382 q 388 260 361 293 q 456 206 415 226 q 549 186 497 186 l 561 186 q 567 193 563 189 q 588 210 572 197 l 724 39 q 588 6 640 15 q 508 -4 536 -4 q 343 30 417 -4 q 223 124 269 64 q 159 263 176 183 q 161 433 142 343 z "},"r":{"ha":857,"x_min":85,"x_max":985,"o":"m 693 53 l 576 451 l 693 451 q 744 465 721 451 q 784 498 767 478 q 813 542 801 518 q 829 589 825 567 q 833 638 835 613 q 820 685 831 664 q 792 721 810 707 q 749 735 775 735 l 376 735 l 232 53 l 147 53 l 310 814 l 782 814 q 849 797 819 814 q 898 749 879 779 q 923 677 917 718 q 919 589 929 636 q 889 507 911 546 q 835 438 867 468 q 767 390 804 408 q 693 372 731 372 l 785 53 l 693 53 m 526 486 l 664 18 l 832 18 l 739 347 q 811 382 776 358 q 874 438 846 406 q 924 508 903 469 q 953 589 944 547 q 956 690 964 643 q 926 773 949 738 q 869 828 904 808 q 789 849 833 849 l 283 849 l 107 18 l 258 18 l 403 700 l 742 700 q 772 690 760 700 q 792 663 785 679 q 799 627 799 647 q 796 589 800 607 q 785 556 793 574 q 765 522 776 538 q 736 497 753 507 q 700 486 719 486 l 526 486 m 650 0 l 503 504 l 704 504 q 731 513 718 504 q 753 533 743 521 q 769 560 763 546 q 778 589 775 575 q 781 621 782 604 q 776 651 781 638 q 761 673 771 664 q 738 682 751 682 l 417 682 l 272 0 l 85 0 l 269 867 l 793 867 q 881 845 842 867 q 944 786 919 824 q 976 698 968 749 q 972 589 985 647 q 943 508 964 547 q 894 435 922 468 q 832 375 867 401 q 760 335 797 349 l 856 0 l 650 0 z "},"s":{"ha":847,"x_min":86,"x_max":1010,"o":"m 165 132 l 597 132 q 700 169 660 132 q 751 264 740 207 q 747 347 763 314 q 683 390 732 379 l 700 474 q 768 457 738 474 q 817 412 799 440 q 843 345 836 383 q 840 264 850 307 q 808 176 831 215 q 753 110 785 138 q 685 68 722 83 q 610 53 647 53 l 149 53 l 165 132 m 929 735 l 497 735 q 394 697 433 735 q 342 603 354 660 q 347 519 331 553 q 411 475 363 486 l 393 393 q 326 410 356 393 q 277 455 296 426 q 252 522 258 483 q 254 603 246 560 q 287 690 264 650 q 341 756 310 729 q 409 799 372 783 q 485 814 446 814 l 947 814 l 929 735 m 140 167 l 108 18 l 603 18 q 691 36 647 18 q 772 86 735 54 q 835 164 808 118 q 874 264 863 210 q 873 356 883 313 q 835 433 863 400 q 767 487 808 467 q 676 507 726 507 l 646 364 q 710 327 693 353 q 718 264 726 301 q 681 194 710 221 q 606 167 653 167 l 140 167 m 375 603 q 413 673 385 646 q 490 700 442 700 l 956 700 l 988 849 l 492 849 q 403 831 446 849 q 323 781 360 813 q 260 703 286 749 q 221 603 233 657 q 220 510 210 554 q 258 432 231 465 q 326 379 285 399 q 419 360 368 360 l 450 501 q 385 539 401 513 q 375 603 368 565 m 969 682 l 486 682 q 424 660 449 682 q 393 603 400 638 q 404 550 386 572 q 471 518 422 528 l 433 340 q 327 361 375 340 q 248 418 279 382 q 204 502 217 454 q 203 603 192 550 q 244 711 215 663 q 313 794 274 760 q 400 848 353 829 q 496 867 447 867 l 1010 867 l 969 682 m 125 185 l 608 185 q 669 207 644 185 q 700 264 693 229 q 689 316 707 294 q 624 347 671 338 l 663 526 q 769 506 721 526 q 848 449 817 485 q 892 365 879 413 q 893 264 904 317 q 851 156 881 204 q 782 72 822 107 q 694 19 742 38 q 599 0 647 0 l 86 0 l 125 185 z "},"t":{"ha":839,"x_min":225,"x_max":1008,"o":"m 306 814 l 946 814 l 928 735 l 650 735 l 506 53 l 419 53 l 564 735 l 288 735 l 306 814 m 676 700 l 954 700 l 986 849 l 279 849 l 247 700 l 524 700 l 379 18 l 532 18 l 676 700 m 265 867 l 1008 867 l 968 682 l 690 682 l 546 0 l 357 0 l 501 682 l 225 682 l 265 867 z "},"u":{"ha":988,"x_min":158,"x_max":1153,"o":"m 313 815 l 399 815 l 308 393 q 321 292 304 339 q 371 209 338 244 q 451 153 404 174 q 556 133 499 133 q 668 153 613 133 q 771 209 724 174 q 854 292 818 244 q 910 393 890 339 l 1000 815 l 1089 815 l 1007 431 q 944 281 990 351 q 835 160 899 211 q 695 78 772 108 q 538 49 618 49 q 392 78 456 49 q 286 160 328 108 q 229 281 244 211 q 231 431 214 351 l 313 815 m 564 167 q 470 185 513 167 q 399 234 428 203 q 355 308 369 265 q 344 399 340 350 l 440 849 l 285 849 l 196 431 q 194 269 178 344 q 257 137 211 193 q 373 48 303 81 q 531 15 443 15 q 702 48 618 15 q 855 137 786 81 q 973 269 924 193 q 1040 431 1022 344 l 1129 849 l 974 849 l 878 399 q 828 308 861 350 q 754 234 796 265 q 663 185 713 203 q 564 167 614 167 m 271 867 l 463 867 l 363 400 q 372 317 358 356 q 414 249 386 278 q 481 203 442 219 q 567 186 519 186 q 660 203 614 186 q 744 249 706 219 q 813 317 783 278 q 858 400 843 356 l 958 867 l 1153 867 l 1060 431 q 989 261 1040 340 q 865 123 938 182 q 706 30 793 64 q 526 -4 618 -4 q 360 30 433 -4 q 240 123 288 64 q 176 261 193 182 q 178 431 158 340 l 271 867 z "},"v":{"ha":949,"x_min":203,"x_max":1181,"o":"m 1085 813 l 507 4 l 276 813 l 378 813 l 547 193 l 982 813 l 1085 813 m 406 846 l 228 846 l 490 -72 l 1146 846 l 968 846 l 563 271 l 406 846 m 1181 865 l 482 -112 l 203 865 l 422 865 l 572 313 l 961 865 l 1181 865 z "},"w":{"ha":1246,"x_min":204,"x_max":1479,"o":"m 775 560 l 868 226 l 1281 810 l 1381 810 l 821 21 l 731 353 l 494 21 l 279 810 l 379 810 l 539 226 l 775 560 m 792 639 l 556 306 l 408 844 l 231 844 l 478 -60 l 713 272 l 804 -60 l 1444 844 l 1265 844 l 885 304 l 792 639 m 425 863 l 564 347 l 800 682 l 893 347 l 1257 863 l 1479 863 l 794 -103 l 703 231 l 468 -101 l 204 863 l 425 863 z "},"x":{"ha":897,"x_min":25,"x_max":1122,"o":"m 283 814 l 379 814 l 485 429 l 215 53 l 121 53 l 386 429 l 283 814 m 932 814 l 1028 814 l 760 429 l 865 53 l 771 53 l 661 429 l 932 814 m 740 18 l 913 18 l 796 429 l 1089 849 l 917 849 l 621 428 l 740 18 m 58 18 l 229 18 l 522 428 l 406 849 l 235 849 l 347 429 l 58 18 m 910 867 l 1122 867 l 817 429 l 939 0 l 728 0 l 603 431 l 910 867 m 25 0 l 326 429 l 210 867 l 421 867 l 543 431 l 233 0 l 25 0 z "},"y":{"ha":885,"x_min":189,"x_max":1133,"o":"m 442 53 l 499 319 l 276 814 l 382 814 l 563 425 l 915 814 l 1022 814 l 589 326 l 531 53 l 442 53 m 401 18 l 557 18 l 619 317 l 1092 849 l 906 849 l 575 485 l 406 849 l 219 849 l 463 310 l 401 18 m 379 0 l 443 303 l 189 867 l 419 867 l 582 518 l 900 867 l 1133 867 l 636 308 l 571 0 l 379 0 z "},"z":{"ha":863,"x_min":28,"x_max":1082,"o":"m 28 0 l 844 0 l 883 185 l 438 185 l 701 463 l 700 463 l 1082 867 l 265 867 l 225 682 l 671 682 l 450 447 l 28 0 m 472 444 l 657 444 l 397 167 l 863 167 l 831 18 l 68 18 l 472 444 m 714 700 l 247 700 l 279 849 l 1042 849 l 678 463 l 489 463 l 714 700 m 142 53 l 804 53 l 821 132 l 324 132 l 586 410 l 481 410 l 142 53 m 669 497 l 969 814 l 306 814 l 288 735 l 786 735 l 561 497 l 669 497 z "},"{":{"ha":847,"x_min":86,"x_max":1010,"o":"m 1010 867 l 496 867 q 400 848 447 867 q 313 794 353 829 q 244 711 274 760 q 203 603 215 663 q 201 502 192 550 q 233 418 210 454 q 295 361 257 382 q 381 340 333 340 l 668 340 q 699 313 692 333 q 700 264 707 292 q 669 207 693 229 q 608 185 644 185 l 125 185 l 86 0 l 599 0 q 694 19 647 0 q 782 72 742 38 q 851 156 822 107 q 893 264 881 204 q 896 365 904 317 q 863 449 888 413 q 801 506 839 485 q 714 526 763 526 l 425 526 q 394 552 401 532 q 393 603 386 572 q 424 660 400 638 q 486 682 449 682 l 969 682 l 1010 867 m 375 603 q 377 541 368 567 q 418 507 386 515 l 710 507 q 789 488 754 507 q 846 435 824 468 q 876 357 868 401 q 874 264 883 313 q 835 164 863 210 q 772 86 808 118 q 691 36 735 54 q 603 18 647 18 l 108 18 l 140 167 l 606 167 q 681 194 653 167 q 718 264 710 221 q 717 324 726 300 q 676 360 707 349 l 385 360 q 306 379 340 360 q 249 432 271 399 q 218 510 226 465 q 221 603 210 554 q 260 703 233 657 q 323 781 286 749 q 403 831 360 813 q 492 849 446 849 l 988 849 l 956 700 l 490 700 q 413 673 442 700 q 375 603 385 646 m 947 814 l 485 814 q 409 799 446 814 q 341 756 372 783 q 287 690 310 729 q 254 603 264 650 q 251 522 246 560 q 276 455 257 483 q 324 410 294 426 q 392 393 354 393 l 685 393 q 747 348 732 382 q 751 264 763 314 q 700 169 740 207 q 597 132 660 132 l 165 132 l 149 53 l 610 53 q 685 68 647 53 q 753 110 722 83 q 808 176 785 138 q 840 264 831 215 q 844 345 850 307 q 819 412 838 383 q 769 457 800 440 q 701 474 739 474 l 408 474 q 347 519 363 485 q 342 603 331 553 q 394 697 354 660 q 497 735 433 735 l 929 735 l 947 814 z "},"|":{"ha":296,"x_min":50,"x_max":490,"o":"m 113 -112 l 340 961 l 426 961 l 199 -112 l 113 -112 m 71 -147 l 224 -147 l 467 996 l 314 996 l 71 -147 m 50 -165 l 300 1014 l 490 1014 l 240 -165 l 50 -165 z "},"}":{"ha":954,"x_min":149,"x_max":1063,"o":"m 586 -75 l 626 118 l 668 21 q 801 98 739 53 q 913 197 864 143 q 996 313 963 251 q 1043 439 1029 374 q 1045 611 1063 531 q 981 751 1028 692 q 862 846 935 811 q 697 881 789 881 q 517 846 606 881 q 357 751 429 811 q 233 611 285 692 q 163 439 182 531 q 156 315 149 375 q 187 200 163 254 q 252 101 211 146 q 347 22 293 56 l 440 114 l 401 -75 l 586 -75 m 332 438 q 354 288 315 360 q 471 172 393 217 l 344 46 q 259 117 296 75 q 201 211 222 160 q 174 320 179 263 q 182 439 169 378 q 249 603 200 526 q 368 737 299 679 q 522 828 438 794 q 693 861 606 861 q 851 828 781 861 q 965 737 921 794 q 1026 603 1010 679 q 1025 439 1043 526 q 981 318 1013 376 q 904 209 950 260 q 801 116 858 158 q 679 44 744 74 l 625 175 q 713 224 671 196 q 787 288 754 253 q 842 360 819 322 q 874 438 865 399 q 874 541 885 492 q 835 627 864 590 q 761 686 806 664 q 661 708 717 708 q 551 686 606 708 q 452 627 497 664 q 375 541 407 590 q 332 438 343 492 m 300 438 q 349 553 313 497 q 435 650 385 608 q 547 717 486 692 q 669 742 607 742 q 781 717 731 742 q 863 650 831 692 q 907 553 894 608 q 907 438 919 497 q 875 351 897 393 q 822 272 853 308 q 752 208 790 236 q 672 161 714 179 l 701 90 q 803 150 756 114 q 888 231 850 186 q 951 329 925 276 q 990 439 978 382 q 992 590 1007 519 q 936 714 978 661 q 831 797 894 767 q 686 828 767 828 q 527 797 604 828 q 387 714 450 767 q 278 590 324 661 q 215 439 232 519 q 228 233 192 326 q 347 90 264 140 l 417 160 q 355 207 381 178 q 314 273 329 236 q 294 351 299 310 q 300 438 290 393 m 351 438 q 392 533 361 488 q 464 614 422 579 q 556 669 506 649 q 658 690 607 690 q 751 669 710 690 q 818 614 792 649 q 854 533 844 579 q 854 438 864 488 q 783 311 840 372 q 644 206 725 250 l 703 479 l 518 479 l 460 206 q 367 312 397 250 q 351 438 338 374 m 533 460 l 681 460 l 571 -57 l 424 -57 l 533 460 m 560 426 l 465 -22 l 544 -22 l 639 426 l 560 426 z "},"~":{"ha":521,"x_min":82,"x_max":624,"o":"m 221 253 l 165 288 l 325 360 l 396 319 l 488 358 l 542 322 l 381 251 l 310 292 l 221 253 m 376 226 l 592 321 l 492 385 l 403 344 l 331 388 l 111 289 l 214 226 l 303 264 l 376 226 m 299 249 l 208 211 l 82 290 l 335 403 l 404 361 l 499 403 l 624 321 l 371 211 l 299 249 z "},"":{"ha":6,"x_min":0,"x_max":0,"o":""},"":{"ha":1100,"x_min":135,"x_max":1229,"o":"m 135 243 l 326 243 q 374 142 342 188 q 451 65 406 97 q 555 14 497 32 q 679 -4 613 -4 q 801 13 740 -4 q 921 63 863 31 q 1033 139 979 94 q 1133 236 1088 183 l 1022 379 q 871 238 951 292 q 719 185 790 185 q 635 200 674 185 q 569 243 597 215 l 871 243 l 951 622 l 649 622 q 735 666 689 650 q 826 682 781 682 q 899 666 864 682 q 962 622 933 650 q 1011 554 990 593 q 1043 469 1032 515 l 1229 572 q 1177 692 1211 638 q 1097 785 1143 746 q 991 847 1050 825 q 865 869 932 869 q 733 851 799 869 q 608 801 667 833 q 497 722 549 768 q 407 622 446 676 l 215 622 l 135 243 m 342 421 l 347 444 l 197 444 l 231 603 l 417 603 q 502 704 453 658 q 610 783 551 750 q 732 833 668 815 q 861 851 796 851 q 981 831 925 851 q 1081 775 1036 811 q 1157 689 1125 739 q 1204 581 1189 639 l 1057 499 q 973 643 1033 586 q 831 700 913 700 q 707 674 768 700 q 597 603 646 647 l 928 603 l 894 444 l 499 444 l 493 421 l 889 421 l 856 261 l 525 261 q 604 192 554 218 q 717 167 654 167 q 794 179 754 167 q 873 215 833 192 q 949 272 913 239 q 1018 346 986 306 l 1107 233 q 911 75 1022 135 q 683 15 800 15 q 562 33 618 15 q 462 84 506 51 q 388 162 418 117 q 344 261 358 207 l 158 261 l 192 421 l 342 421 m 199 296 l 372 296 q 409 196 382 242 q 477 117 436 150 q 572 67 518 85 q 690 49 626 49 q 897 98 800 49 q 1064 229 993 147 l 1017 292 q 876 176 958 221 q 708 132 793 132 q 556 178 618 132 q 468 296 493 224 l 831 296 l 850 386 l 456 386 q 458 409 456 397 q 463 432 460 421 q 475 479 467 453 l 869 479 l 889 569 l 526 569 q 588 634 553 604 q 664 686 624 664 q 749 721 704 708 q 838 733 793 733 q 924 719 883 733 q 997 681 965 706 q 1051 621 1029 656 q 1083 546 1074 586 l 1164 592 q 1122 683 1150 642 q 1054 754 1094 724 q 963 801 1014 785 q 854 818 913 818 q 728 800 789 818 q 611 749 667 782 q 510 669 556 715 q 431 569 464 624 l 257 569 l 238 479 l 389 479 q 383 451 385 460 q 378 433 381 442 q 373 408 375 419 q 369 386 371 397 l 218 386 l 199 296 z "},"":{"ha":222,"x_min":61,"x_max":228,"o":"m 78 -58 l 149 -58 q 194 12 176 -26 q 219 86 213 50 q 211 151 228 125 q 161 176 194 176 q 101 152 129 176 q 65 88 74 128 q 65 51 61 67 q 75 22 68 35 q 72 17 74 19 q 65 10 71 14 l 78 -58 m 93 29 q 78 88 72 53 q 108 142 85 119 q 158 164 132 164 q 201 141 186 164 q 208 86 215 118 q 185 19 201 53 q 143 -43 168 -15 l 82 -43 l 75 0 q 93 29 82 7 m 88 -18 l 140 -18 q 188 86 175 21 q 183 124 193 108 q 153 139 172 139 q 119 125 135 139 q 99 88 104 111 q 119 39 92 53 q 106 11 114 25 q 88 -15 99 -3 l 88 -18 z "},"":{"ha":756,"x_min":224,"x_max":924,"o":"m 264 867 l 224 682 l 460 682 l 315 0 l 500 0 l 644 682 l 883 682 l 924 867 l 264 867 m 488 18 l 338 18 l 482 700 l 246 700 l 278 849 l 901 849 l 869 700 l 632 700 l 488 18 m 303 814 l 285 735 l 521 735 l 376 53 l 461 53 l 606 735 l 843 735 l 861 814 l 303 814 z "},"":{"ha":465,"x_min":79,"x_max":478,"o":"m 111 -58 l 207 -58 q 244 -17 228 -39 q 272 29 261 6 l 275 28 l 275 29 q 279 24 275 28 l 278 22 q 275 18 281 24 q 267 10 269 13 l 288 -58 l 382 -58 q 440 12 418 -26 q 469 86 463 50 q 453 151 478 125 q 383 176 428 176 q 288 138 324 176 q 207 176 265 176 q 127 152 163 176 q 83 88 92 128 q 85 51 79 67 q 100 22 90 35 q 98 18 103 24 q 90 10 93 13 l 111 -58 m 124 29 q 100 88 94 53 q 138 142 107 119 q 204 164 168 164 q 256 147 236 164 q 279 104 276 129 l 282 104 q 321 147 293 131 q 381 164 349 164 q 438 141 417 164 q 453 86 460 118 q 426 19 446 53 q 376 -43 407 -15 l 290 -43 l 278 0 q 288 9 285 4 q 294 19 292 14 q 297 24 296 22 q 300 29 299 26 q 275 67 281 46 l 272 67 q 246 10 264 39 q 200 -43 228 -19 l 114 -43 l 101 0 q 113 11 107 3 q 124 29 118 19 m 119 -18 l 193 -18 q 228 28 214 1 q 249 86 242 54 q 240 124 254 108 q 199 139 225 139 q 153 125 174 139 q 128 88 133 111 q 134 58 125 71 q 160 39 143 46 q 144 12 154 26 q 119 -15 135 -3 l 119 -18 m 296 -18 l 368 -18 q 425 86 413 22 q 415 124 431 108 q 375 139 400 139 q 330 125 349 139 q 306 88 311 111 q 336 39 299 50 q 320 11 329 25 q 296 -15 311 -3 l 296 -18 z "},"":{"ha":793,"x_min":82,"x_max":804,"o":"m 561 74 q 584 20 554 42 q 664 -1 614 -1 q 752 20 714 -1 q 797 74 790 42 q 775 127 804 106 q 696 149 746 149 q 607 127 646 149 q 561 74 568 106 m 89 74 q 112 20 82 42 q 190 -1 142 -1 q 278 20 240 -1 q 324 74 317 42 q 301 127 331 106 q 222 149 272 149 q 135 127 174 149 q 89 74 96 106 m 325 74 q 348 20 318 42 q 428 -1 378 -1 q 515 20 478 -1 q 560 74 553 42 q 538 127 567 106 q 460 149 510 149 q 371 127 410 149 q 325 74 332 106 m 579 74 q 619 119 586 101 q 693 136 651 136 q 760 119 735 136 q 779 74 786 101 q 741 28 774 46 q 667 11 708 11 q 599 28 625 11 q 579 74 574 46 m 107 74 q 147 119 114 101 q 219 136 179 136 q 287 119 261 136 q 306 74 313 101 q 267 28 300 46 q 193 11 235 11 q 127 28 153 11 q 107 74 101 46 m 343 74 q 383 119 350 101 q 457 136 415 136 q 524 119 499 136 q 543 74 550 101 q 505 28 538 46 q 431 11 472 11 q 363 28 389 11 q 343 74 338 46 m 376 74 q 390 43 372 54 q 435 32 407 32 q 485 43 464 32 q 510 74 506 54 q 498 104 514 93 q 453 115 482 115 q 403 104 425 115 q 376 74 381 93 m 613 74 q 626 43 608 54 q 671 32 643 32 q 721 43 700 32 q 746 74 742 54 q 734 104 750 93 q 689 115 718 115 q 639 104 661 115 q 613 74 617 93 m 140 74 q 153 43 136 54 q 197 32 169 32 q 247 43 225 32 q 272 74 268 54 q 260 104 276 93 q 215 115 243 115 q 166 104 188 115 q 140 74 144 93 z "},"":{"ha":600,"x_min":178,"x_max":726,"o":"m 178 485 l 342 485 l 239 0 l 415 0 l 518 485 l 685 485 l 726 679 l 560 679 l 600 867 l 424 867 l 383 679 l 219 679 l 178 485 m 397 660 l 438 849 l 579 849 l 539 660 l 706 660 l 672 503 l 506 503 l 403 18 l 261 18 l 364 503 l 200 503 l 233 660 l 397 660 m 238 538 l 401 538 l 299 53 l 381 53 l 483 538 l 647 538 l 667 628 l 503 628 l 543 814 l 461 814 l 421 628 l 257 628 l 238 538 z "},"":{"ha":600,"x_min":114,"x_max":726,"o":"m 178 485 l 342 485 l 319 379 l 156 379 l 114 186 l 278 186 l 239 0 l 415 0 l 454 186 l 621 186 l 663 379 l 496 379 l 518 485 l 685 485 l 726 679 l 560 679 l 600 867 l 424 867 l 383 679 l 219 679 l 178 485 m 397 660 l 438 849 l 579 849 l 539 660 l 706 660 l 672 503 l 506 503 l 475 361 l 642 361 l 608 204 l 442 204 l 403 18 l 261 18 l 300 204 l 136 204 l 169 361 l 333 361 l 364 503 l 200 503 l 233 660 l 397 660 m 238 538 l 401 538 l 357 328 l 193 328 l 174 236 l 338 236 l 299 53 l 381 53 l 419 236 l 583 236 l 603 328 l 439 328 l 483 538 l 647 538 l 667 628 l 503 628 l 543 814 l 461 814 l 421 628 l 257 628 l 238 538 z "},"":{"ha":311,"x_min":106,"x_max":526,"o":"m 526 640 l 342 763 l 106 640 l 222 553 l 306 596 l 374 553 l 526 640 m 226 569 l 136 640 l 338 743 l 497 640 l 374 569 l 308 613 l 226 569 m 451 639 l 332 718 l 181 639 l 232 597 l 315 640 l 383 599 l 451 639 z "},"":{"ha":1556,"x_min":201,"x_max":1610,"o":"m 213 625 q 213 529 201 574 q 251 451 224 485 q 323 399 279 418 q 421 379 367 379 q 494 388 457 379 q 563 414 531 396 l 257 0 l 476 0 l 638 217 q 647 131 633 171 q 690 60 661 90 q 760 14 718 31 q 851 -3 801 -3 q 985 28 922 -3 q 1093 110 1049 60 q 1167 28 1117 60 q 1288 -3 1217 -3 q 1393 17 1342 -3 q 1487 69 1444 36 q 1558 147 1529 103 q 1599 243 1588 192 q 1599 338 1610 293 q 1561 416 1589 382 q 1490 469 1533 450 q 1392 489 1446 489 q 1258 458 1321 489 q 1149 374 1194 426 q 1076 457 1125 425 q 956 489 1026 489 q 882 478 919 489 q 813 453 844 468 l 1122 867 l 901 867 l 735 644 q 728 731 740 690 q 687 803 715 772 q 617 851 658 833 q 525 869 576 869 q 419 850 471 869 q 325 797 368 831 q 252 719 282 764 q 213 625 222 675 m 661 243 q 682 299 667 271 l 679 299 l 469 18 l 290 18 l 644 494 l 642 496 q 543 424 600 451 q 425 397 486 397 q 336 415 376 397 q 269 465 296 433 q 233 537 243 496 q 232 625 222 578 q 269 712 242 671 q 337 784 297 753 q 424 833 376 815 q 521 851 472 851 q 610 833 571 851 q 676 784 650 815 q 712 712 701 753 q 713 625 722 671 q 701 587 708 606 q 683 551 693 568 l 686 551 l 907 849 l 1088 849 l 739 381 l 742 379 q 840 445 785 419 q 951 471 894 471 q 1075 433 1025 471 q 1142 338 1125 396 q 1251 433 1185 396 q 1388 471 1317 471 q 1478 452 1438 471 q 1544 402 1518 433 q 1579 330 1569 371 q 1579 243 1589 289 q 1542 156 1569 197 q 1476 83 1515 114 q 1390 35 1438 53 q 1292 17 1342 17 q 1169 53 1219 17 q 1101 149 1118 89 q 994 53 1061 89 q 856 17 928 17 q 767 35 807 17 q 699 83 726 53 q 662 156 672 114 q 661 243 651 197 m 1135 243 q 1135 168 1126 203 q 1167 107 1144 133 q 1223 65 1189 81 q 1299 50 1257 50 q 1383 65 1342 50 q 1457 107 1424 81 q 1513 168 1490 133 q 1544 243 1536 203 q 1544 317 1553 282 q 1514 379 1536 353 q 1458 421 1492 406 q 1381 436 1424 436 q 1298 421 1339 436 q 1224 379 1257 406 q 1167 317 1190 353 q 1135 243 1143 282 m 268 625 q 268 549 260 585 q 299 488 276 514 q 356 446 321 461 q 432 431 390 431 q 515 446 475 431 q 588 488 556 461 q 644 549 621 514 q 676 625 668 585 q 676 699 685 664 q 646 760 668 733 q 590 801 624 786 q 514 817 557 817 q 431 801 472 817 q 357 760 390 786 q 300 699 324 733 q 268 625 276 664 m 697 243 q 698 168 689 203 q 729 107 707 133 q 786 65 751 81 q 863 50 821 50 q 946 65 906 50 q 1019 107 986 81 q 1076 168 1053 133 q 1107 243 1099 203 q 1107 317 1115 282 q 1076 379 1099 353 q 1021 421 1054 406 q 944 436 988 436 q 862 421 903 436 q 787 379 821 406 q 729 317 753 353 q 697 243 706 282 m 357 53 l 454 53 l 1022 815 l 924 815 l 357 53 m 349 624 q 369 667 354 646 q 403 705 383 689 q 448 731 424 721 q 497 740 472 740 q 577 705 549 740 q 596 624 606 669 q 577 580 592 600 q 542 544 563 560 q 497 519 521 528 q 449 510 472 510 q 368 544 397 510 q 349 624 339 578 m 779 242 q 799 286 785 265 q 834 323 814 307 q 878 349 854 339 q 928 358 903 358 q 975 349 954 358 q 1009 323 996 339 q 1028 286 1022 307 q 1028 242 1033 265 q 1009 198 1024 218 q 974 163 994 178 q 928 138 953 147 q 879 129 904 129 q 799 163 828 129 q 779 242 769 196 m 1217 242 q 1236 286 1222 265 q 1270 323 1250 307 q 1315 349 1290 339 q 1364 358 1339 358 q 1411 349 1390 358 q 1445 323 1432 339 q 1464 286 1458 307 q 1464 242 1469 265 q 1445 198 1460 218 q 1410 163 1431 178 q 1365 138 1389 147 q 1315 129 1340 129 q 1236 163 1265 129 q 1217 242 1207 196 m 1251 242 q 1265 185 1244 208 q 1322 163 1286 163 q 1390 185 1358 163 q 1428 242 1421 208 q 1415 301 1435 276 q 1357 325 1396 325 q 1290 301 1321 325 q 1251 242 1258 276 m 815 242 q 829 185 808 208 q 886 163 850 163 q 953 185 922 163 q 992 242 985 208 q 978 301 999 276 q 921 325 958 325 q 853 301 885 325 q 815 242 822 276 m 385 624 q 399 567 378 590 q 456 543 419 543 q 522 567 490 543 q 560 624 553 590 q 547 681 567 657 q 490 706 526 706 q 423 681 454 706 q 385 624 392 657 m 835 242 q 865 288 840 268 q 917 307 889 307 q 962 288 946 307 q 972 242 978 268 q 942 199 967 218 q 890 181 918 181 q 846 199 863 181 q 835 242 829 218 m 404 624 q 435 668 411 649 q 486 688 458 688 q 531 668 514 688 q 540 624 547 649 q 511 581 536 600 q 460 563 486 563 q 416 581 432 563 q 404 624 400 600 m 1272 242 q 1301 288 1278 268 q 1353 307 1325 307 q 1398 288 1382 307 q 1408 242 1414 268 q 1378 199 1403 218 q 1326 181 1354 181 q 1283 199 1299 181 q 1272 242 1267 218 z "},"":{"ha":847,"x_min":86,"x_max":1014,"o":"m 426 1007 l 556 892 l 500 892 q 404 872 451 892 q 317 817 357 853 q 249 732 278 782 q 207 619 219 682 q 208 517 196 565 q 251 431 219 468 q 330 372 282 393 q 436 350 378 350 l 474 532 q 408 566 426 543 q 397 619 390 589 q 429 679 404 656 q 492 703 454 703 l 975 703 l 1014 892 l 731 892 l 911 1007 l 785 1136 l 683 1069 l 610 1136 l 426 1007 m 678 1046 l 778 1110 l 878 1008 l 667 872 l 992 872 l 961 722 l 496 722 q 418 694 447 722 q 379 619 389 665 q 388 553 371 581 q 453 515 404 526 l 422 369 q 329 390 371 369 q 261 444 288 410 q 224 524 235 479 q 225 619 214 569 q 264 723 238 676 q 327 803 290 769 q 407 854 364 836 q 496 872 450 872 l 613 872 l 458 1008 l 604 1110 l 678 1046 m 126 190 l 86 0 l 599 0 q 694 19 647 0 q 783 74 742 39 q 853 160 824 110 q 896 272 883 211 q 894 375 907 326 q 851 461 882 424 q 772 520 819 499 q 665 542 724 542 l 626 357 q 692 325 674 347 q 703 272 710 303 q 670 213 694 236 q 610 190 646 190 l 126 190 m 606 171 q 682 199 653 171 q 721 272 711 228 q 711 335 728 308 q 647 374 694 363 l 679 522 q 770 501 729 522 q 838 446 811 481 q 876 367 865 411 q 876 272 886 322 q 836 169 864 215 q 772 89 808 122 q 691 38 735 56 q 603 19 647 19 l 108 19 l 140 171 l 606 171 m 935 757 l 951 839 l 489 839 q 413 823 450 839 q 345 778 376 807 q 291 710 314 750 q 258 619 268 669 q 255 536 249 575 q 280 468 261 497 q 328 422 299 439 q 396 404 358 404 l 414 489 q 350 534 365 500 q 346 619 335 568 q 399 718 358 679 q 503 757 439 757 l 935 757 m 167 136 l 149 54 l 610 54 q 685 69 647 54 q 753 113 722 85 q 808 182 785 142 q 843 272 832 222 q 845 354 851 315 q 820 423 839 393 q 772 470 801 453 q 704 488 742 488 l 685 401 q 749 357 733 390 q 754 272 765 324 q 701 174 742 213 q 599 136 661 136 l 167 136 m 513 1008 l 644 892 l 824 1008 l 767 1068 l 669 1004 l 596 1068 l 513 1008 z "},"":{"ha":235,"x_min":113,"x_max":339,"o":"m 279 596 l 113 385 l 190 175 l 307 311 l 276 385 l 339 461 l 279 596 m 131 385 l 274 567 l 318 460 l 258 385 l 288 311 l 196 204 l 131 385 m 265 521 l 156 385 l 207 250 l 258 311 l 233 385 l 290 461 l 265 521 z "},"":{"ha":1496,"x_min":146,"x_max":1663,"o":"m 165 433 q 165 263 146 343 q 234 124 185 183 q 360 31 283 65 q 532 -4 436 -4 q 653 10 594 -4 q 769 50 713 24 l 758 0 l 1478 0 l 1517 185 l 999 185 l 1106 683 l 1624 683 l 1663 868 l 943 868 l 932 814 q 718 869 840 869 q 531 835 622 869 q 365 742 440 801 q 238 603 290 683 q 165 433 185 524 m 185 433 q 253 595 203 519 q 376 728 304 671 q 535 818 447 785 q 714 851 622 851 q 838 833 781 851 q 943 782 896 815 l 957 849 l 1639 849 l 1607 701 l 1089 701 l 976 167 l 1494 167 l 1463 18 l 781 18 l 794 83 q 670 33 735 51 q 536 15 606 15 q 372 49 444 15 q 251 139 299 82 q 185 272 203 196 q 185 433 167 347 m 219 433 q 219 284 203 354 q 280 162 236 214 q 391 79 324 110 q 543 49 458 49 q 703 76 628 49 q 844 151 779 103 l 824 53 l 1433 53 l 1450 132 l 933 132 l 1061 735 l 1578 735 l 1596 815 l 986 815 l 964 711 q 855 790 919 761 q 707 818 790 818 q 542 788 622 818 q 397 705 463 757 q 283 583 331 653 q 219 433 236 513 m 561 132 q 443 156 496 132 q 356 222 390 181 q 308 318 322 264 q 307 432 294 372 q 357 547 319 492 q 447 643 394 601 q 562 709 499 685 q 690 733 625 733 q 842 690 778 733 q 935 578 907 646 l 874 285 q 810 222 846 250 q 733 174 774 194 q 648 143 692 154 q 561 132 604 132 m 569 167 q 717 201 646 167 q 839 292 789 235 l 897 569 q 815 664 871 628 q 683 700 760 700 q 569 678 625 700 q 466 620 513 657 q 387 535 419 583 q 343 432 354 486 q 344 330 332 378 q 386 246 356 282 q 464 188 417 210 q 569 167 511 167 m 572 185 q 474 205 518 185 q 403 259 431 225 q 363 338 375 293 q 363 432 351 383 q 403 527 372 482 q 477 606 433 572 q 573 661 521 640 q 679 682 625 682 q 800 649 749 682 q 878 563 851 615 l 822 300 q 708 216 774 247 q 572 185 642 185 m 1079 504 l 1040 319 l 1535 319 l 1574 504 l 1079 504 m 1094 486 l 1550 486 l 1519 339 l 1064 339 l 1094 486 m 1124 453 l 1107 372 l 1492 372 l 1508 453 l 1124 453 z "},"":{"ha":863,"x_min":29,"x_max":1088,"o":"m 433 1007 l 563 892 l 269 892 l 231 703 l 676 703 l 29 0 l 844 0 l 885 190 l 439 190 l 1088 892 l 739 892 l 918 1007 l 792 1136 l 690 1069 l 617 1136 l 433 1007 m 685 1046 l 785 1110 l 885 1008 l 674 872 l 1046 872 l 397 171 l 863 171 l 831 19 l 68 19 l 719 722 l 253 722 l 283 872 l 621 872 l 465 1008 l 613 1110 l 685 1046 m 142 54 l 804 54 l 822 136 l 325 136 l 974 839 l 310 839 l 293 757 l 792 757 l 142 54 m 519 1008 l 651 892 l 833 1008 l 774 1068 l 676 1004 l 604 1068 l 519 1008 z "},"":{"ha":269,"x_min":154,"x_max":422,"o":"m 250 671 q 276 701 265 686 q 290 729 286 717 q 267 748 276 736 q 261 778 257 760 q 285 814 265 800 q 329 828 306 828 q 365 813 351 828 q 374 775 378 797 q 352 717 367 743 q 319 671 338 690 l 250 671 m 257 719 q 230 688 246 706 q 190 646 214 669 l 326 646 q 374 708 354 674 q 400 775 393 742 q 387 830 407 807 q 335 853 367 853 q 272 831 300 853 q 238 778 244 810 q 240 745 233 760 q 257 719 246 731 m 154 632 q 204 683 185 663 q 232 714 224 703 q 222 778 214 740 q 263 842 231 818 q 338 867 294 867 q 400 840 378 867 q 415 775 422 813 q 385 700 407 738 q 331 632 364 663 l 154 632 z "},"":{"ha":269,"x_min":154,"x_max":422,"o":"m 250 671 q 276 701 265 686 q 290 729 286 717 q 267 748 276 736 q 261 778 257 760 q 285 814 265 800 q 329 828 306 828 q 365 813 351 828 q 374 775 378 797 q 352 717 367 743 q 319 671 338 690 l 250 671 m 257 719 q 230 688 246 706 q 190 646 214 669 l 326 646 q 374 708 354 674 q 400 775 393 742 q 387 830 407 807 q 335 853 367 853 q 272 831 300 853 q 238 778 244 810 q 240 745 233 760 q 257 719 246 731 m 154 632 q 204 683 185 663 q 232 714 224 703 q 222 778 214 740 q 263 842 231 818 q 338 867 294 867 q 400 840 378 867 q 415 775 422 813 q 385 700 407 738 q 331 632 364 663 l 154 632 z "},"":{"ha":465,"x_min":157,"x_max":626,"o":"m 411 704 q 418 712 415 708 q 424 718 421 715 l 422 722 q 419 718 419 719 q 417 715 418 717 l 411 704 m 440 675 q 468 706 458 690 q 483 733 478 721 q 459 753 468 740 q 454 782 450 765 q 478 818 458 804 q 522 832 497 832 q 564 817 549 832 q 574 779 579 801 q 551 721 567 747 q 515 675 536 694 l 440 675 m 263 675 q 292 706 282 690 q 307 733 303 721 q 282 753 292 740 q 276 782 272 765 q 301 818 281 804 q 346 832 321 832 q 388 817 372 832 q 397 779 403 801 q 340 675 385 715 l 263 675 m 447 724 q 419 691 436 710 q 375 650 401 672 l 524 650 q 574 712 554 678 q 601 779 594 746 q 586 834 608 811 q 528 857 564 857 q 469 839 497 857 q 428 793 440 821 q 403 839 425 821 q 351 857 382 857 q 285 835 315 857 q 249 782 256 814 q 251 749 244 764 q 272 722 258 733 q 245 693 261 711 q 200 650 229 675 l 347 650 q 393 703 374 674 q 421 760 413 732 l 424 760 q 447 724 428 739 m 157 636 q 215 686 193 667 q 249 718 236 706 q 232 782 224 743 q 275 847 240 822 q 354 871 310 871 q 403 860 382 871 q 435 831 424 850 q 531 871 472 871 q 601 844 575 871 q 618 779 626 817 q 529 636 603 701 l 157 636 z "},"":{"ha":465,"x_min":157,"x_max":626,"o":"m 411 704 q 418 712 415 708 q 424 718 421 715 l 422 722 q 419 718 419 719 q 417 715 418 717 l 411 704 m 440 675 q 468 706 458 690 q 483 733 478 721 q 459 753 468 740 q 454 782 450 765 q 478 818 458 804 q 522 832 497 832 q 564 817 549 832 q 574 779 579 801 q 551 721 567 747 q 515 675 536 694 l 440 675 m 263 675 q 292 706 282 690 q 307 733 303 721 q 282 753 292 740 q 276 782 272 765 q 301 818 281 804 q 346 832 321 832 q 388 817 372 832 q 397 779 403 801 q 340 675 385 715 l 263 675 m 447 724 q 419 691 436 710 q 375 650 401 672 l 524 650 q 574 712 554 678 q 601 779 594 746 q 586 834 608 811 q 528 857 564 857 q 469 839 497 857 q 428 793 440 821 q 403 839 425 821 q 351 857 382 857 q 285 835 315 857 q 249 782 256 814 q 251 749 244 764 q 272 722 258 733 q 245 693 261 711 q 200 650 229 675 l 347 650 q 393 703 374 674 q 421 760 413 732 l 424 760 q 447 724 428 739 m 157 636 q 215 686 193 667 q 249 718 236 706 q 232 782 224 743 q 275 847 240 822 q 354 871 310 871 q 403 860 382 871 q 435 831 424 850 q 531 871 472 871 q 601 844 575 871 q 618 779 626 817 q 529 636 603 701 l 157 636 z "},"":{"ha":600,"x_min":146,"x_max":689,"o":"m 146 332 l 653 332 l 689 501 l 182 501 l 146 332 m 668 483 l 639 349 l 167 349 l 196 483 l 668 483 m 204 379 l 614 379 l 629 453 l 219 453 l 204 379 z "},"":{"ha":285,"x_min":42,"x_max":571,"o":"m 165 556 l 254 597 l 324 556 l 571 676 l 450 764 l 358 719 l 292 764 l 42 643 l 165 556 m 288 747 l 356 704 l 442 746 l 540 676 l 326 572 l 258 614 l 172 572 l 72 642 l 288 747 m 178 601 l 264 643 l 333 600 l 493 678 l 438 718 l 350 676 l 282 718 l 121 640 l 178 601 z "},"":{"ha":431,"x_min":163,"x_max":546,"o":"m 393 631 l 385 631 l 383 632 q 354 631 361 632 l 183 631 l 163 539 l 210 539 l 190 444 l 506 444 l 546 631 l 494 631 q 455 626 467 631 q 428 606 443 621 q 409 618 419 613 q 392 628 399 624 l 393 631 m 231 553 l 183 553 l 196 617 l 356 617 q 379 618 363 618 q 400 608 386 618 q 424 582 414 597 l 425 585 q 443 601 436 594 q 456 611 450 608 q 470 615 463 614 q 490 617 478 617 l 526 617 l 493 458 l 418 458 l 419 465 q 399 458 407 458 l 389 458 q 375 460 378 458 l 375 458 l 303 458 l 324 553 l 313 553 l 292 458 l 210 458 l 231 553 m 360 593 l 336 481 l 354 481 l 369 553 l 375 558 l 393 483 q 400 481 394 481 l 404 481 q 409 483 406 481 q 419 492 413 485 q 437 515 426 500 q 464 558 447 531 l 467 554 l 451 481 l 469 481 l 493 596 l 486 596 q 468 592 474 596 q 447 572 463 588 q 441 565 444 569 q 431 554 438 560 l 432 554 q 428 549 429 554 q 425 542 425 543 q 408 517 418 529 l 400 563 q 388 585 399 574 q 374 597 378 597 q 369 593 369 597 l 368 593 l 360 593 m 268 481 l 288 575 l 336 575 l 340 596 l 219 596 l 215 575 l 263 575 l 243 481 l 268 481 z "},"":{"ha":847,"x_min":86,"x_max":1014,"o":"m 426 1007 l 556 892 l 500 892 q 404 872 451 892 q 317 817 357 853 q 249 732 278 782 q 207 619 219 682 q 208 517 196 565 q 251 431 219 468 q 330 372 282 393 q 436 350 378 350 l 474 532 q 408 566 426 543 q 397 619 390 589 q 429 679 404 656 q 492 703 454 703 l 975 703 l 1014 892 l 731 892 l 911 1007 l 785 1136 l 683 1069 l 610 1136 l 426 1007 m 678 1046 l 778 1110 l 878 1008 l 667 872 l 992 872 l 961 722 l 496 722 q 418 694 447 722 q 379 619 389 665 q 388 553 371 581 q 453 515 404 526 l 422 369 q 329 390 371 369 q 261 444 288 410 q 224 524 235 479 q 225 619 214 569 q 264 723 238 676 q 327 803 290 769 q 407 854 364 836 q 496 872 450 872 l 613 872 l 458 1008 l 604 1110 l 678 1046 m 126 190 l 86 0 l 599 0 q 694 19 647 0 q 783 74 742 39 q 853 160 824 110 q 896 272 883 211 q 894 375 907 326 q 851 461 882 424 q 772 520 819 499 q 665 542 724 542 l 626 357 q 692 325 674 347 q 703 272 710 303 q 670 213 694 236 q 610 190 646 190 l 126 190 m 606 171 q 682 199 653 171 q 721 272 711 228 q 711 335 728 308 q 647 374 694 363 l 679 522 q 770 501 729 522 q 838 446 811 481 q 876 367 865 411 q 876 272 886 322 q 836 169 864 215 q 772 89 808 122 q 691 38 735 56 q 603 19 647 19 l 108 19 l 140 171 l 606 171 m 935 757 l 951 839 l 489 839 q 413 823 450 839 q 345 778 376 807 q 291 710 314 750 q 258 619 268 669 q 255 536 249 575 q 280 468 261 497 q 328 422 299 439 q 396 404 358 404 l 414 489 q 350 534 365 500 q 346 619 335 568 q 399 718 358 679 q 503 757 439 757 l 935 757 m 167 136 l 149 54 l 610 54 q 685 69 647 54 q 753 113 722 85 q 808 182 785 142 q 843 272 832 222 q 845 354 851 315 q 820 423 839 393 q 772 470 801 453 q 704 488 742 488 l 685 401 q 749 357 733 390 q 754 272 765 324 q 701 174 742 213 q 599 136 661 136 l 167 136 m 513 1008 l 644 892 l 824 1008 l 767 1068 l 669 1004 l 596 1068 l 513 1008 z "},"":{"ha":235,"x_min":96,"x_max":321,"o":"m 225 519 l 274 383 l 168 250 l 140 311 l 199 385 l 174 461 l 225 519 m 114 311 l 158 204 l 301 385 l 236 565 l 144 458 l 171 383 l 114 311 m 243 596 l 321 385 l 154 175 l 96 310 l 154 385 l 129 463 l 243 596 z "},"":{"ha":1496,"x_min":146,"x_max":1663,"o":"m 165 433 q 165 263 146 343 q 234 124 185 183 q 360 31 283 65 q 532 -4 436 -4 q 653 10 594 -4 q 769 50 713 24 l 758 0 l 1478 0 l 1517 185 l 999 185 l 1106 683 l 1624 683 l 1663 868 l 943 868 l 932 814 q 718 869 840 869 q 531 835 622 869 q 365 742 440 801 q 238 603 290 683 q 165 433 185 524 m 185 433 q 253 595 203 519 q 376 728 304 671 q 535 818 447 785 q 714 851 622 851 q 838 833 781 851 q 943 782 896 815 l 957 849 l 1639 849 l 1607 701 l 1089 701 l 976 167 l 1494 167 l 1463 18 l 781 18 l 794 83 q 670 33 735 51 q 536 15 606 15 q 372 49 444 15 q 251 139 299 82 q 185 272 203 196 q 185 433 167 347 m 219 433 q 219 284 203 354 q 280 162 236 214 q 391 79 324 110 q 543 49 458 49 q 703 76 628 49 q 844 151 779 103 l 824 53 l 1433 53 l 1450 132 l 933 132 l 1061 735 l 1578 735 l 1596 815 l 986 815 l 964 711 q 855 790 919 761 q 707 818 790 818 q 542 788 622 818 q 397 705 463 757 q 283 583 331 653 q 219 433 236 513 m 561 132 q 443 156 496 132 q 356 222 390 181 q 308 318 322 264 q 307 432 294 372 q 357 547 319 492 q 447 643 394 601 q 562 709 499 685 q 690 733 625 733 q 842 690 778 733 q 935 578 907 646 l 874 285 q 810 222 846 250 q 733 174 774 194 q 648 143 692 154 q 561 132 604 132 m 569 167 q 717 201 646 167 q 839 292 789 235 l 897 569 q 815 664 871 628 q 683 700 760 700 q 569 678 625 700 q 466 620 513 657 q 387 535 419 583 q 343 432 354 486 q 344 330 332 378 q 386 246 356 282 q 464 188 417 210 q 569 167 511 167 m 572 185 q 474 205 518 185 q 403 259 431 225 q 363 338 375 293 q 363 432 351 383 q 403 527 372 482 q 477 606 433 572 q 573 661 521 640 q 679 682 625 682 q 800 649 749 682 q 878 563 851 615 l 822 300 q 708 216 774 247 q 572 185 642 185 m 1079 504 l 1040 319 l 1535 319 l 1574 504 l 1079 504 m 1094 486 l 1550 486 l 1519 339 l 1064 339 l 1094 486 m 1124 453 l 1107 372 l 1492 372 l 1508 453 l 1124 453 z "},"":{"ha":863,"x_min":28,"x_max":1086,"o":"m 651 892 l 519 1008 l 604 1068 l 676 1004 l 774 1068 l 833 1008 l 651 892 m 672 511 l 564 511 l 792 757 l 293 757 l 310 839 l 974 839 l 672 511 m 142 54 l 483 422 l 589 422 l 325 136 l 822 136 l 804 54 l 142 54 m 68 19 l 831 19 l 863 171 l 397 171 l 660 457 l 475 457 l 68 19 m 885 1008 l 785 1110 l 685 1046 l 613 1110 l 465 1008 l 621 872 l 283 872 l 253 722 l 719 722 l 492 476 l 681 476 l 1046 872 l 674 872 l 885 1008 m 739 892 l 1086 892 l 703 476 l 704 476 l 439 190 l 885 190 l 844 0 l 28 0 l 453 460 l 676 703 l 231 703 l 269 892 l 563 892 l 433 1007 l 617 1136 l 690 1069 l 792 1136 l 918 1007 l 739 892 z "},"":{"ha":885,"x_min":193,"x_max":1138,"o":"m 379 0 l 571 0 l 638 317 l 1138 890 l 904 890 l 585 532 l 424 890 l 193 890 l 446 311 l 379 0 m 465 318 l 224 871 l 410 871 l 578 497 l 910 871 l 1096 871 l 622 325 l 557 19 l 401 19 l 465 318 m 442 54 l 531 54 l 590 335 l 1026 836 l 919 836 l 565 436 l 386 836 l 281 836 l 500 328 l 442 54 m 450 978 q 466 890 439 925 q 544 856 493 856 q 617 876 582 856 q 672 931 653 897 q 705 876 679 897 q 769 856 731 856 q 818 865 794 856 q 861 890 842 874 q 894 929 881 907 q 914 978 908 951 q 899 1067 925 1032 q 822 1101 874 1101 q 748 1081 783 1101 q 693 1025 713 1060 q 660 1081 686 1060 q 597 1101 635 1101 q 548 1092 572 1101 q 503 1067 524 1083 q 469 1027 483 1050 q 450 978 456 1004 m 693 978 q 738 1052 703 1022 q 818 1082 774 1082 q 884 1052 861 1082 q 897 978 907 1022 q 852 904 888 933 q 774 875 817 875 q 706 904 729 875 q 693 978 683 933 m 469 978 q 515 1052 479 1022 q 593 1082 550 1082 q 660 1052 636 1082 q 674 978 683 1022 q 628 904 664 933 q 549 875 592 875 q 483 904 506 875 q 469 978 460 933 m 726 978 q 735 929 719 949 q 781 910 750 910 q 833 929 810 910 q 864 978 857 949 q 855 1028 871 1008 q 810 1047 839 1047 q 756 1028 779 1047 q 726 978 733 1008 m 503 978 q 511 929 496 949 q 556 910 526 910 q 608 929 585 910 q 639 978 632 949 q 630 1028 646 1008 q 585 1047 614 1047 q 533 1028 556 1047 q 503 978 510 1008 z "},"":{"ha":203,"x_min":53,"x_max":361,"o":"m 231 750 q 253 798 238 779 q 288 817 269 817 q 316 798 307 817 q 318 750 325 779 q 294 701 311 719 q 258 682 278 682 q 232 701 240 682 q 231 750 224 719 m 210 750 q 213 678 200 707 q 251 650 225 650 q 304 678 279 650 q 339 750 329 707 q 335 822 347 793 q 294 851 322 851 q 243 822 268 851 q 210 750 218 793 m 197 750 q 238 836 208 803 q 299 869 267 869 q 347 836 332 869 q 350 750 361 803 q 310 664 339 697 q 249 631 282 631 q 201 664 217 631 q 197 750 186 697 m 265 572 l 154 53 l 97 53 l 208 572 l 265 572 m 71 18 l 168 18 l 293 607 l 196 607 l 71 18 m 310 625 l 176 0 l 53 0 l 186 625 l 310 625 z "},"":{"ha":919,"x_min":149,"x_max":1050,"o":"m 350 447 q 363 304 333 368 q 456 210 393 240 l 557 683 q 424 588 481 653 q 350 447 367 524 m 332 447 q 365 533 342 492 q 422 610 389 575 q 495 671 454 644 q 581 711 536 697 l 468 185 q 400 224 429 199 q 352 283 371 249 q 328 360 333 318 q 332 447 322 401 m 299 447 q 296 338 286 390 q 331 245 306 286 q 398 176 357 204 q 492 139 439 149 l 624 757 q 514 719 567 747 q 417 650 461 692 q 342 556 374 608 q 299 447 311 504 m 764 1000 l 731 844 q 897 770 831 832 q 988 613 964 708 l 908 565 q 840 693 892 642 q 713 757 788 744 l 581 139 q 722 194 656 150 q 839 303 789 238 l 886 238 q 739 112 822 160 q 563 53 656 64 l 529 -107 l 440 -107 l 474 53 q 347 95 401 61 q 258 182 292 129 q 213 303 224 235 q 218 449 201 372 q 274 593 235 525 q 371 715 314 661 q 497 802 428 768 q 642 844 567 836 l 675 1000 l 764 1000 m 1028 601 q 933 781 1000 708 q 771 874 867 853 l 806 1036 l 650 1036 l 615 875 q 467 822 538 861 q 339 726 396 783 q 241 598 282 669 q 183 449 200 526 q 177 299 167 369 q 221 171 188 228 q 309 76 254 114 q 435 24 364 38 l 399 -143 l 554 -143 l 590 24 q 768 99 682 42 q 928 243 854 156 l 843 358 q 738 249 794 294 q 624 185 681 204 l 736 711 q 827 638 789 689 q 882 515 865 586 l 1028 601 m 826 1054 l 792 889 q 955 785 888 864 q 1050 593 1022 707 l 868 485 q 822 605 853 554 q 747 682 790 656 l 649 213 q 747 281 696 236 q 847 390 799 326 l 954 246 q 788 90 876 151 q 604 7 699 29 l 568 -162 l 376 -162 l 413 7 q 288 64 342 24 q 201 163 233 104 q 158 295 168 222 q 165 449 149 368 q 223 601 182 528 q 322 733 264 674 q 451 833 379 792 q 600 890 522 874 l 635 1054 l 826 1054 z "},"":{"ha":785,"x_min":-67,"x_max":814,"o":"m 193 278 q 218 341 200 313 q 258 394 236 369 l 68 394 l 85 474 l 269 474 q 256 525 260 496 q 258 589 251 554 q 292 677 268 636 q 348 749 315 718 q 419 797 381 779 q 494 814 457 814 l 622 814 l 604 735 l 493 735 q 442 722 467 735 q 399 688 418 708 q 367 641 381 667 q 349 590 354 615 q 356 528 342 561 q 394 474 371 494 l 669 474 l 653 394 l 379 394 q 318 340 346 372 q 283 276 290 307 q 280 226 278 251 q 291 179 282 200 q 318 145 300 158 q 363 132 336 132 l 750 132 l 733 53 l -4 53 l 13 132 l 206 132 q 193 278 175 192 m 160 278 q 157 167 144 214 l -12 167 l -44 18 l 760 18 l 792 167 l 371 167 q 340 177 351 167 q 322 203 328 188 q 314 238 315 218 q 317 276 313 257 q 340 320 322 297 q 382 360 358 343 l 679 360 l 711 507 l 413 507 q 388 547 396 524 q 383 590 379 569 q 397 628 388 608 q 420 664 407 649 q 450 690 433 679 q 486 700 467 700 l 632 700 l 664 849 l 501 849 q 413 828 457 849 q 331 773 368 808 q 265 690 293 738 q 225 589 236 643 q 224 507 215 544 l 60 507 l 28 360 l 193 360 q 160 278 168 325 m 142 278 q 163 342 147 310 l 6 342 l 46 526 l 201 526 q 201 556 199 540 q 207 589 204 571 q 249 698 219 647 q 320 786 279 749 q 409 845 361 824 q 506 867 457 867 l 686 867 l 646 682 l 482 682 q 455 674 468 682 q 431 652 442 665 q 413 623 421 639 q 401 590 406 607 q 406 558 399 575 q 426 526 413 542 l 735 526 l 694 342 l 386 342 q 353 309 367 326 q 336 276 339 292 q 333 243 333 260 q 338 215 333 228 q 351 193 343 201 q 374 185 360 185 l 814 185 l 775 0 l -67 0 l -28 185 l 133 185 q 133 229 132 206 q 142 278 135 253 z "},"":{"ha":897,"x_min":25,"x_max":1122,"o":"m 233 0 l 393 222 q 521 186 442 186 q 664 222 596 186 l 726 0 l 939 0 l 817 428 l 818 432 l 1122 867 l 910 867 l 751 639 q 694 665 726 654 q 625 675 663 675 q 551 665 585 675 q 485 638 517 654 l 421 867 l 210 867 l 326 429 l 25 0 l 233 0 m 343 425 l 346 435 l 235 849 l 406 849 l 471 607 q 622 657 544 657 q 750 608 701 657 l 917 849 l 1089 849 l 800 438 q 801 433 801 435 q 800 429 800 431 l 799 425 l 797 424 l 796 421 l 913 18 l 742 18 l 674 251 q 603 216 640 228 q 525 204 565 204 q 393 251 446 204 l 228 18 l 58 18 l 343 425 m 382 443 l 376 417 l 121 53 l 217 53 l 396 307 q 449 256 415 275 q 532 236 483 236 q 622 256 579 236 q 697 307 664 275 l 771 53 l 865 53 l 764 417 l 764 419 q 765 422 764 421 q 767 425 767 422 l 768 429 q 768 435 768 432 q 769 443 768 439 l 1028 814 l 932 814 l 750 553 q 696 604 731 585 q 614 624 661 624 q 525 604 565 624 q 449 553 485 585 l 379 814 l 283 814 l 382 443 m 457 429 q 475 474 461 453 q 509 512 489 496 q 552 538 529 528 q 599 547 575 547 q 674 512 647 547 q 692 429 701 476 q 672 385 686 406 q 638 349 658 365 q 595 324 618 333 q 549 315 572 315 q 506 324 525 315 q 474 349 486 333 q 456 385 461 365 q 457 429 451 406 m 490 429 q 502 372 483 396 q 556 349 521 349 q 621 372 590 349 q 658 429 651 396 q 646 488 665 464 q 590 513 626 513 q 526 488 556 513 q 490 429 497 464 m 510 429 q 538 475 515 456 q 588 494 561 494 q 630 475 615 494 q 639 429 644 456 q 610 387 633 406 q 560 368 586 368 q 519 387 533 368 q 510 429 504 406 z "},"":{"ha":885,"x_min":189,"x_max":1133,"o":"m 206 85 l 397 85 l 379 0 l 571 0 l 589 85 l 782 85 l 851 413 l 726 413 l 1133 867 l 900 867 l 582 518 l 419 867 l 189 867 l 392 413 l 275 413 l 206 85 m 424 394 l 219 849 l 406 849 l 575 485 l 906 849 l 1092 849 l 688 394 l 828 394 l 767 103 l 575 103 l 557 18 l 401 18 l 419 103 l 228 103 l 289 394 l 424 394 m 299 279 l 490 279 l 476 217 l 285 217 l 268 136 l 460 136 l 442 53 l 531 53 l 549 136 l 740 136 l 757 217 l 565 217 l 579 279 l 771 279 l 788 360 l 617 360 l 1022 814 l 915 814 l 563 425 l 382 814 l 276 814 l 479 360 l 315 360 l 299 279 z "},"":{"ha":168,"x_min":-6,"x_max":379,"o":"m 297 1074 l 342 1074 l 224 519 l 179 519 l 297 1074 m 206 429 l 78 -167 l 33 -167 l 161 429 l 206 429 m 156 483 l 232 483 l 365 1108 l 289 1108 l 156 483 m 10 -203 l 86 -203 l 228 464 l 151 464 l 10 -203 m 379 1128 l 92 -222 l -6 -222 l 282 1128 l 379 1128 z "},"":{"ha":897,"x_min":25,"x_max":1122,"o":"m 1122 867 l 910 867 l 751 639 q 694 665 726 654 q 625 675 663 675 q 524 656 574 675 q 435 603 475 636 q 365 525 394 569 q 326 431 336 481 l 326 429 l 25 0 l 233 0 l 393 222 q 521 186 442 186 q 621 205 572 186 q 709 257 669 224 q 778 335 749 290 q 818 432 807 381 l 1122 867 m 801 438 l 801 435 q 764 345 790 388 q 700 272 738 303 q 617 222 663 240 q 525 204 572 204 q 393 251 446 204 l 228 18 l 58 18 l 343 425 l 344 431 q 381 517 354 476 q 447 590 408 558 q 531 639 485 621 q 622 657 576 657 q 750 608 701 657 l 917 849 l 1089 849 l 801 438 m 1028 814 l 932 814 l 750 553 q 696 604 731 585 q 614 624 661 624 q 535 608 574 624 q 465 567 497 593 q 410 505 433 540 q 379 431 388 469 l 376 417 l 121 53 l 217 53 l 396 307 q 449 256 415 275 q 532 236 483 236 q 611 251 572 236 q 682 293 650 267 q 737 355 714 319 q 768 431 760 390 l 769 443 l 1028 814 m 457 429 q 475 474 461 453 q 509 512 489 496 q 552 538 529 528 q 599 547 575 547 q 674 512 647 547 q 692 429 701 476 q 672 385 686 406 q 638 349 658 365 q 595 324 618 333 q 549 315 572 315 q 506 324 525 315 q 474 349 486 333 q 456 385 461 365 q 457 429 451 406 m 490 429 q 502 372 483 396 q 556 349 521 349 q 621 372 590 349 q 658 429 651 396 q 646 488 665 464 q 590 513 626 513 q 526 488 556 513 q 490 429 497 464 m 510 429 q 538 475 515 456 q 588 494 561 494 q 630 475 615 494 q 639 429 644 456 q 610 387 633 406 q 560 368 586 368 q 519 387 533 368 q 510 429 504 406 z "},"":{"ha":360,"x_min":122,"x_max":544,"o":"m 129 594 q 147 541 122 563 q 217 519 172 519 q 280 532 250 519 q 328 565 310 544 q 356 532 333 544 q 415 519 379 519 q 495 541 460 519 q 538 594 531 563 q 518 649 544 628 q 447 669 492 669 q 383 656 411 669 q 339 624 354 643 q 307 656 331 643 q 249 669 283 669 q 170 649 204 669 q 129 594 136 628 m 146 594 q 182 640 153 622 q 247 657 211 657 q 308 640 286 657 q 324 594 331 622 q 289 551 318 569 q 221 533 260 533 q 163 551 185 533 q 146 594 140 569 m 342 594 q 378 640 349 622 q 446 657 408 657 q 504 640 482 657 q 519 594 526 622 q 485 551 514 569 q 419 533 456 533 q 359 551 382 533 q 342 594 336 569 m 371 594 q 382 564 367 575 q 424 553 397 553 q 467 564 449 553 q 490 594 486 575 q 481 626 494 614 q 442 638 467 638 q 395 626 415 638 q 371 594 375 614 m 175 594 q 185 564 171 575 q 225 553 200 553 q 271 564 251 553 q 294 594 290 575 q 284 626 299 614 q 243 638 269 638 q 199 626 218 638 q 175 594 179 614 z "},"":{"ha":329,"x_min":174,"x_max":442,"o":"m 307 585 l 310 585 q 311 575 310 581 q 304 567 307 569 l 307 585 m 346 563 q 299 528 329 528 q 261 576 251 528 q 319 626 274 626 q 351 597 351 626 l 336 594 q 317 611 332 611 q 279 576 288 611 q 301 546 272 546 q 332 565 319 546 l 346 563 m 324 647 q 256 611 283 647 q 238 576 242 597 q 236 561 236 568 q 239 549 236 554 q 260 518 243 528 q 278 510 268 511 q 293 510 288 510 l 294 510 q 329 518 300 510 q 362 544 349 528 q 378 576 375 561 l 379 581 q 367 626 385 606 q 326 647 350 647 l 324 647 m 328 664 q 370 647 353 664 q 390 618 388 629 l 390 619 q 394 576 400 599 q 386 556 393 568 q 368 529 379 544 q 338 505 358 518 q 290 492 317 492 q 246 504 268 492 q 235 516 239 511 q 225 531 232 521 q 219 557 219 546 q 219 576 218 568 q 234 609 224 593 q 260 638 244 625 q 293 657 275 650 q 328 664 311 664 m 332 689 q 288 679 311 689 q 247 654 265 669 q 213 619 228 639 q 194 576 199 599 q 199 519 188 549 l 200 521 q 213 500 207 507 q 231 482 219 493 l 229 482 q 285 467 260 467 q 347 486 317 467 q 393 525 378 506 l 393 524 q 419 576 415 556 q 415 632 426 604 q 386 668 408 647 q 332 689 364 689 m 336 703 q 397 680 371 703 q 429 639 422 657 l 431 639 q 435 576 442 607 q 423 545 432 561 q 401 513 414 529 q 353 472 385 493 q 282 451 321 451 q 218 469 254 451 q 201 489 207 481 q 185 514 194 497 q 181 576 174 543 q 202 624 186 601 q 240 665 218 647 q 286 692 261 682 q 336 703 311 703 z "},"":{"ha":949,"x_min":19,"x_max":997,"o":"m 924 53 l 824 53 l 772 240 l 475 240 l 525 319 l 749 319 l 649 672 l 214 53 l 115 53 l 689 861 l 924 53 m 744 207 l 794 18 l 971 18 l 704 938 l 53 18 l 228 18 l 632 594 l 699 354 l 508 354 l 414 207 l 744 207 m 997 0 l 779 0 l 728 188 l 383 188 l 500 372 l 674 372 l 624 553 l 236 0 l 19 0 l 714 978 l 997 0 z "},"":{"ha":475,"x_min":121,"x_max":590,"o":"m 321 594 l 121 385 l 232 176 l 356 293 l 417 176 l 558 311 l 517 385 l 590 461 l 506 594 l 394 476 l 321 594 m 143 385 l 317 565 l 381 460 l 311 385 l 350 311 l 239 204 l 143 385 m 329 385 l 501 565 l 567 460 l 496 385 l 536 311 l 424 204 l 329 385 m 306 519 l 178 385 l 249 251 l 315 311 l 275 385 l 346 460 l 306 519 m 492 519 l 364 385 l 435 251 l 500 311 l 460 385 l 531 460 l 492 519 z "},"":{"ha":603,"x_min":136,"x_max":675,"o":"m 499 186 l 531 333 l 194 333 l 208 397 l 618 397 l 572 186 l 499 186 m 461 158 l 599 158 l 656 425 l 183 425 l 158 306 l 493 306 l 461 158 m 442 143 l 472 290 l 136 290 l 168 440 l 675 440 l 613 143 l 442 143 z "},"":{"ha":493,"x_min":108,"x_max":529,"o":"m 158 193 l 165 232 l 478 232 l 471 193 l 158 193 m 126 179 l 496 179 l 511 246 l 142 246 l 126 179 m 108 168 l 126 256 l 529 256 l 511 168 l 108 168 z "},"":{"ha":329,"x_min":172,"x_max":442,"o":"m 311 593 l 313 594 l 313 592 l 311 593 m 304 592 l 299 588 l 300 596 l 303 596 l 304 592 m 303 604 q 290 594 299 603 l 289 589 q 290 581 289 583 l 296 581 l 311 593 l 303 604 m 289 589 l 288 581 l 290 581 q 292 578 290 578 l 296 581 l 308 581 q 326 592 322 581 q 319 607 326 601 l 293 607 l 290 592 l 289 589 m 260 529 l 279 622 l 311 622 q 335 618 331 622 l 333 618 q 340 614 338 615 q 344 611 343 613 q 345 609 344 610 q 346 606 346 608 l 346 597 q 317 569 342 574 q 325 563 324 564 q 331 550 325 558 l 339 529 l 315 529 l 314 546 l 313 544 q 308 551 310 550 q 303 561 306 558 q 300 565 301 564 q 297 566 299 565 q 293 567 296 567 l 285 567 l 276 529 l 260 529 m 324 646 q 256 611 282 646 q 239 581 240 594 l 238 576 l 238 567 q 238 560 238 564 q 239 553 238 557 q 238 550 238 554 q 239 543 239 546 q 243 533 238 539 q 257 522 249 526 q 275 513 265 517 q 292 508 285 508 l 294 508 q 323 515 310 508 q 360 544 336 521 l 360 543 q 372 561 369 557 q 378 576 374 565 l 378 581 q 367 625 383 604 q 326 646 350 646 l 324 646 m 328 664 q 365 651 349 664 l 364 651 q 391 620 382 642 q 394 578 400 599 l 394 576 q 372 533 390 557 l 372 535 q 332 503 360 514 q 292 492 304 492 l 290 492 q 224 533 240 492 q 219 572 215 553 l 219 576 q 226 594 222 588 q 235 608 229 601 q 260 637 249 628 q 282 651 271 646 l 281 651 q 328 664 301 664 m 332 689 q 278 676 299 689 q 244 656 258 668 q 215 619 231 643 q 203 600 208 608 q 194 576 197 592 l 194 572 q 199 521 188 546 q 285 467 221 467 l 286 467 q 326 476 300 467 q 374 504 353 485 l 378 504 l 383 513 l 383 511 q 387 516 386 514 q 390 521 388 518 q 419 576 415 551 l 419 578 q 416 632 426 604 q 383 672 406 660 q 332 689 363 689 m 336 703 q 390 688 367 703 l 389 688 q 429 642 417 674 q 435 578 442 610 l 435 576 q 404 515 429 551 l 403 515 q 399 510 400 513 q 396 506 399 507 l 404 489 l 378 489 q 326 461 354 471 q 283 451 299 451 l 282 451 q 182 511 210 451 q 181 572 172 543 l 181 576 q 188 600 183 592 q 196 617 193 608 q 199 621 199 619 q 201 625 199 622 q 235 665 221 653 q 269 686 250 678 l 269 688 q 336 703 304 703 z "},"":{"ha":794,"x_min":142,"x_max":871,"o":"m 199 347 l 207 386 l 814 386 l 806 347 l 199 347 m 163 333 l 836 333 l 850 401 l 176 401 l 163 333 m 142 322 l 161 411 l 871 411 l 851 322 l 142 322 z "},"":{"ha":131,"x_min":121,"x_max":288,"o":"m 213 594 q 201 585 211 585 q 196 594 194 585 q 206 603 197 603 q 213 594 214 603 m 189 594 q 190 583 186 588 q 201 579 194 579 q 218 594 214 579 q 207 607 221 607 q 189 594 192 607 m 219 594 q 207 610 222 610 q 194 606 200 610 q 188 594 189 601 q 189 582 185 588 q 200 576 193 576 q 219 594 214 576 m 161 594 q 180 626 165 614 q 214 638 194 638 q 247 594 257 638 q 229 564 243 575 q 196 553 215 553 q 167 564 176 553 q 161 594 157 575 m 140 594 q 149 551 135 569 q 192 533 164 533 q 241 551 219 533 q 268 594 263 569 q 260 640 275 622 q 218 657 246 657 q 169 640 190 657 q 140 594 147 622 m 128 594 q 161 649 135 628 q 219 669 188 669 q 269 649 251 669 q 281 594 288 628 q 247 541 274 563 q 188 519 219 519 q 138 541 156 519 q 128 594 121 563 z "},"":{"ha":600,"x_min":75,"x_max":694,"o":"m 135 51 l 151 131 l 561 131 l 544 51 l 135 51 m 338 224 l 375 401 l 208 401 l 226 481 l 393 481 l 431 658 l 506 658 l 468 481 l 636 481 l 618 401 l 450 401 l 413 224 l 338 224 m 97 18 l 569 18 l 600 163 l 128 163 l 97 18 m 300 190 l 435 190 l 472 368 l 643 368 l 675 514 l 504 514 l 542 692 l 407 692 l 369 514 l 203 514 l 171 368 l 338 368 l 300 190 m 75 0 l 113 179 l 281 179 l 318 350 l 150 350 l 188 532 l 356 532 l 394 710 l 564 710 l 525 532 l 694 532 l 657 350 l 488 350 l 450 179 l 619 179 l 582 0 l 75 0 z "},"":{"ha":461,"x_min":146,"x_max":603,"o":"m 264 700 l 278 767 l 475 767 q 532 739 511 767 q 543 665 553 711 q 526 626 539 644 q 497 593 514 607 q 458 571 479 579 q 417 563 438 563 l 431 628 q 475 665 469 636 q 472 690 478 681 q 449 700 467 700 l 264 700 m 285 494 l 503 494 l 488 428 l 200 428 l 222 531 q 239 568 226 550 q 269 600 251 586 q 309 622 288 614 q 351 631 331 631 l 338 565 q 292 531 299 557 l 285 494 m 257 797 l 231 671 l 443 671 q 446 665 446 671 q 408 651 444 660 l 383 535 q 447 545 415 535 q 503 574 478 556 q 548 615 529 592 q 572 665 567 639 q 557 761 585 725 q 482 797 529 797 l 257 797 m 321 531 q 360 542 321 536 l 385 661 q 321 650 353 661 q 263 621 289 639 q 218 579 236 603 q 194 531 200 556 l 167 397 l 511 397 l 538 524 l 319 524 l 321 531 m 589 665 q 547 592 581 625 q 469 542 514 560 l 558 542 l 524 381 l 146 381 l 178 531 q 217 599 185 567 q 294 653 249 632 l 210 653 l 244 814 l 486 814 q 572 774 540 814 q 589 665 603 733 z "},"":{"ha":419,"x_min":149,"x_max":551,"o":"m 149 381 l 356 381 q 408 392 382 381 q 456 424 435 404 q 494 473 478 444 q 518 535 511 501 q 517 594 524 567 q 533 625 526 610 q 544 660 540 640 q 547 721 551 693 q 530 769 543 749 q 496 802 517 790 q 449 814 475 814 l 242 814 l 207 653 l 308 653 l 285 542 l 183 542 l 149 381 m 408 661 q 410 666 410 664 q 415 671 411 668 l 226 671 l 253 797 l 444 797 q 485 787 467 797 q 516 758 504 776 q 531 714 528 739 q 529 660 535 689 q 499 593 521 622 q 504 567 503 582 q 503 535 506 551 q 481 481 496 506 q 447 437 467 456 q 405 408 428 418 q 360 397 382 397 l 168 397 l 194 524 l 381 524 l 382 526 q 381 535 378 526 l 300 535 l 326 661 l 408 661 m 349 631 l 333 563 l 397 563 q 408 535 411 549 q 397 507 406 519 q 376 494 388 494 l 217 494 l 201 428 l 365 428 q 433 458 401 428 q 475 535 464 489 q 476 569 479 554 q 465 594 472 583 q 487 622 476 607 q 501 660 497 638 q 493 737 513 707 q 438 767 474 767 l 274 767 l 260 700 l 418 700 q 434 688 429 700 q 436 660 439 675 q 428 645 435 653 q 414 631 421 638 l 349 631 z "},"":{"ha":176,"x_min":118,"x_max":374,"o":"m 374 674 l 282 768 l 118 638 l 208 550 l 374 674 m 142 639 l 276 746 l 351 674 l 213 572 l 142 639 m 318 672 l 272 718 l 175 640 l 217 597 l 318 672 z "},"":{"ha":988,"x_min":40,"x_max":1157,"o":"m 104 -164 l 317 836 l 403 836 l 311 404 q 323 300 307 349 q 372 215 339 251 q 453 157 406 178 q 557 136 500 136 q 669 157 614 136 q 772 215 725 178 q 856 300 819 251 q 913 404 893 349 l 1004 836 l 1093 836 l 1010 443 q 947 290 992 361 q 838 165 901 218 q 697 81 774 111 q 539 50 619 50 q 376 88 446 50 q 265 192 307 125 l 190 -164 l 104 -164 m 564 171 q 471 190 513 171 q 400 240 429 208 q 356 315 371 272 q 346 408 342 358 l 444 871 l 289 871 l 63 -199 l 218 -199 l 283 113 q 392 41 331 67 q 531 15 454 15 q 702 49 618 15 q 856 140 786 82 q 974 276 925 199 q 1043 443 1024 354 l 1133 871 l 978 871 l 879 408 q 830 315 863 358 q 755 240 797 272 q 663 190 713 208 q 564 171 614 171 m 40 -218 l 275 890 l 467 890 l 365 411 q 375 325 361 365 q 416 255 389 285 q 482 208 443 225 q 568 190 521 190 q 661 208 615 190 q 746 255 707 225 q 815 325 785 285 q 861 411 846 365 l 963 890 l 1157 890 l 1063 443 q 991 269 1043 350 q 866 127 939 188 q 706 31 793 67 q 526 -4 618 -4 q 396 15 454 -4 q 293 71 338 35 l 232 -218 l 40 -218 z "},"":{"ha":771,"x_min":190,"x_max":939,"o":"m 606 -47 l 774 744 l 590 744 l 422 -47 l 332 -47 l 422 378 q 322 396 360 378 q 265 444 283 414 q 244 515 246 475 q 250 597 242 554 q 283 688 260 646 q 338 760 307 729 q 406 808 369 790 q 481 825 443 825 l 875 825 l 690 -47 l 606 -47 m 564 -82 l 715 -82 l 917 860 l 489 860 q 403 839 446 860 q 322 783 360 818 q 258 699 285 747 q 218 597 231 651 q 210 508 208 551 q 229 430 211 464 q 284 373 247 396 q 382 344 321 350 l 290 -82 l 447 -82 l 617 713 l 733 713 l 564 -82 m 543 -100 l 711 693 l 631 693 l 463 -100 l 269 -100 l 360 326 q 264 358 300 333 q 210 420 228 383 q 192 503 193 457 q 200 597 190 549 q 242 708 213 657 q 312 798 272 760 q 399 858 351 836 q 493 879 446 879 l 939 879 l 731 -100 l 543 -100 z "},"":{"ha":221,"x_min":100,"x_max":267,"o":"m 107 283 q 118 230 100 251 q 168 208 136 208 q 227 230 201 208 q 260 283 253 251 q 250 338 267 317 q 200 358 233 358 q 141 338 168 358 q 107 283 114 317 m 119 283 q 149 328 126 311 q 197 346 171 346 q 240 328 225 346 q 247 283 254 311 q 220 239 242 257 q 171 221 199 221 q 129 239 144 221 q 119 283 114 257 m 140 283 q 147 253 138 265 q 175 242 156 242 q 210 253 194 242 q 228 283 225 265 q 222 315 232 303 q 193 326 213 326 q 159 315 174 326 q 140 283 144 303 z "},"":{"ha":206,"x_min":-58,"x_max":221,"o":"m 168 42 q 147 -3 158 15 q 117 -38 135 -22 q 76 -67 100 -54 q 21 -96 53 -81 l -4 -46 q 66 -8 44 -25 q 97 42 88 10 l 168 42 m 7 -126 q 78 -90 47 -108 q 131 -50 108 -72 q 172 -1 154 -28 q 203 64 189 26 l 81 64 q 67 33 75 46 q 44 8 58 19 q 11 -14 31 -4 q -36 -35 -8 -24 l 7 -126 m 221 79 q 186 2 206 35 q 141 -56 167 -31 q 80 -101 115 -81 q -3 -144 44 -122 l -58 -29 q 31 19 4 -4 q 71 79 58 42 l 221 79 z "},"":{"ha":235,"x_min":165,"x_max":381,"o":"m 225 814 l 190 651 l 224 651 l 165 381 l 288 381 l 381 814 l 225 814 m 239 668 l 206 668 l 233 797 l 364 797 l 279 397 l 182 397 l 239 668 m 247 767 l 233 699 l 265 699 l 207 428 l 265 428 l 338 767 l 247 767 z "},"":{"ha":521,"x_min":186,"x_max":646,"o":"m 196 600 q 194 515 186 554 q 226 446 203 475 q 287 399 250 417 q 369 382 324 382 q 459 399 415 382 q 539 446 503 417 q 601 515 575 475 q 636 600 626 554 q 637 685 646 644 q 604 755 628 725 q 544 802 581 785 q 463 819 508 819 q 372 802 417 819 q 292 755 328 785 q 231 685 256 725 q 196 600 206 644 m 213 600 q 245 678 221 642 q 303 742 269 714 q 378 785 338 769 q 460 801 418 801 q 535 785 501 801 q 590 742 568 769 q 620 678 613 714 q 619 600 628 642 q 587 522 611 558 q 529 458 563 486 q 456 415 496 431 q 374 399 415 399 q 298 415 332 399 q 242 458 264 431 q 213 522 221 486 q 213 600 204 558 m 242 600 q 240 533 233 564 q 266 478 247 501 q 314 442 285 456 q 379 428 343 428 q 449 442 415 428 q 512 478 483 456 q 560 533 540 501 q 589 600 581 564 q 589 667 596 635 q 564 722 582 699 q 517 758 546 744 q 453 772 489 772 q 382 758 417 772 q 318 722 347 744 q 269 667 289 699 q 242 600 249 635 m 311 600 q 328 640 315 621 q 358 673 340 658 q 397 696 375 688 q 439 704 418 704 q 506 672 482 704 q 521 600 529 640 q 504 561 517 579 q 474 529 492 543 q 435 507 456 515 q 394 499 415 499 q 326 529 350 499 q 311 600 303 560 m 342 600 q 352 549 335 568 q 401 529 369 529 q 458 549 432 529 q 490 600 483 568 q 481 652 497 631 q 432 674 464 674 q 374 652 400 674 q 342 600 349 631 m 358 600 q 384 640 363 622 q 429 657 406 657 q 465 640 453 657 q 474 600 478 622 q 448 562 468 578 q 406 546 428 546 q 367 562 382 546 q 358 600 353 578 z "},"":{"ha":475,"x_min":104,"x_max":574,"o":"m 443 519 l 515 385 l 386 251 l 349 311 l 418 385 l 379 460 l 443 519 m 257 519 l 331 385 l 200 251 l 163 311 l 231 385 l 193 460 l 257 519 m 128 311 l 190 204 l 364 385 l 268 565 l 158 460 l 197 385 l 128 311 m 313 311 l 378 204 l 549 385 l 456 565 l 343 460 l 383 385 l 313 311 m 275 594 l 338 476 l 463 594 l 574 385 l 374 176 l 299 293 l 186 176 l 104 311 l 175 385 l 136 461 l 275 594 z "},"":{"ha":925,"x_min":81,"x_max":1010,"o":"m 618 435 l 706 435 l 668 264 l 763 264 l 746 186 l 564 186 l 618 435 m 864 53 l 776 53 l 858 435 l 946 435 l 864 53 m 276 432 l 342 736 l 290 736 l 307 814 l 444 814 l 363 432 l 276 432 m 267 53 l 175 53 l 718 814 l 813 814 l 267 53 m 872 849 l 704 849 l 396 415 l 393 415 l 485 849 l 281 849 l 249 701 l 300 701 l 236 399 l 382 399 l 113 18 l 281 18 l 582 439 l 585 439 l 524 151 l 764 151 l 736 18 l 890 18 l 986 468 l 832 468 l 794 297 l 707 297 l 744 468 l 601 468 l 872 849 m 636 488 l 768 488 l 731 317 l 779 317 l 817 488 l 1010 488 l 906 0 l 713 0 l 740 133 l 500 133 l 550 368 l 289 0 l 81 0 l 350 379 l 213 379 l 278 683 l 228 683 l 267 867 l 507 867 l 425 485 l 697 867 l 906 867 l 636 488 z "},"":{"ha":922,"x_min":81,"x_max":983,"o":"m 267 867 l 228 683 l 278 683 l 213 379 l 350 379 l 81 0 l 288 0 l 551 368 l 539 306 l 638 306 q 548 245 585 282 q 503 168 511 208 l 467 0 l 901 0 l 939 179 l 836 179 q 927 238 889 203 q 975 318 965 274 q 977 387 983 356 q 954 440 971 418 q 912 475 938 463 q 856 488 886 488 l 636 488 l 906 867 l 697 867 l 425 485 l 507 867 l 267 867 m 396 415 l 704 849 l 872 849 l 601 468 l 851 468 q 900 457 878 468 q 937 426 922 446 q 957 379 951 407 q 956 318 963 351 q 928 263 949 289 q 876 216 907 236 q 810 184 846 196 q 736 172 774 172 l 765 304 q 798 313 786 308 q 811 318 810 317 q 807 325 811 325 l 561 325 l 585 439 l 582 439 l 281 18 l 113 18 l 382 399 l 236 399 l 300 701 l 249 701 l 281 849 l 485 849 l 393 415 l 396 415 m 522 168 q 549 222 528 196 q 599 269 569 249 q 666 303 629 290 q 740 315 703 315 l 713 182 q 667 168 667 174 l 665 161 l 918 161 l 888 18 l 490 18 l 522 168 m 175 53 l 267 53 l 813 814 l 718 814 l 175 53 m 307 814 l 290 736 l 342 736 l 276 432 l 363 432 l 444 814 l 307 814 m 860 53 l 876 128 l 626 128 l 635 168 q 683 208 642 200 l 699 281 q 651 272 675 281 q 608 247 628 263 q 574 210 589 231 q 556 168 560 190 l 531 53 l 860 53 m 618 435 l 601 358 l 814 358 q 840 347 833 358 q 844 318 847 336 q 793 278 838 286 l 778 207 q 826 216 803 207 q 869 240 850 225 q 903 274 889 254 q 922 318 917 294 q 910 403 933 371 q 844 435 886 435 l 618 435 z "},"":{"ha":1024,"x_min":163,"x_max":1108,"o":"m 864 488 l 738 488 l 1011 867 l 801 867 l 607 601 q 606 611 607 607 q 603 619 604 615 l 603 618 q 601 619 603 619 q 601 621 601 619 q 622 653 613 636 q 635 692 631 671 q 637 761 643 729 q 615 817 631 793 q 573 853 599 840 q 517 867 547 867 l 267 867 l 228 686 l 351 686 l 325 560 l 201 560 l 163 379 l 413 379 q 451 385 433 379 l 175 0 l 386 0 l 642 353 l 594 133 l 838 133 l 810 0 l 1004 0 l 1108 488 l 914 488 l 876 317 l 826 317 l 864 488 m 804 297 l 892 297 l 929 468 l 1086 468 l 990 18 l 833 18 l 861 151 l 618 151 l 676 425 l 674 425 l 379 18 l 208 18 l 500 422 l 497 424 q 417 399 457 399 l 186 399 l 217 540 l 440 540 l 440 543 q 438 551 438 543 l 340 551 l 371 694 l 469 694 q 478 704 472 700 l 251 704 l 282 849 l 513 849 q 561 836 539 849 q 598 803 583 824 q 617 753 613 782 q 615 692 622 725 q 579 621 607 653 q 586 553 593 593 q 583 547 583 547 l 582 542 l 585 542 l 807 849 l 976 849 l 703 468 l 842 468 l 804 297 m 271 53 l 365 53 l 915 814 l 822 814 l 271 53 m 397 660 l 382 586 l 461 586 q 472 569 468 579 q 472 551 475 558 q 459 522 469 536 q 435 507 449 507 l 243 507 l 226 432 l 424 432 q 503 466 465 432 q 553 553 542 500 q 552 590 557 574 q 540 621 547 607 q 565 652 554 636 q 582 692 576 668 q 570 779 593 744 q 506 814 547 814 l 308 814 l 292 738 l 482 738 q 502 723 497 738 q 504 693 507 708 q 494 676 503 686 q 476 660 486 667 l 397 660 m 874 53 l 963 53 l 1044 435 l 956 435 l 874 53 m 800 435 l 713 435 l 658 186 l 843 186 l 860 264 l 763 264 l 800 435 z "},"":{"ha":839,"x_min":117,"x_max":942,"o":"m 861 185 l 381 185 q 328 207 343 185 q 321 264 314 229 q 355 317 328 294 q 435 349 382 339 l 474 526 q 358 506 415 526 q 254 449 301 485 q 174 365 207 413 q 129 264 140 317 q 126 156 117 204 q 160 72 135 107 q 224 19 185 38 q 310 0 263 0 l 822 0 l 861 185 m 149 264 q 188 356 158 313 q 258 434 217 400 q 349 488 300 468 q 451 508 399 508 l 421 365 q 339 328 367 354 q 303 264 311 303 q 312 194 294 221 q 378 167 329 167 l 840 167 l 808 18 l 314 18 q 234 36 269 18 q 176 86 199 54 q 145 164 153 118 q 149 264 138 210 m 799 132 l 369 132 q 282 169 306 132 q 269 264 258 207 q 310 347 281 314 q 393 392 340 381 l 410 474 q 335 457 372 474 q 267 412 299 440 q 214 345 236 383 q 182 264 192 307 q 178 176 172 215 q 204 110 185 138 q 253 68 224 83 q 321 53 283 53 l 782 53 l 799 132 m 882 625 l 690 625 l 675 554 q 582 519 653 535 l 544 340 q 644 355 596 340 q 734 394 693 369 q 808 455 775 419 q 861 532 840 490 l 882 625 m 931 750 q 914 836 942 803 q 836 869 886 869 q 745 836 786 869 q 693 750 704 803 q 709 664 682 697 q 786 631 736 631 q 878 664 836 631 q 931 750 919 697 m 843 532 q 795 463 824 494 q 730 409 767 432 q 651 373 693 386 q 567 360 610 360 l 597 503 q 690 546 664 515 l 703 607 l 860 607 l 843 532 m 911 750 q 866 678 901 707 q 789 650 831 650 q 725 678 747 650 q 713 750 703 707 q 756 822 721 793 q 832 851 790 851 q 897 822 874 851 q 911 750 919 793 m 819 572 l 729 572 l 721 539 q 625 476 688 489 l 607 393 q 724 434 668 393 q 811 539 781 475 l 819 572 m 878 750 q 869 798 885 779 q 825 817 854 817 q 774 798 796 817 q 744 750 751 779 q 752 701 738 719 q 796 682 767 682 q 848 701 825 682 q 878 750 871 719 z "},"":{"ha":949,"x_min":19,"x_max":996,"o":"m 743 1068 l 806 1001 l 665 892 l 607 954 l 743 1068 m 922 54 l 824 54 l 651 688 l 271 136 l 631 136 l 667 54 l 115 54 l 693 881 l 922 54 m 635 608 l 794 19 l 971 19 l 726 901 l 856 1003 l 751 1113 l 558 951 l 643 864 l 53 19 l 724 19 l 656 171 l 333 171 l 635 608 m 758 1142 l 886 1003 l 747 893 l 996 0 l 779 0 l 625 564 l 365 190 l 671 190 l 756 0 l 19 0 l 618 856 l 526 950 l 758 1142 z "},"":{"ha":949,"x_min":19,"x_max":996,"o":"m 636 1001 l 726 1068 l 815 954 l 729 892 l 636 1001 m 922 54 l 824 54 l 651 688 l 271 136 l 631 136 l 667 54 l 115 54 l 693 881 l 922 54 m 53 19 l 724 19 l 656 171 l 333 171 l 635 608 l 794 19 l 971 19 l 738 861 l 864 951 l 738 1113 l 586 1003 l 671 904 l 53 19 m 19 0 l 646 896 l 556 1003 l 746 1142 l 893 950 l 758 854 l 996 0 l 779 0 l 625 564 l 365 190 l 671 190 l 756 0 l 19 0 z "},"":{"ha":949,"x_min":19,"x_max":996,"o":"m 551 951 l 735 1068 l 871 951 l 785 892 l 711 954 l 610 892 l 551 951 m 922 54 l 824 54 l 651 688 l 271 136 l 631 136 l 667 54 l 115 54 l 693 881 l 922 54 m 733 888 l 778 850 l 925 953 l 744 1108 l 496 953 l 600 850 l 653 882 l 656 881 l 53 19 l 724 19 l 656 171 l 333 171 l 635 608 l 794 19 l 971 19 l 731 886 l 733 888 m 463 954 l 750 1135 l 958 954 l 774 825 l 765 832 l 996 0 l 779 0 l 625 564 l 365 190 l 671 190 l 756 0 l 19 0 l 597 826 l 594 825 l 463 954 z "},"":{"ha":949,"x_min":19,"x_max":1013,"o":"m 550 825 l 632 875 l 19 0 l 756 0 l 671 190 l 365 190 l 625 564 l 779 0 l 996 0 l 760 847 l 1013 1006 l 883 1135 l 779 1069 l 706 1135 l 419 954 l 550 825 m 774 1044 l 876 1110 l 978 1007 l 739 856 l 971 19 l 794 19 l 635 608 l 333 171 l 656 171 l 724 19 l 53 19 l 669 901 l 657 913 l 557 850 l 451 953 l 701 1110 l 774 1044 m 824 54 l 922 54 l 693 881 l 115 54 l 667 54 l 631 136 l 271 136 l 651 688 l 824 54 m 565 892 l 665 954 l 740 890 l 925 1008 l 865 1067 l 764 1003 l 690 1068 l 507 951 l 565 892 z "},"":{"ha":949,"x_min":19,"x_max":996,"o":"m 899 978 q 868 929 892 949 q 814 910 844 910 q 769 929 785 910 q 761 978 754 949 q 791 1028 768 1008 q 843 1047 814 1047 q 890 1028 874 1047 q 899 978 906 1008 m 672 978 q 642 929 665 949 q 589 910 618 910 q 543 929 558 910 q 535 978 528 949 q 565 1028 542 1008 q 618 1047 588 1047 q 663 1028 647 1047 q 672 978 679 1008 m 707 978 q 693 1052 717 1022 q 626 1082 669 1082 q 547 1052 582 1082 q 501 978 511 1022 q 515 904 492 933 q 582 875 538 875 q 661 904 625 875 q 707 978 697 933 m 933 978 q 919 1052 943 1022 q 851 1082 896 1082 q 772 1052 808 1082 q 726 978 736 1022 q 740 904 717 933 q 807 875 764 875 q 888 904 851 875 q 933 978 924 933 m 922 54 l 824 54 l 651 686 l 271 136 l 631 136 l 667 54 l 115 54 l 693 879 l 922 54 m 635 607 l 794 19 l 971 19 l 708 957 l 53 19 l 724 19 l 656 171 l 333 171 l 635 607 m 950 978 q 897 890 939 925 q 803 856 854 856 q 754 865 772 856 l 996 0 l 779 0 l 625 564 l 365 189 l 671 189 l 756 0 l 19 0 l 624 863 q 578 856 604 856 q 498 890 525 856 q 482 978 471 925 q 502 1027 488 1004 q 536 1067 517 1050 q 580 1092 556 1083 q 631 1101 604 1101 q 694 1081 668 1101 q 726 1025 719 1060 q 781 1081 746 1060 q 856 1101 817 1101 q 935 1067 908 1101 q 950 978 961 1032 z "},"":{"ha":949,"x_min":19,"x_max":996,"o":"m 711 989 q 715 990 713 989 q 718 990 717 990 l 719 990 l 725 971 q 711 963 721 963 q 700 972 700 963 l 711 989 m 728 978 q 726 974 726 975 q 725 971 726 972 l 728 960 q 739 978 735 965 q 735 994 742 988 q 719 1000 729 1000 q 692 978 697 1000 q 692 961 689 967 l 700 972 l 701 978 q 711 989 703 988 l 718 997 l 719 990 q 728 978 729 988 m 710 953 q 728 960 721 953 l 728 957 q 742 978 738 967 q 719 1003 746 1003 q 700 997 708 1003 q 689 978 692 990 q 690 958 686 968 l 692 961 q 710 953 696 953 m 647 978 q 677 1028 654 1008 q 729 1047 700 1047 q 776 1028 760 1047 q 785 978 792 1008 q 754 929 778 949 q 700 910 731 910 q 656 929 671 910 q 647 978 640 949 m 922 54 l 824 54 l 651 686 l 271 136 l 631 136 l 667 54 l 115 54 l 693 879 l 922 54 m 613 978 q 617 917 606 943 q 656 881 629 892 l 53 19 l 724 19 l 656 171 l 333 171 l 635 607 l 794 19 l 971 19 l 732 881 q 788 918 764 892 q 818 978 811 944 q 805 1052 828 1022 q 738 1082 782 1082 q 658 1052 694 1082 q 613 978 622 1022 m 594 978 q 614 1027 600 1004 q 648 1067 628 1050 q 692 1092 668 1083 q 742 1101 717 1101 q 822 1067 794 1101 q 838 978 849 1032 q 806 913 829 942 q 753 869 783 885 l 996 0 l 779 0 l 625 564 l 365 189 l 671 189 l 756 0 l 19 0 l 629 871 q 594 978 576 901 z "},"":{"ha":1536,"x_min":19,"x_max":1703,"o":"m 1550 454 l 1532 375 l 1146 375 l 1164 454 l 1550 454 m 1103 340 l 1560 340 l 1592 489 l 1135 489 l 1103 340 m 1615 507 l 1575 322 l 1079 322 l 1119 507 l 1615 507 m 864 53 l 672 672 l 281 133 l 657 133 l 697 53 l 119 53 l 713 861 l 904 249 l 1025 819 l 1636 819 l 1619 739 l 1101 739 l 972 133 l 1490 133 l 1474 53 l 864 53 m 656 594 l 832 18 l 1503 18 l 1535 167 l 1015 167 l 1129 707 l 1649 707 l 1681 853 l 997 853 l 900 397 l 897 397 l 728 938 l 54 18 l 757 18 l 683 167 l 347 167 l 656 594 m 818 0 l 647 553 l 381 186 l 697 186 l 792 0 l 19 0 l 738 978 l 896 469 l 981 872 l 1703 872 l 1664 688 l 1144 688 l 1038 186 l 1557 186 l 1518 0 l 818 0 z "},"":{"ha":919,"x_min":147,"x_max":1047,"o":"m 217 444 q 278 597 233 525 q 387 722 324 668 q 527 806 450 775 q 685 836 604 836 q 881 772 801 836 q 986 606 961 708 l 906 558 q 824 698 888 643 q 668 753 761 753 q 545 727 606 753 q 434 659 485 701 q 347 560 383 617 q 299 443 311 504 q 298 326 286 382 q 342 227 310 269 q 424 160 375 185 q 536 135 474 135 q 701 180 621 135 q 839 299 782 225 l 886 235 q 749 116 826 163 q 586 56 672 69 q 557 -7 574 19 q 517 -56 540 -33 q 462 -97 494 -78 q 386 -136 429 -115 l 356 -65 q 410 -39 388 -51 q 449 -13 433 -26 q 476 15 465 0 q 493 51 486 31 q 358 88 417 56 q 262 174 299 121 q 213 297 225 226 q 217 444 200 367 m 182 444 q 176 294 165 365 q 222 167 188 224 q 313 73 257 111 q 440 22 368 35 q 392 -11 422 4 q 310 -50 361 -26 l 367 -181 q 456 -135 418 -157 q 523 -89 494 -112 q 572 -38 551 -65 q 608 25 593 -11 q 776 100 694 44 q 928 240 858 156 l 840 354 q 774 278 810 313 q 699 220 738 244 q 620 183 660 196 q 543 169 581 169 q 443 192 488 169 q 370 251 399 214 q 331 338 342 289 q 332 443 319 388 q 375 547 343 497 q 452 635 407 597 q 551 696 497 674 q 661 718 606 718 q 737 702 701 718 q 801 658 772 686 q 849 593 829 631 q 881 511 869 556 l 1026 594 q 980 706 1011 656 q 906 794 949 757 q 808 851 863 831 q 692 871 754 871 q 521 838 604 871 q 368 747 438 804 q 249 611 299 689 q 182 444 200 533 m 164 444 q 235 619 183 538 q 358 760 286 700 q 517 856 429 821 q 696 890 604 890 q 819 868 761 890 q 922 806 876 846 q 999 709 967 765 q 1047 585 1032 653 l 868 481 q 837 567 857 528 q 790 636 817 607 q 728 682 763 665 q 657 699 694 699 q 555 678 606 699 q 463 622 504 657 q 390 540 421 586 q 350 443 360 493 q 349 347 339 393 q 386 265 360 300 q 454 210 413 231 q 547 189 496 189 q 697 244 618 189 q 844 388 775 300 l 954 243 q 795 94 881 153 q 622 11 710 35 q 583 -51 606 -24 q 528 -104 560 -79 q 453 -153 496 -129 q 354 -206 411 -178 l 282 -43 q 299 -36 290 -40 q 315 -29 308 -32 q 358 -10 339 -18 q 393 10 378 -1 q 278 69 328 28 q 197 167 228 110 q 156 296 165 225 q 164 444 147 367 z "},"":{"ha":763,"x_min":82,"x_max":931,"o":"m 271 892 l 82 0 l 742 0 l 782 190 l 307 190 l 417 703 l 892 703 l 931 892 l 697 892 l 778 950 l 639 1142 l 457 1003 l 547 892 l 271 892 m 592 872 l 486 1003 l 631 1113 l 750 951 l 643 872 l 908 872 l 878 722 l 403 722 l 285 171 l 760 171 l 728 19 l 104 19 l 285 872 l 592 872 m 311 839 l 144 54 l 703 54 l 721 136 l 246 136 l 378 757 l 853 757 l 869 839 l 311 839 m 801 329 l 842 518 l 389 518 l 349 329 l 801 329 m 404 500 l 821 500 l 788 347 l 371 347 l 404 500 m 764 383 l 781 464 l 428 464 l 411 383 l 764 383 m 621 1068 l 533 1001 l 622 892 l 704 954 l 621 1068 z "},"":{"ha":763,"x_min":82,"x_max":931,"o":"m 271 892 l 82 0 l 742 0 l 782 190 l 307 190 l 417 703 l 892 703 l 931 892 l 654 892 l 790 1003 l 669 1142 l 447 950 l 500 892 l 271 892 m 549 872 l 478 951 l 664 1113 l 761 1003 l 600 872 l 908 872 l 878 722 l 403 722 l 285 171 l 760 171 l 728 19 l 104 19 l 285 872 l 549 872 m 311 839 l 144 54 l 703 54 l 721 136 l 246 136 l 378 757 l 853 757 l 869 839 l 311 839 m 801 329 l 842 518 l 389 518 l 349 329 l 801 329 m 404 500 l 821 500 l 788 347 l 371 347 l 404 500 m 764 383 l 781 464 l 428 464 l 411 383 l 764 383 m 714 1001 l 656 1068 l 524 954 l 579 892 l 714 1001 z "},"":{"ha":763,"x_min":82,"x_max":931,"o":"m 851 954 l 653 1135 l 376 954 l 435 892 l 271 892 l 82 0 l 742 0 l 782 190 l 307 190 l 417 703 l 892 703 l 931 892 l 763 892 l 851 954 m 706 872 l 908 872 l 878 722 l 403 722 l 285 171 l 760 171 l 728 19 l 104 19 l 285 872 l 485 872 l 408 953 l 647 1108 l 818 953 l 706 872 m 869 839 l 311 839 l 144 54 l 703 54 l 721 136 l 246 136 l 378 757 l 853 757 l 869 839 m 349 329 l 801 329 l 842 518 l 389 518 l 349 329 m 404 500 l 821 500 l 788 347 l 371 347 l 404 500 m 411 383 l 764 383 l 781 464 l 428 464 l 411 383 m 767 951 l 638 1068 l 461 951 l 517 892 l 614 954 l 683 892 l 767 951 m 540 872 l 651 872 l 606 914 l 540 872 z "},"":{"ha":763,"x_min":82,"x_max":931,"o":"m 271 890 l 82 0 l 742 0 l 782 189 l 307 189 l 415 701 l 890 701 l 931 890 l 790 890 q 823 928 810 906 q 843 978 836 950 q 828 1067 854 1032 q 753 1101 803 1101 q 683 1081 717 1101 q 629 1025 649 1060 q 598 1081 622 1060 q 538 1101 574 1101 q 447 1067 489 1101 q 394 978 406 1032 q 410 890 382 924 l 271 890 m 285 171 l 760 171 l 728 19 l 104 19 l 285 871 l 908 871 l 876 721 l 401 721 l 285 171 m 311 836 l 144 54 l 703 54 l 721 136 l 246 136 l 378 756 l 853 756 l 869 836 l 311 836 m 801 328 l 842 518 l 389 518 l 349 328 l 801 328 m 403 499 l 819 499 l 788 347 l 371 347 l 403 499 m 629 978 q 674 1052 639 1022 q 749 1082 708 1082 q 813 1052 790 1082 q 825 978 835 1022 q 781 904 815 933 q 704 875 746 875 q 642 904 664 875 q 629 978 619 933 m 413 978 q 458 1052 422 1022 q 533 1082 493 1082 q 597 1052 575 1082 q 610 978 619 1022 q 565 904 600 933 q 489 875 531 875 q 426 904 449 875 q 413 978 403 933 m 763 382 l 781 464 l 428 464 l 410 382 l 763 382 m 446 978 q 453 929 439 949 q 496 910 468 910 q 548 929 525 910 q 578 978 571 949 q 569 1028 585 1008 q 525 1047 554 1047 q 475 1028 497 1047 q 446 978 453 1008 m 663 978 q 669 929 656 949 q 711 910 683 910 q 763 929 739 910 q 793 978 786 949 q 784 1028 800 1008 q 740 1047 768 1047 q 691 1028 713 1047 q 663 978 669 1008 m 626 890 l 575 890 q 593 908 585 899 q 608 931 601 917 q 626 890 613 907 z "},"":{"ha":839,"x_min":81,"x_max":1013,"o":"m 269 892 l 231 703 l 507 703 l 397 190 l 121 190 l 81 0 l 824 0 l 864 190 l 586 190 l 696 703 l 974 703 l 1013 892 l 740 892 l 821 950 l 679 1142 l 493 1003 l 586 892 l 269 892 m 632 872 l 522 1003 l 671 1113 l 792 951 l 683 872 l 990 872 l 960 722 l 682 722 l 564 171 l 842 171 l 810 19 l 103 19 l 135 171 l 411 171 l 529 722 l 253 722 l 283 872 l 632 872 m 310 839 l 293 757 l 569 757 l 438 136 l 161 136 l 143 54 l 783 54 l 801 136 l 524 136 l 656 757 l 933 757 l 950 839 l 310 839 m 660 1068 l 571 1001 l 661 892 l 746 954 l 660 1068 z "},"":{"ha":839,"x_min":81,"x_max":1013,"o":"m 269 892 l 231 703 l 507 703 l 397 190 l 121 190 l 81 0 l 824 0 l 864 190 l 586 190 l 696 703 l 974 703 l 1013 892 l 694 892 l 832 1003 l 710 1142 l 483 950 l 538 892 l 269 892 m 588 872 l 514 951 l 704 1113 l 803 1003 l 640 872 l 990 872 l 960 722 l 682 722 l 564 171 l 842 171 l 810 19 l 103 19 l 135 171 l 411 171 l 529 722 l 253 722 l 283 872 l 588 872 m 310 839 l 293 757 l 569 757 l 438 136 l 161 136 l 143 54 l 783 54 l 801 136 l 524 136 l 656 757 l 933 757 l 950 839 l 310 839 m 756 1001 l 696 1068 l 561 954 l 618 892 l 756 1001 z "},"":{"ha":839,"x_min":81,"x_max":1013,"o":"m 269 892 l 231 703 l 507 703 l 397 190 l 121 190 l 81 0 l 824 0 l 864 190 l 586 190 l 696 703 l 974 703 l 1013 892 l 806 892 l 894 954 l 693 1135 l 411 954 l 472 892 l 269 892 m 522 872 l 443 953 l 688 1108 l 861 953 l 747 872 l 990 872 l 960 722 l 682 722 l 564 171 l 842 171 l 810 19 l 103 19 l 135 171 l 411 171 l 529 722 l 253 722 l 283 872 l 522 872 m 310 839 l 293 757 l 569 757 l 438 136 l 161 136 l 143 54 l 783 54 l 801 136 l 524 136 l 656 757 l 933 757 l 950 839 l 310 839 m 808 951 l 678 1068 l 499 951 l 556 892 l 654 954 l 725 892 l 808 951 m 579 872 l 692 872 l 646 914 l 579 872 z "},"":{"ha":839,"x_min":81,"x_max":1013,"o":"m 269 890 l 229 701 l 506 701 l 397 189 l 121 189 l 81 0 l 824 0 l 864 189 l 586 189 l 694 701 l 972 701 l 1013 890 l 833 890 q 866 928 853 906 q 886 978 879 950 q 871 1067 897 1032 q 794 1101 844 1101 q 724 1081 758 1101 q 669 1025 689 1060 q 638 1081 663 1060 q 576 1101 613 1101 q 483 1067 525 1101 q 431 978 442 1032 q 444 890 418 922 l 269 890 m 564 171 l 842 171 l 810 19 l 103 19 l 135 171 l 411 171 l 528 721 l 251 721 l 283 871 l 990 871 l 958 721 l 681 721 l 564 171 m 310 836 l 293 756 l 569 756 l 438 136 l 161 136 l 143 54 l 783 54 l 801 136 l 524 136 l 656 756 l 933 756 l 950 836 l 310 836 m 449 978 q 494 1052 458 1022 q 572 1082 529 1082 q 637 1052 614 1082 q 650 978 660 1022 q 605 904 640 933 q 528 875 569 875 q 462 904 485 875 q 449 978 439 933 m 669 978 q 715 1052 679 1022 q 790 1082 750 1082 q 855 1052 832 1082 q 868 978 878 1022 q 823 904 858 933 q 746 875 788 875 q 683 904 706 875 q 669 978 660 933 m 482 978 q 490 929 475 949 q 535 910 506 910 q 586 929 563 910 q 617 978 610 949 q 608 1028 624 1008 q 564 1047 592 1047 q 512 1028 535 1047 q 482 978 489 1008 m 703 978 q 710 929 696 949 q 753 910 725 910 q 805 929 782 910 q 835 978 828 949 q 826 1028 842 1008 q 782 1047 811 1047 q 732 1028 754 1047 q 703 978 710 1008 m 665 890 l 614 890 q 633 908 625 899 q 649 929 642 917 q 655 908 651 917 q 665 890 658 899 z "},"":{"ha":1065,"x_min":158,"x_max":1174,"o":"m 581 679 l 553 551 l 763 551 l 721 356 l 511 356 l 475 186 l 656 186 q 753 206 703 186 q 847 258 803 225 q 922 336 890 292 q 964 429 953 381 q 963 524 974 479 q 925 603 953 569 q 856 658 897 638 q 763 679 814 679 l 581 679 m 767 699 q 868 676 822 699 q 943 617 914 654 q 983 532 972 581 q 983 429 994 483 q 938 328 972 375 q 856 244 903 281 q 756 188 810 208 q 653 167 703 167 l 453 167 l 496 374 l 707 374 l 742 533 l 531 533 l 565 699 l 767 699 m 539 732 l 490 500 l 700 500 l 679 407 l 469 407 l 411 133 l 644 133 q 762 157 701 133 q 874 222 822 181 q 965 316 926 263 q 1017 429 1004 369 q 1016 544 1029 489 q 970 640 1003 599 q 887 707 938 682 q 774 732 836 732 l 539 732 m 304 53 l 379 407 l 222 407 l 243 500 l 400 500 l 467 814 l 790 814 q 937 784 872 814 q 1043 702 1001 754 q 1101 580 1085 650 q 1100 431 1117 510 q 1035 282 1083 351 q 922 162 988 213 q 780 82 856 111 q 631 53 704 53 l 304 53 m 263 18 l 624 18 q 786 50 703 18 q 941 138 869 82 q 1065 269 1013 194 q 1135 431 1117 344 q 1135 592 1153 517 q 1072 725 1118 668 q 956 815 1026 782 q 797 849 886 849 l 439 849 l 372 533 l 215 533 l 181 374 l 338 374 l 263 18 m 242 0 l 317 356 l 158 356 l 200 551 l 358 551 l 426 867 l 801 867 q 968 833 894 867 q 1090 739 1042 799 q 1156 600 1138 679 q 1154 431 1174 521 q 1081 262 1135 340 q 951 125 1026 183 q 790 33 876 67 q 619 0 703 0 l 242 0 z "},"":{"ha":913,"x_min":85,"x_max":1082,"o":"m 275 0 l 400 589 l 679 0 l 893 0 l 1082 892 l 890 892 l 767 304 l 521 836 l 532 825 l 633 888 l 706 825 l 989 1006 l 860 1135 l 758 1069 l 688 1135 l 404 954 l 464 892 l 274 892 l 85 0 l 275 0 m 771 243 l 904 872 l 1060 872 l 879 19 l 694 19 l 396 653 l 261 19 l 107 19 l 288 872 l 481 872 l 771 243 m 233 54 l 383 758 l 717 54 l 853 54 l 1019 839 l 932 839 l 783 135 l 457 839 l 314 839 l 147 54 l 233 54 m 753 1044 l 853 1110 l 956 1007 l 711 850 l 639 913 l 539 850 l 436 953 l 682 1110 l 753 1044 m 549 892 l 647 954 l 719 890 l 901 1008 l 842 1067 l 743 1003 l 672 1068 l 490 951 l 549 892 z "},"":{"ha":954,"x_min":144,"x_max":1061,"o":"m 164 446 q 161 271 144 353 q 224 128 178 189 q 344 31 271 67 q 508 -4 417 -4 q 688 31 600 -4 q 848 128 775 67 q 973 271 921 189 q 1044 446 1025 353 q 1051 599 1061 526 q 1006 730 1040 672 q 917 827 972 788 q 789 882 861 867 l 883 950 l 738 1143 l 549 1003 l 643 890 q 480 841 558 879 q 338 744 401 803 q 228 608 274 685 q 164 446 182 532 m 183 446 q 250 610 201 533 q 367 745 299 688 q 519 837 436 803 q 689 874 601 871 l 579 1003 l 729 1114 l 856 951 l 743 871 q 881 824 819 861 q 980 731 942 788 q 1031 601 1018 674 q 1026 446 1044 528 q 958 280 1007 358 q 838 142 908 201 q 684 49 768 83 q 513 15 600 15 q 356 49 425 15 q 242 142 286 83 q 181 280 197 201 q 183 446 164 358 m 217 446 q 215 292 200 364 q 270 167 229 221 q 375 81 311 113 q 521 50 439 50 q 678 81 601 50 q 819 167 756 113 q 929 292 883 221 q 992 446 975 364 q 994 600 1010 528 q 938 726 979 672 q 833 810 897 779 q 689 842 769 842 q 530 810 607 842 q 389 726 453 779 q 280 600 325 672 q 217 446 235 528 m 300 444 q 349 562 313 506 q 437 661 386 618 q 549 730 488 704 q 672 756 610 756 q 784 730 735 756 q 866 661 833 704 q 910 562 899 618 q 910 444 922 506 q 860 328 897 383 q 772 229 824 272 q 660 161 721 186 q 539 136 600 136 q 426 161 476 136 q 344 229 376 186 q 300 328 313 272 q 300 444 288 383 m 333 444 q 332 340 321 389 q 372 253 343 290 q 446 193 401 215 q 546 171 490 171 q 656 193 601 171 q 755 253 710 215 q 832 340 800 290 q 876 444 864 389 q 878 550 889 500 q 838 638 867 600 q 764 699 808 676 q 664 721 719 721 q 554 699 608 721 q 455 638 500 676 q 378 550 410 600 q 333 444 346 500 m 351 444 q 392 542 363 496 q 465 624 422 589 q 558 681 507 660 q 660 701 608 701 q 753 681 711 701 q 821 624 794 660 q 858 542 847 589 q 857 444 868 496 q 816 347 846 393 q 744 267 786 301 q 651 211 701 232 q 550 190 601 190 q 457 211 499 190 q 388 267 415 232 q 351 347 361 301 q 351 444 340 393 m 718 1068 l 628 1001 l 721 892 l 807 954 l 718 1068 z "},"":{"ha":954,"x_min":144,"x_max":1063,"o":"m 164 446 q 161 271 144 353 q 224 128 178 189 q 344 31 271 67 q 508 -4 417 -4 q 688 31 600 -4 q 848 128 775 67 q 973 271 921 189 q 1044 446 1025 353 q 1049 608 1063 532 q 997 744 1036 685 q 896 841 958 803 q 753 890 833 879 l 894 1003 l 769 1143 l 539 950 l 603 882 q 453 827 525 867 q 323 730 382 788 q 222 599 264 672 q 164 446 181 526 m 183 446 q 245 601 201 528 q 351 731 289 674 q 488 824 413 788 q 646 871 564 861 l 569 951 l 764 1114 l 867 1003 l 703 874 q 858 837 789 871 q 970 745 926 803 q 1029 610 1014 688 q 1026 446 1044 533 q 958 280 1007 358 q 838 142 908 201 q 684 49 768 83 q 513 15 600 15 q 356 49 425 15 q 242 142 286 83 q 181 280 197 201 q 183 446 164 358 m 217 446 q 215 292 200 364 q 270 167 229 221 q 375 81 311 113 q 521 50 439 50 q 678 81 601 50 q 819 167 756 113 q 929 292 883 221 q 992 446 975 364 q 994 600 1010 528 q 938 726 979 672 q 833 810 897 779 q 689 842 769 842 q 530 810 607 842 q 389 726 453 779 q 280 600 325 672 q 217 446 235 528 m 300 444 q 349 562 313 506 q 437 661 386 618 q 549 730 488 704 q 672 756 610 756 q 784 730 735 756 q 866 661 833 704 q 910 562 899 618 q 910 444 922 506 q 860 328 897 383 q 772 229 824 272 q 660 161 721 186 q 539 136 600 136 q 426 161 476 136 q 344 229 376 186 q 300 328 313 272 q 300 444 288 383 m 333 444 q 332 340 321 389 q 372 253 343 290 q 446 193 401 215 q 546 171 490 171 q 656 193 601 171 q 755 253 710 215 q 832 340 800 290 q 876 444 864 389 q 878 550 889 500 q 838 638 867 600 q 764 699 808 676 q 664 721 719 721 q 554 699 608 721 q 455 638 500 676 q 378 550 410 600 q 333 444 346 500 m 351 444 q 392 542 363 496 q 465 624 422 589 q 558 681 507 660 q 660 701 608 701 q 753 681 711 701 q 821 624 794 660 q 858 542 847 589 q 857 444 868 496 q 816 347 846 393 q 744 267 786 301 q 651 211 701 232 q 550 190 601 190 q 457 211 499 190 q 388 267 415 232 q 351 347 361 301 q 351 444 340 393 m 817 1001 l 754 1068 l 618 954 l 676 892 l 817 1001 z "},"":{"ha":954,"x_min":144,"x_max":1060,"o":"m 164 446 q 161 271 144 353 q 224 128 178 189 q 344 31 271 67 q 508 -4 417 -4 q 688 31 600 -4 q 848 128 775 67 q 973 271 921 189 q 1044 446 1025 353 q 1052 587 1060 519 q 1017 709 1044 654 q 943 805 989 764 q 838 868 897 846 l 958 954 l 751 1135 l 465 954 l 550 868 q 417 805 481 846 q 303 709 354 764 q 216 587 253 654 q 164 446 179 519 m 183 446 q 238 589 200 521 q 331 712 276 657 q 451 806 385 767 q 590 863 517 844 l 497 953 l 746 1108 l 925 953 l 796 863 q 911 806 861 844 q 992 712 961 767 q 1033 589 1024 657 q 1026 446 1043 521 q 958 280 1007 358 q 838 142 908 201 q 684 49 768 83 q 513 15 600 15 q 356 49 425 15 q 242 142 286 83 q 181 280 197 201 q 183 446 164 358 m 217 446 q 215 292 200 364 q 270 167 229 221 q 375 81 311 113 q 521 50 439 50 q 678 81 601 50 q 819 167 756 113 q 929 292 883 221 q 992 446 975 364 q 994 600 1010 528 q 938 726 979 672 q 833 810 897 779 q 689 842 769 842 q 530 810 607 842 q 389 726 453 779 q 280 600 325 672 q 217 446 235 528 m 300 444 q 349 562 313 506 q 437 661 386 618 q 549 730 488 704 q 672 756 610 756 q 784 730 735 756 q 866 661 833 704 q 910 562 899 618 q 910 444 922 506 q 860 328 897 383 q 772 229 824 272 q 660 161 721 186 q 539 136 600 136 q 426 161 476 136 q 344 229 376 186 q 300 328 313 272 q 300 444 288 383 m 333 444 q 332 340 321 389 q 372 253 343 290 q 446 193 401 215 q 546 171 490 171 q 656 193 601 171 q 755 253 710 215 q 832 340 800 290 q 876 444 864 389 q 878 550 889 500 q 838 638 867 600 q 764 699 808 676 q 664 721 719 721 q 554 699 608 721 q 455 638 500 676 q 378 550 410 600 q 333 444 346 500 m 351 444 q 392 542 363 496 q 465 624 422 589 q 558 681 507 660 q 660 701 608 701 q 753 681 711 701 q 821 624 794 660 q 858 542 847 589 q 857 444 868 496 q 816 347 846 393 q 744 267 786 301 q 651 211 701 232 q 550 190 601 190 q 457 211 499 190 q 388 267 415 232 q 351 347 361 301 q 351 444 340 393 m 871 951 l 736 1068 l 553 951 l 613 892 l 713 956 l 786 892 l 871 951 m 696 875 q 747 871 724 875 l 750 874 l 704 914 l 642 874 l 642 871 q 696 875 671 875 z "},"":{"ha":954,"x_min":144,"x_max":1061,"o":"m 164 446 q 161 271 144 353 q 224 128 178 189 q 344 31 271 67 q 508 -4 417 -4 q 688 31 600 -4 q 848 128 775 67 q 973 271 921 189 q 1044 446 1025 353 q 1051 594 1061 524 q 1010 721 1042 664 q 928 818 979 778 q 810 878 876 858 l 1013 1006 l 883 1135 l 781 1069 l 707 1135 l 422 954 l 517 857 q 395 791 453 832 q 291 697 338 750 q 212 579 244 643 q 164 446 179 515 m 183 446 q 233 581 199 517 q 317 699 268 646 q 428 792 367 751 q 556 853 489 832 l 454 953 l 703 1110 l 775 1046 l 876 1110 l 979 1007 l 761 869 q 892 819 835 857 q 984 726 949 782 q 1031 598 1019 669 q 1026 446 1043 526 q 958 280 1007 358 q 838 142 908 201 q 684 49 768 83 q 513 15 600 15 q 356 49 425 15 q 242 142 286 83 q 181 280 197 201 q 183 446 164 358 m 217 446 q 215 292 200 364 q 270 167 229 221 q 375 81 311 113 q 521 50 439 50 q 678 81 601 50 q 819 167 756 113 q 929 292 883 221 q 992 446 975 364 q 994 600 1010 528 q 938 726 979 672 q 833 810 897 779 q 689 842 769 842 q 530 810 607 842 q 389 726 453 779 q 280 600 325 672 q 217 446 235 528 m 300 444 q 349 562 313 506 q 437 661 386 618 q 549 730 488 704 q 672 756 610 756 q 784 730 735 756 q 866 661 833 704 q 910 562 899 618 q 910 444 922 506 q 860 328 897 383 q 772 229 824 272 q 660 161 721 186 q 539 136 600 136 q 426 161 476 136 q 344 229 376 186 q 300 328 313 272 q 300 444 288 383 m 333 444 q 332 340 321 389 q 372 253 343 290 q 446 193 401 215 q 546 171 490 171 q 656 193 601 171 q 755 253 710 215 q 832 340 800 290 q 876 444 864 389 q 878 550 889 500 q 838 638 867 600 q 764 699 808 676 q 664 721 719 721 q 554 699 608 721 q 455 638 500 676 q 378 550 410 600 q 333 444 346 500 m 351 444 q 392 542 363 496 q 465 624 422 589 q 558 681 507 660 q 660 701 608 701 q 753 681 711 701 q 821 624 794 660 q 858 542 847 589 q 857 444 868 496 q 816 347 846 393 q 744 267 786 301 q 651 211 701 232 q 550 190 601 190 q 457 211 499 190 q 388 267 415 232 q 351 347 361 301 q 351 444 340 393 m 568 892 l 668 954 l 742 892 l 925 1008 l 867 1068 l 765 1003 l 692 1068 l 510 951 l 568 892 m 578 861 l 578 858 q 636 870 607 865 q 696 875 665 875 l 704 875 l 660 913 l 578 861 z "},"":{"ha":954,"x_min":144,"x_max":1060,"o":"m 164 444 q 161 271 144 353 q 224 128 178 189 q 344 31 271 67 q 508 -4 417 -4 q 688 31 600 -4 q 848 128 775 67 q 973 271 921 189 q 1044 444 1025 353 q 1053 583 1060 517 q 1019 703 1046 649 q 949 799 993 758 q 846 864 904 840 q 913 906 886 875 q 950 979 940 938 q 935 1067 961 1032 q 857 1101 908 1101 q 783 1081 818 1101 q 728 1025 749 1061 q 696 1081 721 1061 q 632 1101 671 1101 q 583 1092 607 1101 q 538 1067 558 1083 q 504 1028 518 1050 q 485 979 490 1006 q 490 906 475 936 q 536 864 506 875 q 409 799 469 840 q 299 703 349 758 q 215 583 250 649 q 164 444 179 517 m 183 444 q 251 612 201 533 q 371 749 301 690 q 524 840 440 807 q 696 874 608 874 q 853 840 783 874 q 967 749 922 807 q 1028 612 1013 690 q 1026 444 1044 533 q 958 279 1007 357 q 838 142 908 201 q 684 49 768 83 q 513 15 600 15 q 356 49 425 15 q 242 142 286 83 q 181 279 197 201 q 183 444 164 357 m 217 444 q 215 291 200 363 q 270 166 229 219 q 375 81 311 113 q 521 50 439 50 q 678 81 601 50 q 819 166 756 113 q 929 291 883 219 q 992 444 975 363 q 994 599 1010 526 q 938 724 979 671 q 833 808 897 778 q 688 839 768 839 q 528 808 606 839 q 388 724 451 778 q 280 599 325 671 q 217 444 235 526 m 300 443 q 349 562 313 506 q 435 660 385 618 q 547 728 486 703 q 671 754 608 754 q 783 728 733 754 q 865 660 833 703 q 910 562 897 618 q 910 443 922 506 q 860 326 897 382 q 772 228 824 271 q 660 161 721 186 q 539 136 600 136 q 426 161 476 136 q 344 228 376 186 q 300 326 313 271 q 300 443 288 382 m 333 443 q 332 340 321 389 q 372 253 343 290 q 446 193 401 215 q 546 171 490 171 q 656 193 601 171 q 755 253 710 215 q 832 340 800 290 q 876 443 864 389 q 877 549 888 499 q 838 637 867 599 q 764 697 808 675 q 664 719 719 719 q 554 697 608 719 q 455 637 500 675 q 377 549 410 599 q 333 443 344 499 m 351 443 q 392 541 363 494 q 465 623 422 588 q 558 679 507 658 q 660 700 608 700 q 753 679 711 700 q 821 623 794 658 q 858 541 847 588 q 857 443 868 494 q 816 347 846 393 q 744 265 786 300 q 651 210 701 231 q 550 189 601 189 q 457 210 499 189 q 388 265 415 231 q 351 347 361 300 q 351 443 340 393 m 728 979 q 774 1053 738 1024 q 853 1083 810 1083 q 918 1053 894 1083 q 932 979 942 1024 q 886 905 922 935 q 808 875 850 875 q 742 905 765 875 q 728 979 718 935 m 503 979 q 549 1053 513 1024 q 628 1083 585 1083 q 694 1053 671 1083 q 708 979 718 1024 q 663 905 699 935 q 583 875 626 875 q 517 905 540 875 q 503 979 493 935 m 763 979 q 771 929 756 949 q 815 910 786 910 q 867 929 843 910 q 899 979 892 949 q 889 1028 906 1010 q 844 1047 872 1047 q 792 1028 815 1047 q 763 979 769 1010 m 538 979 q 546 929 531 949 q 590 910 561 910 q 644 929 619 910 q 675 979 668 949 q 665 1028 682 1010 q 619 1047 649 1047 q 567 1028 590 1047 q 538 979 544 1010 m 724 892 l 713 892 q 706 892 708 892 q 700 893 703 893 q 691 892 696 893 q 683 892 686 892 l 674 892 q 692 910 683 900 q 707 931 700 919 q 724 892 714 906 z "},"":{"ha":513,"x_min":110,"x_max":629,"o":"m 175 292 l 310 403 l 222 515 l 293 574 l 382 461 l 517 575 l 564 515 l 428 403 l 515 292 l 442 232 l 357 344 l 219 232 l 175 292 m 135 292 l 211 192 l 349 304 l 433 192 l 556 292 l 467 403 l 604 515 l 525 614 l 390 501 l 301 613 l 182 515 l 269 403 l 135 292 m 110 292 l 242 401 l 156 515 l 307 638 l 396 526 l 531 639 l 629 515 l 492 403 l 581 292 l 428 165 l 343 278 l 207 167 l 110 292 z "},"":{"ha":954,"x_min":142,"x_max":1061,"o":"m 347 432 q 348 338 336 383 q 388 259 360 293 q 457 205 415 225 q 549 185 499 185 l 565 185 l 444 594 q 382 519 407 561 q 347 432 357 476 m 853 432 q 852 527 863 482 q 815 606 842 572 q 746 661 788 640 q 653 682 704 682 q 640 682 646 682 q 629 681 636 682 l 753 267 q 817 344 790 301 q 853 432 843 386 m 329 432 q 374 538 340 488 q 456 626 407 588 l 592 168 l 568 168 q 558 167 563 168 q 546 167 553 167 q 445 188 490 167 q 371 246 400 210 q 330 330 342 282 q 329 432 318 378 m 872 432 q 826 324 861 375 q 742 235 792 274 l 606 696 q 657 700 632 700 q 758 678 713 700 q 832 620 803 657 q 872 535 861 583 q 872 432 883 486 m 296 432 q 297 318 283 372 q 343 222 310 264 q 426 156 376 181 q 538 132 476 132 q 588 135 563 132 q 636 146 613 139 l 479 676 q 359 570 407 635 q 296 432 311 506 m 906 432 q 906 547 918 492 q 860 643 893 601 q 776 709 826 685 q 664 733 726 733 q 613 730 638 733 q 560 715 588 726 l 718 183 q 840 290 789 224 q 906 432 890 357 m 989 433 q 927 284 972 354 q 818 162 882 214 q 677 79 754 110 q 519 49 600 49 q 374 79 438 49 q 269 162 310 110 q 213 284 228 214 q 214 433 197 354 q 276 583 231 513 q 385 705 321 653 q 525 788 449 757 q 683 818 601 818 q 828 788 764 818 q 934 705 893 757 q 990 583 975 653 q 989 433 1006 513 m 1024 433 q 1025 595 1042 519 q 963 728 1008 671 q 848 818 918 785 q 690 851 778 851 q 519 818 603 851 q 366 728 435 785 q 248 595 297 671 q 181 433 199 519 q 179 272 163 347 q 240 139 196 196 q 355 49 285 82 q 513 15 425 15 q 684 49 600 15 q 838 139 768 82 q 956 272 907 196 q 1024 433 1006 347 m 1042 433 q 972 263 1022 343 q 848 124 921 183 q 688 31 775 65 q 508 -4 600 -4 q 344 31 417 -4 q 224 124 271 65 q 159 263 176 183 q 161 433 142 343 q 232 603 181 524 q 355 742 283 683 q 515 835 426 801 q 694 869 603 869 q 859 835 786 869 q 979 742 932 801 q 1044 603 1026 683 q 1042 433 1061 524 z "},"":{"ha":974,"x_min":161,"x_max":1157,"o":"m 181 443 q 178 269 161 350 q 241 127 194 188 q 360 31 288 67 q 526 -4 433 -4 q 706 31 618 -4 q 866 127 793 67 q 991 269 939 188 q 1063 443 1043 350 l 1157 892 l 963 892 l 861 413 q 815 326 846 367 q 746 255 785 285 q 661 208 707 225 q 568 190 615 190 q 482 208 521 190 q 416 255 443 225 q 375 326 389 285 q 365 413 361 367 l 467 892 l 275 892 l 181 443 m 564 171 q 663 190 614 171 q 755 240 713 208 q 830 316 797 272 q 881 410 863 360 l 978 872 l 1133 872 l 1043 443 q 974 276 1024 354 q 856 140 925 199 q 702 49 786 82 q 531 15 618 15 q 373 49 443 15 q 258 140 303 82 q 196 276 213 199 q 199 443 179 354 l 289 872 l 444 872 l 347 410 q 357 316 343 360 q 400 240 371 272 q 472 190 429 208 q 564 171 514 171 m 233 443 q 231 290 217 361 q 288 165 246 218 q 393 81 329 113 q 539 50 457 50 q 697 81 619 50 q 838 165 774 113 q 947 290 901 218 q 1010 443 993 361 l 1093 839 l 1004 839 l 913 404 q 856 300 893 349 q 772 215 819 251 q 669 157 725 178 q 557 136 614 136 q 453 157 500 136 q 372 215 406 178 q 323 300 339 251 q 311 404 307 349 l 403 839 l 317 839 l 233 443 m 747 1143 l 558 1003 l 714 822 l 893 950 l 747 1143 m 739 1114 l 864 951 l 721 850 l 589 1003 l 739 1114 m 728 1068 l 638 1001 l 731 892 l 817 954 l 728 1068 z "},"":{"ha":974,"x_min":161,"x_max":1157,"o":"m 181 443 q 178 269 161 350 q 241 127 194 188 q 360 31 288 67 q 526 -4 433 -4 q 706 31 618 -4 q 866 127 793 67 q 991 269 939 188 q 1063 443 1043 350 l 1157 892 l 963 892 l 861 413 q 815 326 846 367 q 746 255 785 285 q 661 208 707 225 q 568 190 615 190 q 482 208 521 190 q 416 255 443 225 q 375 326 389 285 q 365 413 361 367 l 467 892 l 275 892 l 181 443 m 564 171 q 663 190 614 171 q 755 240 713 208 q 830 316 797 272 q 881 410 863 360 l 978 872 l 1133 872 l 1043 443 q 974 276 1024 354 q 856 140 925 199 q 702 49 786 82 q 531 15 618 15 q 373 49 443 15 q 258 140 303 82 q 196 276 213 199 q 199 443 179 354 l 289 872 l 444 872 l 347 410 q 357 316 343 360 q 400 240 371 272 q 472 190 429 208 q 564 171 514 171 m 233 443 q 231 290 217 361 q 288 165 246 218 q 393 81 329 113 q 539 50 457 50 q 697 81 619 50 q 838 165 774 113 q 947 290 901 218 q 1010 443 993 361 l 1093 839 l 1004 839 l 913 404 q 856 300 893 349 q 772 215 819 251 q 669 157 725 178 q 557 136 614 136 q 453 157 500 136 q 372 215 406 178 q 323 300 339 251 q 311 404 307 349 l 403 839 l 317 839 l 233 443 m 906 1003 l 779 1143 l 549 950 l 675 822 l 906 1003 m 581 951 l 774 1114 l 875 1003 l 679 850 l 581 951 m 826 1001 l 765 1068 l 628 954 l 686 892 l 826 1001 z "},"":{"ha":974,"x_min":161,"x_max":1157,"o":"m 181 443 q 178 269 161 350 q 241 127 194 188 q 360 31 288 67 q 526 -4 433 -4 q 706 31 618 -4 q 866 127 793 67 q 991 269 939 188 q 1063 443 1043 350 l 1157 892 l 963 892 l 861 413 q 815 326 846 367 q 746 255 785 285 q 661 208 707 225 q 568 190 615 190 q 482 208 521 190 q 416 255 443 225 q 375 326 389 285 q 365 413 361 367 l 467 892 l 275 892 l 181 443 m 564 171 q 663 190 614 171 q 755 240 713 208 q 830 316 797 272 q 881 410 863 360 l 978 872 l 1133 872 l 1043 443 q 974 276 1024 354 q 856 140 925 199 q 702 49 786 82 q 531 15 618 15 q 373 49 443 15 q 258 140 303 82 q 196 276 213 199 q 199 443 179 354 l 289 872 l 444 872 l 347 410 q 357 316 343 360 q 400 240 371 272 q 472 190 429 208 q 564 171 514 171 m 233 443 q 231 290 217 361 q 288 165 246 218 q 393 81 329 113 q 539 50 457 50 q 697 81 619 50 q 838 165 774 113 q 947 290 901 218 q 1010 443 993 361 l 1093 839 l 1004 839 l 913 404 q 856 300 893 349 q 772 215 819 251 q 669 157 725 178 q 557 136 614 136 q 453 157 500 136 q 372 215 406 178 q 323 300 339 251 q 311 404 307 349 l 403 839 l 317 839 l 233 443 m 968 954 l 761 1135 l 475 954 l 606 826 l 708 889 l 785 826 l 968 954 m 613 851 l 508 953 l 756 1108 l 935 953 l 789 851 l 714 914 l 613 851 m 881 951 l 746 1068 l 564 951 l 622 892 l 722 956 l 796 892 l 881 951 z "},"":{"ha":974,"x_min":161,"x_max":1157,"o":"m 181 443 q 178 269 161 350 q 241 127 194 188 q 360 31 288 67 q 526 -4 433 -4 q 706 31 618 -4 q 866 127 793 67 q 991 269 939 188 q 1063 443 1043 350 l 1157 890 l 963 890 l 861 411 q 815 325 846 365 q 746 254 785 285 q 661 206 707 224 q 568 189 615 189 q 482 206 521 189 q 416 254 443 224 q 375 325 389 285 q 365 411 361 365 l 467 890 l 275 890 l 181 443 m 564 171 q 663 190 614 171 q 755 240 713 208 q 830 315 797 272 q 879 408 863 358 l 978 871 l 1133 871 l 1043 443 q 974 276 1024 354 q 856 140 925 199 q 702 49 786 82 q 531 15 618 15 q 373 49 443 15 q 258 140 303 82 q 196 276 213 199 q 199 443 179 354 l 289 871 l 444 871 l 346 408 q 356 315 342 358 q 400 240 371 272 q 471 190 429 208 q 564 171 513 171 m 233 443 q 231 290 215 361 q 288 165 246 218 q 393 81 329 111 q 539 50 457 50 q 697 81 619 50 q 838 165 774 111 q 947 290 901 218 q 1010 443 992 361 l 1093 836 l 1004 836 l 913 404 q 856 300 893 349 q 772 215 819 251 q 669 157 725 178 q 557 136 614 136 q 453 157 500 136 q 372 215 406 178 q 323 300 339 251 q 311 404 307 349 l 403 836 l 317 836 l 233 443 m 494 979 q 510 890 483 925 q 589 856 538 856 q 662 876 626 856 q 717 931 697 897 q 749 876 724 897 q 814 856 774 856 q 863 865 839 856 q 907 890 888 874 q 941 929 926 907 q 961 979 956 951 q 945 1067 972 1032 q 867 1101 918 1101 q 793 1081 828 1101 q 738 1025 758 1061 q 706 1081 731 1061 q 642 1101 681 1101 q 592 1092 617 1101 q 548 1067 568 1083 q 514 1028 528 1050 q 494 979 500 1006 m 738 979 q 783 1053 747 1024 q 863 1083 819 1083 q 928 1053 906 1083 q 942 979 951 1024 q 897 905 932 935 q 818 875 861 875 q 751 905 775 875 q 738 979 728 935 m 513 979 q 558 1053 522 1024 q 638 1083 594 1083 q 705 1053 682 1083 q 718 979 728 1024 q 673 905 708 935 q 593 875 638 875 q 526 905 550 875 q 513 979 503 935 m 772 979 q 781 929 765 949 q 825 910 796 910 q 878 929 854 910 q 908 979 901 949 q 899 1028 915 1010 q 854 1047 883 1047 q 802 1028 825 1047 q 772 979 779 1010 m 547 979 q 556 929 540 949 q 600 910 571 910 q 654 929 631 910 q 685 979 678 949 q 676 1028 692 1010 q 629 1047 660 1047 q 577 1028 600 1047 q 547 979 554 1010 z "},"":{"ha":885,"x_min":193,"x_max":1138,"o":"m 379 0 l 571 0 l 639 318 l 1138 892 l 904 892 l 585 532 l 424 892 l 193 892 l 446 311 l 379 0 m 465 319 l 224 872 l 410 872 l 578 499 l 910 872 l 1096 872 l 622 325 l 557 19 l 401 19 l 465 319 m 442 54 l 531 54 l 590 335 l 1026 839 l 919 839 l 565 438 l 386 839 l 281 839 l 500 329 l 442 54 m 861 1003 l 733 1142 l 504 950 l 631 822 l 861 1003 m 536 951 l 728 1113 l 831 1003 l 635 850 l 536 951 m 782 1001 l 719 1068 l 583 954 l 642 892 l 782 1001 z "},"":{"ha":857,"x_min":85,"x_max":950,"o":"m 147 53 l 310 814 l 394 814 l 360 653 l 747 653 q 815 635 785 653 q 865 588 846 618 q 889 517 883 558 q 885 428 894 475 q 853 346 876 385 q 800 277 831 307 q 732 230 769 247 q 657 213 694 213 l 531 213 l 546 290 l 658 290 q 710 303 686 290 q 751 337 733 317 q 779 381 768 357 q 794 428 790 406 q 798 478 800 453 q 786 526 796 504 q 759 561 776 547 q 715 575 742 575 l 343 575 l 232 53 l 147 53 m 400 688 l 435 849 l 283 849 l 107 18 l 258 18 l 369 540 l 708 540 q 739 530 726 540 q 758 503 751 519 q 765 466 764 486 q 761 428 765 446 q 751 394 758 413 q 731 361 743 376 q 702 335 718 346 q 667 325 686 325 l 521 325 l 489 179 l 649 179 q 737 199 693 179 q 817 254 781 219 q 881 334 854 289 q 918 428 907 379 q 923 530 931 482 q 892 613 915 578 q 834 667 869 647 q 754 688 799 688 l 400 688 m 85 0 l 269 867 l 457 867 l 422 706 l 758 706 q 846 684 807 706 q 909 625 885 663 q 942 537 933 588 q 938 428 950 486 q 897 326 926 375 q 828 241 868 278 q 741 182 789 204 q 644 160 693 160 l 467 160 l 507 343 l 671 343 q 697 351 685 343 q 719 372 710 360 q 734 399 728 385 q 743 428 740 414 q 747 460 747 443 q 741 490 746 476 q 727 513 736 504 q 704 522 718 522 l 383 522 l 272 0 l 85 0 z "},"":{"ha":849,"x_min":58,"x_max":978,"o":"m 581 481 l 731 481 q 790 535 763 501 q 825 599 818 569 q 828 649 831 624 q 816 697 826 675 q 788 731 806 718 q 744 744 771 744 l 490 744 q 443 731 467 744 q 399 697 419 718 q 365 651 379 676 q 346 600 351 625 l 210 -39 l 121 -39 l 256 593 q 290 684 265 642 q 346 758 314 726 q 415 807 378 789 q 490 825 453 825 l 776 825 q 844 808 814 825 q 894 760 875 790 q 918 687 913 729 q 914 596 924 644 q 871 502 903 543 q 808 436 839 461 q 842 370 826 410 q 847 282 857 331 q 813 192 836 233 q 757 119 789 150 q 688 70 725 88 q 613 53 650 53 l 488 53 l 504 133 l 615 133 q 665 147 642 133 q 706 182 688 161 q 738 228 725 203 q 756 279 750 254 q 749 344 763 311 q 711 400 736 376 l 563 400 l 581 481 m 554 514 l 522 365 l 693 365 q 717 324 708 347 q 722 279 726 301 q 709 242 718 261 q 688 206 700 222 q 658 178 675 189 q 624 168 642 168 l 479 168 l 447 19 l 606 19 q 693 40 649 19 q 775 95 738 60 q 841 178 813 131 q 881 282 869 226 q 879 367 892 328 q 851 435 867 406 q 908 506 881 465 q 947 596 936 547 q 952 699 960 651 q 922 783 944 747 q 863 839 899 818 q 785 860 828 860 l 499 860 q 410 839 454 860 q 328 782 365 818 q 262 697 290 746 q 222 593 233 649 l 81 -74 l 236 -74 l 379 600 q 393 638 383 618 q 417 674 403 657 q 449 701 432 690 q 483 711 467 711 l 738 711 q 768 701 756 711 q 787 674 781 690 q 794 637 793 657 q 792 599 796 617 q 768 553 786 576 q 726 514 750 531 l 554 514 m 540 533 l 722 533 q 756 566 742 549 q 774 599 771 583 q 776 632 776 615 q 770 662 775 649 q 756 684 765 675 q 733 693 747 693 l 479 693 q 453 684 467 693 q 429 662 440 675 q 410 632 418 649 q 399 600 401 615 l 251 -93 l 58 -93 l 204 593 q 247 704 217 653 q 317 794 276 756 q 406 856 358 833 q 501 878 453 878 l 788 878 q 874 856 836 878 q 937 797 913 835 q 969 707 961 758 q 965 596 978 656 q 928 508 954 547 q 875 436 903 468 q 900 368 890 407 q 899 282 910 329 q 856 171 886 222 q 786 81 826 119 q 698 22 746 43 q 601 0 650 0 l 425 0 l 465 188 l 628 188 q 653 196 642 188 q 676 217 665 204 q 693 247 686 231 q 704 279 700 264 q 701 313 707 294 q 682 346 694 331 l 500 346 l 540 533 z "},"":{"ha":949,"x_min":19,"x_max":996,"o":"m 19 0 l 236 0 l 628 564 l 728 190 l 426 190 l 258 0 l 996 0 l 761 856 l 892 950 l 744 1142 l 554 1003 l 647 893 l 19 0 m 672 901 l 585 1003 l 736 1113 l 863 951 l 739 864 l 971 19 l 299 19 l 433 171 l 754 171 l 639 608 l 228 19 l 51 19 l 672 901 m 115 54 l 214 54 l 656 688 l 801 136 l 443 136 l 371 54 l 922 54 l 697 881 l 115 54 m 725 1068 l 635 1001 l 728 892 l 815 954 l 725 1068 z "},"":{"ha":949,"x_min":19,"x_max":996,"o":"m 19 0 l 236 0 l 628 564 l 728 190 l 426 190 l 258 0 l 996 0 l 749 896 l 885 1003 l 757 1142 l 525 950 l 619 854 l 19 0 m 644 861 l 557 951 l 751 1113 l 854 1003 l 728 904 l 971 19 l 299 19 l 433 171 l 754 171 l 639 608 l 228 19 l 51 19 l 644 861 m 115 54 l 214 54 l 656 688 l 801 136 l 443 136 l 371 54 l 922 54 l 697 881 l 115 54 m 804 1001 l 742 1068 l 606 954 l 664 892 l 804 1001 z "},"":{"ha":949,"x_min":19,"x_max":996,"o":"m 19 0 l 236 0 l 628 564 l 728 190 l 426 190 l 258 0 l 996 0 l 769 828 l 772 825 l 957 954 l 749 1135 l 461 954 l 593 825 l 601 832 l 19 0 m 663 886 l 660 888 l 600 850 l 494 953 l 743 1108 l 925 953 l 776 850 l 738 881 l 735 879 l 971 19 l 299 19 l 433 171 l 754 171 l 639 608 l 228 19 l 51 19 l 663 886 m 115 54 l 214 54 l 656 688 l 801 136 l 443 136 l 371 54 l 922 54 l 697 881 l 115 54 m 869 951 l 733 1068 l 550 951 l 608 892 l 710 954 l 783 892 l 869 951 z "},"":{"ha":949,"x_min":19,"x_max":1013,"o":"m 550 825 l 636 878 l 19 0 l 236 0 l 628 564 l 728 190 l 426 190 l 258 0 l 996 0 l 763 849 l 1013 1006 l 883 1135 l 779 1069 l 706 1135 l 419 954 l 550 825 m 774 1044 l 876 1110 l 978 1007 l 740 857 l 971 19 l 299 19 l 433 171 l 754 171 l 639 608 l 228 19 l 51 19 l 672 900 l 657 913 l 557 850 l 451 953 l 701 1110 l 774 1044 m 115 54 l 214 54 l 656 688 l 801 136 l 443 136 l 371 54 l 922 54 l 697 881 l 115 54 m 565 892 l 665 954 l 740 890 l 925 1008 l 865 1067 l 764 1003 l 690 1068 l 507 951 l 565 892 z "},"":{"ha":949,"x_min":19,"x_max":996,"o":"m 19 0 l 236 0 l 628 564 l 728 189 l 426 189 l 258 0 l 996 0 l 758 863 q 779 857 768 858 q 803 856 790 856 q 852 865 828 856 q 896 890 876 874 q 929 929 915 907 q 949 978 943 951 q 933 1067 960 1032 q 856 1101 907 1101 q 781 1081 815 1101 q 725 1025 746 1060 q 692 1081 718 1060 q 629 1101 667 1101 q 578 1092 603 1101 q 535 1067 554 1083 q 501 1027 515 1050 q 481 978 486 1004 q 497 890 469 925 q 576 856 524 856 q 628 865 603 856 l 19 0 m 433 171 l 754 171 l 639 607 l 228 19 l 51 19 l 713 957 l 971 19 l 299 19 l 433 171 m 115 54 l 214 54 l 656 686 l 801 136 l 443 136 l 371 54 l 922 54 l 697 879 l 115 54 m 725 978 q 771 1052 735 1022 q 851 1082 807 1082 q 918 1052 894 1082 q 932 978 942 1022 q 886 904 922 933 q 807 875 850 875 q 739 904 763 875 q 725 978 715 933 m 500 978 q 545 1052 510 1022 q 625 1082 581 1082 q 692 1052 668 1082 q 706 978 715 1022 q 660 904 696 933 q 581 875 624 875 q 513 904 536 875 q 500 978 490 933 m 760 978 q 768 929 753 949 q 814 910 783 910 q 867 929 843 910 q 897 978 890 949 q 888 1028 904 1008 q 843 1047 872 1047 q 790 1028 813 1047 q 760 978 767 1008 m 533 978 q 542 929 526 949 q 588 910 557 910 q 640 929 617 910 q 671 978 664 949 q 662 1028 678 1008 q 617 1047 646 1047 q 563 1028 586 1047 q 533 978 540 1008 z "},"":{"ha":949,"x_min":19,"x_max":996,"o":"m 718 990 q 722 989 722 990 l 726 976 q 711 963 724 963 q 700 968 704 963 l 717 990 l 718 990 m 726 976 l 731 963 q 739 978 738 969 q 735 994 742 988 q 719 1000 729 1000 q 692 978 697 1000 q 694 958 688 965 l 700 968 q 701 978 700 974 q 717 990 703 990 l 722 997 l 722 989 q 728 978 728 988 l 726 976 m 742 978 q 719 1003 746 1003 q 700 997 708 1003 q 689 978 692 990 q 692 956 685 964 l 694 958 q 710 953 699 953 q 731 963 722 953 l 732 960 q 742 978 740 971 m 647 978 q 677 1028 654 1008 q 729 1047 700 1047 q 776 1028 760 1047 q 785 978 792 1008 q 754 929 778 949 q 700 910 731 910 q 656 929 671 910 q 647 978 640 949 m 443 136 l 801 136 l 656 686 l 214 54 l 115 54 l 697 879 l 922 54 l 371 54 l 443 136 m 613 978 q 618 917 606 943 q 660 881 631 892 l 51 19 l 228 19 l 639 607 l 754 171 l 433 171 l 299 19 l 971 19 l 733 882 q 788 919 765 893 q 818 978 811 946 q 805 1052 828 1022 q 738 1082 782 1082 q 658 1052 694 1082 q 613 978 622 1022 m 594 978 q 614 1027 600 1004 q 648 1067 628 1050 q 692 1092 668 1083 q 742 1101 717 1101 q 822 1067 794 1101 q 838 978 849 1032 q 808 915 831 943 q 754 872 786 888 l 996 0 l 258 0 l 426 189 l 728 189 l 628 564 l 236 0 l 19 0 l 632 869 q 594 978 578 900 z "},"":{"ha":1497,"x_min":19,"x_max":1664,"o":"m 1493 375 l 1108 375 l 1126 454 l 1511 454 l 1493 375 m 1065 340 l 1521 340 l 1553 489 l 1097 489 l 1065 340 m 1536 322 l 1042 322 l 1082 507 l 1576 507 l 1536 322 m 118 53 l 715 861 l 882 319 l 988 819 l 1597 819 l 1581 739 l 1063 739 l 933 133 l 1451 133 l 1435 53 l 386 53 l 460 133 l 835 133 l 675 672 l 221 53 l 118 53 m 731 938 l 53 18 l 238 18 l 658 594 l 788 167 l 450 167 l 314 18 l 1464 18 l 1496 167 l 978 167 l 1092 707 l 1610 707 l 1642 853 l 960 853 l 878 471 l 875 471 l 731 938 m 19 0 l 740 978 l 874 542 l 943 872 l 1664 872 l 1625 688 l 1107 688 l 1000 186 l 1518 186 l 1479 0 l 272 0 l 442 186 l 757 186 l 649 553 l 244 0 l 19 0 z "},"":{"ha":919,"x_min":147,"x_max":1047,"o":"m 217 444 q 278 597 233 525 q 387 722 324 668 q 527 806 450 775 q 685 836 604 836 q 881 772 801 836 q 986 606 961 708 l 906 558 q 824 698 888 643 q 668 753 761 753 q 545 727 606 753 q 434 659 485 701 q 347 560 383 617 q 299 443 311 504 q 298 326 286 382 q 342 227 310 269 q 424 160 375 185 q 536 135 474 135 q 701 180 621 135 q 839 299 782 225 l 886 235 q 749 116 826 163 q 586 56 672 69 q 557 -7 574 19 q 517 -56 540 -33 q 462 -97 494 -78 q 386 -136 429 -115 l 356 -65 q 410 -39 388 -51 q 449 -13 433 -26 q 476 15 465 0 q 493 51 486 31 q 358 88 417 56 q 262 174 299 121 q 213 297 225 226 q 217 444 200 367 m 182 444 q 176 294 165 365 q 222 167 188 224 q 313 73 257 111 q 440 22 368 35 q 392 -11 422 4 q 310 -50 361 -26 l 367 -181 q 456 -135 418 -157 q 523 -89 494 -112 q 572 -38 551 -65 q 608 25 593 -11 q 776 100 694 44 q 928 240 858 156 l 840 354 q 774 278 810 313 q 699 220 738 244 q 620 183 660 196 q 543 169 581 169 q 443 192 488 169 q 370 251 399 214 q 331 338 342 289 q 332 443 319 388 q 375 547 343 497 q 452 635 407 597 q 551 696 497 674 q 661 718 606 718 q 737 702 701 718 q 801 658 772 686 q 849 593 829 631 q 881 511 869 556 l 1026 594 q 980 706 1011 656 q 906 794 949 757 q 808 851 863 831 q 692 871 754 871 q 521 838 604 871 q 368 747 438 804 q 249 611 299 689 q 182 444 200 533 m 164 444 q 235 619 183 538 q 358 760 286 700 q 517 856 429 821 q 696 890 604 890 q 819 868 761 890 q 922 806 876 846 q 999 709 967 765 q 1047 585 1032 653 l 868 481 q 837 567 857 528 q 790 636 817 607 q 728 682 763 665 q 657 699 694 699 q 555 678 606 699 q 463 622 504 657 q 390 540 421 586 q 350 443 360 493 q 349 347 339 393 q 386 265 360 300 q 454 210 413 231 q 547 189 496 189 q 697 244 618 189 q 844 388 775 300 l 954 243 q 795 94 881 153 q 622 11 710 35 q 583 -51 606 -24 q 528 -104 560 -79 q 453 -153 496 -129 q 354 -206 411 -178 l 282 -43 q 299 -36 290 -40 q 315 -29 308 -32 q 358 -10 339 -18 q 393 10 378 -1 q 278 69 328 28 q 197 167 228 110 q 156 296 165 225 q 164 444 147 367 z "},"":{"ha":763,"x_min":82,"x_max":931,"o":"m 271 892 l 82 0 l 742 0 l 782 190 l 307 190 l 417 703 l 892 703 l 931 892 l 697 892 l 778 950 l 639 1142 l 457 1003 l 547 892 l 271 892 m 592 872 l 486 1003 l 631 1113 l 750 951 l 643 872 l 908 872 l 878 722 l 403 722 l 285 171 l 760 171 l 728 19 l 104 19 l 285 872 l 592 872 m 311 839 l 144 54 l 703 54 l 721 136 l 246 136 l 378 757 l 853 757 l 869 839 l 311 839 m 801 329 l 842 518 l 389 518 l 349 329 l 801 329 m 404 500 l 821 500 l 788 347 l 371 347 l 404 500 m 764 383 l 781 464 l 428 464 l 411 383 l 764 383 m 621 1068 l 533 1001 l 622 892 l 704 954 l 621 1068 z "},"":{"ha":763,"x_min":82,"x_max":931,"o":"m 271 892 l 82 0 l 742 0 l 782 190 l 307 190 l 417 703 l 892 703 l 931 892 l 654 892 l 790 1003 l 669 1142 l 447 950 l 500 892 l 271 892 m 549 872 l 478 951 l 664 1113 l 761 1003 l 600 872 l 908 872 l 878 722 l 403 722 l 285 171 l 760 171 l 728 19 l 104 19 l 285 872 l 549 872 m 311 839 l 144 54 l 703 54 l 721 136 l 246 136 l 378 757 l 853 757 l 869 839 l 311 839 m 801 329 l 842 518 l 389 518 l 349 329 l 801 329 m 404 500 l 821 500 l 788 347 l 371 347 l 404 500 m 764 383 l 781 464 l 428 464 l 411 383 l 764 383 m 714 1001 l 656 1068 l 524 954 l 579 892 l 714 1001 z "},"":{"ha":763,"x_min":82,"x_max":931,"o":"m 851 954 l 653 1135 l 376 954 l 435 892 l 271 892 l 82 0 l 742 0 l 782 190 l 307 190 l 417 703 l 892 703 l 931 892 l 763 892 l 851 954 m 706 872 l 908 872 l 878 722 l 403 722 l 285 171 l 760 171 l 728 19 l 104 19 l 285 872 l 485 872 l 408 953 l 647 1108 l 818 953 l 706 872 m 869 839 l 311 839 l 144 54 l 703 54 l 721 136 l 246 136 l 378 757 l 853 757 l 869 839 m 349 329 l 801 329 l 842 518 l 389 518 l 349 329 m 404 500 l 821 500 l 788 347 l 371 347 l 404 500 m 411 383 l 764 383 l 781 464 l 428 464 l 411 383 m 767 951 l 638 1068 l 461 951 l 517 892 l 614 954 l 683 892 l 767 951 m 540 872 l 651 872 l 606 914 l 540 872 z "},"":{"ha":763,"x_min":82,"x_max":931,"o":"m 271 890 l 82 0 l 742 0 l 782 189 l 307 189 l 415 701 l 890 701 l 931 890 l 790 890 q 823 928 810 906 q 843 978 836 950 q 828 1067 854 1032 q 753 1101 803 1101 q 683 1081 717 1101 q 629 1025 649 1060 q 598 1081 622 1060 q 538 1101 574 1101 q 447 1067 489 1101 q 394 978 406 1032 q 410 890 382 924 l 271 890 m 285 171 l 760 171 l 728 19 l 104 19 l 285 871 l 908 871 l 876 721 l 401 721 l 285 171 m 311 836 l 144 54 l 703 54 l 721 136 l 246 136 l 378 756 l 853 756 l 869 836 l 311 836 m 801 328 l 842 518 l 389 518 l 349 328 l 801 328 m 403 499 l 819 499 l 788 347 l 371 347 l 403 499 m 629 978 q 674 1052 639 1022 q 749 1082 708 1082 q 813 1052 790 1082 q 825 978 835 1022 q 781 904 815 933 q 704 875 746 875 q 642 904 664 875 q 629 978 619 933 m 413 978 q 458 1052 422 1022 q 533 1082 493 1082 q 597 1052 575 1082 q 610 978 619 1022 q 565 904 600 933 q 489 875 531 875 q 426 904 449 875 q 413 978 403 933 m 763 382 l 781 464 l 428 464 l 410 382 l 763 382 m 446 978 q 453 929 439 949 q 496 910 468 910 q 548 929 525 910 q 578 978 571 949 q 569 1028 585 1008 q 525 1047 554 1047 q 475 1028 497 1047 q 446 978 453 1008 m 663 978 q 669 929 656 949 q 711 910 683 910 q 763 929 739 910 q 793 978 786 949 q 784 1028 800 1008 q 740 1047 768 1047 q 691 1028 713 1047 q 663 978 669 1008 m 626 890 l 575 890 q 593 908 585 899 q 608 931 601 917 q 626 890 613 907 z "},"":{"ha":225,"x_min":61,"x_max":456,"o":"m 250 892 l 61 0 l 200 0 l 389 886 l 456 950 l 363 1142 l 218 1003 l 278 892 l 250 892 m 314 872 l 242 1003 l 354 1111 l 435 951 l 349 872 l 369 872 l 189 19 l 79 19 l 260 872 l 314 872 m 276 839 l 110 54 l 174 54 l 340 839 l 276 839 m 344 1068 l 274 1001 l 336 892 l 401 954 l 344 1068 z "},"":{"ha":225,"x_min":61,"x_max":468,"o":"m 468 1003 l 385 1142 l 208 950 l 250 886 l 61 0 l 200 0 l 389 892 l 360 892 l 468 1003 m 281 872 l 232 951 l 379 1111 l 444 1003 l 318 872 l 369 872 l 189 19 l 79 19 l 260 872 l 281 872 m 276 839 l 110 54 l 174 54 l 340 839 l 276 839 m 411 1001 l 371 1068 l 264 954 l 304 892 l 411 1001 z "},"":{"ha":258,"x_min":72,"x_max":565,"o":"m 565 954 l 396 1135 l 147 954 l 249 832 l 72 0 l 236 0 l 413 832 l 565 954 m 224 19 l 93 19 l 271 857 l 261 850 l 176 953 l 390 1108 l 538 953 l 410 850 l 401 856 l 224 19 m 294 839 l 128 54 l 203 54 l 369 839 l 294 839 m 493 951 l 381 1068 l 222 951 l 271 892 l 357 954 l 417 892 l 493 951 m 290 872 l 386 872 l 349 914 l 290 872 z "},"":{"ha":265,"x_min":75,"x_max":583,"o":"m 164 978 q 176 890 153 925 q 243 856 199 856 l 257 856 l 75 0 l 244 0 l 426 856 l 440 856 q 483 865 463 856 q 522 890 504 874 q 553 929 540 907 q 572 978 567 951 q 560 1067 583 1032 q 493 1101 538 1101 q 426 1081 457 1101 q 378 1026 396 1060 q 351 1081 372 1060 q 296 1101 329 1101 q 213 1067 251 1101 q 164 978 175 1032 m 276 871 l 413 871 l 232 19 l 96 19 l 276 871 m 297 836 l 131 54 l 210 54 l 376 836 l 297 836 m 376 978 q 419 1052 386 1022 q 489 1082 451 1082 q 544 1052 525 1082 q 554 978 564 1022 q 513 904 544 933 q 444 875 481 875 q 387 904 407 875 q 376 978 367 933 m 181 978 q 222 1052 190 1022 q 292 1082 254 1082 q 348 1052 328 1082 q 358 978 368 1022 q 316 904 349 933 q 247 875 283 875 q 190 904 210 875 q 181 978 171 933 m 406 978 q 412 929 399 949 q 451 910 425 910 q 498 929 478 910 q 525 978 518 949 q 519 1028 532 1008 q 481 1047 507 1047 q 433 1028 454 1047 q 406 978 413 1008 m 210 978 q 215 929 203 949 q 254 910 228 910 q 301 929 281 910 q 329 978 322 949 q 323 1028 336 1008 q 283 1047 310 1047 q 237 1028 257 1047 q 210 978 217 1008 m 371 890 l 325 890 q 356 929 342 904 q 360 908 357 917 q 371 890 364 899 z "},"":{"ha":954,"x_min":144,"x_max":1061,"o":"m 531 532 l 561 672 q 465 608 513 649 q 378 515 418 568 l 858 515 q 820 610 851 568 q 744 675 789 651 l 714 532 l 531 532 m 550 188 q 691 226 624 188 q 803 328 758 265 l 357 328 q 433 225 381 263 q 550 188 486 188 m 546 168 q 413 217 471 168 q 333 346 354 265 l 836 346 q 781 276 813 308 q 710 219 749 243 q 631 181 672 194 q 546 168 589 168 m 538 133 q 645 153 592 133 q 746 206 699 172 q 831 284 793 239 q 890 381 868 329 l 290 381 q 317 281 296 326 q 371 203 338 236 q 447 151 404 169 q 538 133 489 133 m 594 585 l 629 747 q 470 681 547 733 q 344 557 393 629 l 286 603 q 444 756 349 694 q 647 831 540 817 l 679 979 l 757 979 l 725 829 q 851 786 794 819 q 944 701 907 753 q 994 583 981 650 q 992 442 1007 517 q 929 290 975 361 q 819 165 883 218 q 678 81 756 113 q 521 50 601 50 q 392 81 454 50 q 285 164 329 111 q 219 288 240 217 q 217 442 199 360 l 221 463 l 914 463 q 908 560 919 513 q 868 646 896 607 q 799 711 840 685 q 707 747 758 738 l 672 585 l 594 585 m 553 550 l 700 550 l 732 701 q 838 622 797 676 q 881 497 878 567 l 194 497 l 183 442 q 185 275 164 353 q 256 140 207 197 q 372 49 304 82 q 513 15 439 15 q 684 49 600 15 q 838 142 768 83 q 958 277 908 200 q 1026 442 1007 354 q 1030 589 1043 519 q 981 713 1017 658 q 890 806 946 768 q 765 858 835 843 l 799 1014 l 651 1014 l 618 858 q 410 766 510 838 q 240 592 311 694 l 349 508 q 456 626 393 575 q 585 701 519 678 l 553 550 m 179 515 l 303 515 l 214 583 q 297 685 251 638 q 392 769 342 732 q 496 834 442 807 q 604 874 550 861 l 638 1032 l 821 1032 l 788 874 q 912 817 857 857 q 1002 720 967 776 q 1049 592 1038 664 q 1044 442 1061 521 q 973 269 1025 350 q 848 127 921 188 q 688 31 775 67 q 508 -4 600 -4 q 363 31 433 -4 q 241 126 292 65 q 167 267 190 186 q 164 442 144 349 l 179 515 z "},"":{"ha":913,"x_min":85,"x_max":1082,"o":"m 275 0 l 400 589 l 679 0 l 893 0 l 1082 892 l 890 892 l 767 304 l 521 836 l 532 825 l 633 888 l 706 825 l 989 1006 l 860 1135 l 758 1069 l 688 1135 l 404 954 l 464 892 l 274 892 l 85 0 l 275 0 m 771 243 l 904 872 l 1060 872 l 879 19 l 694 19 l 396 653 l 261 19 l 107 19 l 288 872 l 481 872 l 771 243 m 233 54 l 383 758 l 717 54 l 853 54 l 1019 839 l 932 839 l 783 135 l 457 839 l 314 839 l 147 54 l 233 54 m 753 1044 l 853 1110 l 956 1007 l 711 850 l 639 913 l 539 850 l 436 953 l 682 1110 l 753 1044 m 549 892 l 647 954 l 719 890 l 901 1008 l 842 1067 l 743 1003 l 672 1068 l 490 951 l 549 892 z "},"":{"ha":954,"x_min":150,"x_max":1061,"o":"m 351 443 q 392 540 361 493 q 465 622 422 586 q 558 678 507 657 q 660 699 608 699 q 752 678 711 699 q 820 622 793 657 q 857 540 847 586 q 857 443 867 493 q 826 369 849 406 q 768 298 803 332 q 690 234 733 264 q 599 183 647 204 l 668 21 q 801 100 739 54 q 913 201 864 146 q 997 317 963 256 q 1044 444 1031 379 q 1051 597 1061 525 q 1006 726 1040 668 q 916 823 971 783 q 789 879 861 863 l 883 946 l 736 1138 l 549 999 l 643 886 q 480 837 558 875 q 337 740 401 799 q 227 606 272 682 q 164 444 182 529 q 157 319 150 381 q 188 202 164 257 q 253 101 213 147 q 347 22 293 56 l 506 182 q 431 234 464 204 q 378 299 399 264 q 351 370 358 333 q 351 443 343 407 m 333 443 q 331 364 325 403 q 355 290 336 325 q 403 226 374 256 q 472 175 433 197 l 344 47 q 260 119 296 76 q 202 214 224 163 q 176 324 181 265 q 183 444 171 383 q 250 608 201 532 q 367 742 299 685 q 517 834 435 800 q 688 869 600 868 l 579 999 l 729 1108 l 854 947 l 743 868 q 880 822 819 858 q 978 728 940 785 q 1030 598 1017 671 q 1026 444 1043 525 q 982 323 1014 382 q 905 212 950 264 q 802 117 860 160 q 679 46 744 75 l 625 178 q 713 227 671 199 q 788 290 754 256 q 844 364 821 325 q 876 443 868 403 q 877 547 888 497 q 838 635 867 597 q 764 696 808 674 q 664 718 719 718 q 554 696 608 718 q 455 635 500 674 q 377 547 410 597 q 333 443 344 497 m 300 443 q 349 560 313 504 q 435 659 385 617 q 547 727 486 701 q 671 753 608 753 q 783 727 733 753 q 865 659 833 701 q 910 560 897 617 q 910 443 922 504 q 878 356 900 399 q 824 277 856 314 q 753 211 792 240 q 672 163 714 182 l 701 92 q 803 152 756 115 q 888 235 850 189 q 953 334 926 281 q 992 444 979 388 q 994 597 1008 525 q 938 722 979 668 q 832 806 896 775 q 688 836 768 836 q 528 806 606 836 q 388 722 451 775 q 279 597 325 668 q 217 444 233 525 q 228 237 193 332 q 347 92 264 142 l 418 161 q 356 210 382 181 q 314 277 329 240 q 294 356 299 314 q 300 443 290 399 m 718 1064 l 628 997 l 721 889 l 806 950 l 718 1064 z "},"":{"ha":954,"x_min":150,"x_max":1063,"o":"m 351 443 q 392 540 361 493 q 465 622 422 586 q 558 678 507 657 q 660 699 608 699 q 752 678 711 699 q 820 622 793 657 q 857 540 847 586 q 857 443 867 493 q 826 369 849 406 q 768 298 803 332 q 690 234 733 264 q 599 183 647 204 l 668 21 q 801 100 739 54 q 913 201 864 146 q 997 317 963 256 q 1044 444 1031 379 q 1049 606 1063 529 q 997 740 1036 682 q 894 837 957 799 q 753 886 832 875 l 894 999 l 768 1138 l 539 946 l 603 879 q 453 823 525 863 q 322 726 381 783 q 222 597 264 668 q 164 444 181 525 q 157 319 150 381 q 188 202 164 257 q 253 101 213 147 q 347 22 293 56 l 506 182 q 431 234 464 204 q 378 299 399 264 q 351 370 358 333 q 351 443 343 407 m 333 443 q 331 364 325 403 q 355 290 336 325 q 403 226 374 256 q 472 175 433 197 l 344 47 q 260 119 296 76 q 202 214 224 163 q 176 324 181 265 q 183 444 171 383 q 244 598 200 525 q 350 728 288 671 q 488 822 413 785 q 646 868 564 858 l 568 947 l 764 1108 l 867 999 l 701 869 q 856 834 788 868 q 969 742 925 800 q 1028 608 1013 685 q 1026 444 1044 532 q 982 323 1014 382 q 905 212 950 264 q 802 117 860 160 q 679 46 744 75 l 625 178 q 713 227 671 199 q 788 290 754 256 q 844 364 821 325 q 876 443 868 403 q 877 547 888 497 q 838 635 867 597 q 764 696 808 674 q 664 718 719 718 q 554 696 608 718 q 455 635 500 674 q 377 547 410 597 q 333 443 344 497 m 300 443 q 349 560 313 504 q 435 659 385 617 q 547 727 486 701 q 671 753 608 753 q 783 727 733 753 q 865 659 833 701 q 910 560 897 617 q 910 443 922 504 q 878 356 900 399 q 824 277 856 314 q 753 211 792 240 q 672 163 714 182 l 701 92 q 803 152 756 115 q 888 235 850 189 q 953 334 926 281 q 992 444 979 388 q 994 597 1008 525 q 938 722 979 668 q 832 806 896 775 q 688 836 768 836 q 528 806 606 836 q 388 722 451 775 q 279 597 325 668 q 217 444 233 525 q 228 237 193 332 q 347 92 264 142 l 418 161 q 356 210 382 181 q 314 277 329 240 q 294 356 299 314 q 300 443 290 399 m 817 997 l 754 1064 l 617 950 l 676 889 l 817 997 z "},"":{"ha":954,"x_min":150,"x_max":1060,"o":"m 351 443 q 392 540 361 493 q 465 622 422 586 q 558 678 507 657 q 660 699 608 699 q 752 678 711 699 q 820 622 793 657 q 857 540 847 586 q 857 443 867 493 q 826 369 849 406 q 768 298 803 332 q 690 234 733 264 q 599 183 647 204 l 668 21 q 801 100 739 54 q 913 201 864 146 q 997 317 963 256 q 1044 444 1031 379 q 1052 585 1060 518 q 1017 706 1044 651 q 942 802 989 761 q 836 865 896 843 l 957 950 l 750 1131 l 464 950 l 549 865 q 417 802 479 843 q 303 706 354 761 q 215 585 251 651 q 164 444 179 518 q 157 319 150 381 q 188 202 164 257 q 253 101 213 147 q 347 22 293 56 l 506 182 q 431 234 464 204 q 378 299 399 264 q 351 370 358 333 q 351 443 343 407 m 333 443 q 331 364 325 403 q 355 290 336 325 q 403 226 374 256 q 472 175 433 197 l 344 47 q 260 119 296 76 q 202 214 224 163 q 176 324 181 265 q 183 444 171 383 q 237 587 199 519 q 329 708 275 654 q 449 801 383 763 q 589 858 515 840 l 496 949 l 744 1104 l 924 949 l 794 858 q 910 801 860 840 q 991 708 960 763 q 1033 587 1022 654 q 1026 444 1043 519 q 982 323 1014 382 q 905 212 950 264 q 802 117 860 160 q 679 46 744 75 l 625 178 q 713 227 671 199 q 788 290 754 256 q 844 364 821 325 q 876 443 868 403 q 877 547 888 497 q 838 635 867 597 q 764 696 808 674 q 664 718 719 718 q 554 696 608 718 q 455 635 500 674 q 377 547 410 597 q 333 443 344 497 m 300 443 q 349 560 313 504 q 435 659 385 617 q 547 727 486 701 q 671 753 608 753 q 783 727 733 753 q 865 659 833 701 q 910 560 897 617 q 910 443 922 504 q 878 356 900 399 q 824 277 856 314 q 753 211 792 240 q 672 163 714 182 l 701 92 q 803 152 756 115 q 888 235 850 189 q 953 334 926 281 q 992 444 979 388 q 994 597 1008 525 q 938 722 979 668 q 832 806 896 775 q 688 836 768 836 q 528 806 606 836 q 388 722 451 775 q 279 597 325 668 q 217 444 233 525 q 228 237 193 332 q 347 92 264 142 l 418 161 q 356 210 382 181 q 314 277 329 240 q 294 356 299 314 q 300 443 290 399 m 869 947 l 736 1064 l 551 947 l 613 889 l 713 951 l 786 889 l 869 947 m 694 871 q 726 870 713 871 q 753 868 740 869 l 703 911 l 636 868 l 646 868 q 670 870 658 869 q 694 871 682 871 z "}}}
